<?xml version="1.0" encoding="UTF-8"?><svg xmlns="http://www.w3.org/2000/svg" xmlns:xlink="http://www.w3.org/1999/xlink" fill="#000000" height="42.6" preserveAspectRatio="xMidYMid meet" version="1" viewBox="0.0 -0.0 500.0 42.6" width="500" zoomAndPan="magnify"><g fill="#745e4d" id="change1_1"><path d="M244.2,21.3L244.2,21.3L244.2,21.3L244.2,21.3L244.2,21.3c-0.1-1-2.8-3.7-6.6-6.2c-3.7-2.6-9.7-0.1-9.8,6.2 l0,0l0,0c0.1,6.3,6.1,8.8,9.8,6.2C241.4,25,244.1,22.3,244.2,21.3z" fill="inherit"/><path d="M249.1,16.4c1-0.1,3.7-2.8,6.2-6.6c2.6-3.7,0.1-9.7-6.2-9.8c-6.3,0.1-8.8,6.1-6.2,9.8 C245.4,13.6,248.1,16.3,249.1,16.4z" fill="inherit"/><path d="M254.1,21.3L254.1,21.3L254.1,21.3L254.1,21.3L254.1,21.3c0.1,1,2.8,3.7,6.6,6.2c3.7,2.6,9.7,0.1,9.8-6.2 l0,0l0,0c-0.1-6.3-6.1-8.8-9.8-6.2C256.8,17.6,254.2,20.3,254.1,21.3z" fill="inherit"/><path d="M255.4,32.8c-2.5-3.8-5.2-6.5-6.2-6.6c-1,0.1-3.7,2.8-6.2,6.6c-2.6,3.7-0.1,9.7,6.2,9.8 C255.5,42.6,257.9,36.5,255.4,32.8z" fill="inherit"/><circle cx="192.6" cy="20.5" fill="inherit" r="8.1"/><circle cx="161.8" cy="20.5" fill="inherit" r="8.1"/><circle cx="131.1" cy="20.5" fill="inherit" r="8.1"/><circle cx="100.3" cy="20.5" fill="inherit" r="8.1"/><circle cx="69.6" cy="20.5" fill="inherit" r="8.1"/><circle cx="38.8" cy="20.5" fill="inherit" r="8.1"/><circle cx="8.1" cy="20.5" fill="inherit" r="8.1"/><circle cx="491.9" cy="20.5" fill="inherit" r="8.1"/><circle cx="461.2" cy="20.5" fill="inherit" r="8.1"/><circle cx="430.4" cy="20.5" fill="inherit" r="8.1"/><circle cx="399.7" cy="20.5" fill="inherit" r="8.1"/><circle cx="368.9" cy="20.5" fill="inherit" r="8.1"/><circle cx="338.2" cy="20.5" fill="inherit" r="8.1"/><circle cx="307.4" cy="20.5" fill="inherit" r="8.1"/></g></svg>