<?xml version="1.0" encoding="UTF-8"?><svg xmlns="http://www.w3.org/2000/svg" xmlns:xlink="http://www.w3.org/1999/xlink" fill="#000000" height="113.5" preserveAspectRatio="xMidYMid meet" version="1" viewBox="0.0 -0.2 500.7 113.5" width="500.7" zoomAndPan="magnify"><g fill="#a9852a" id="change1_1"><path d="M500.3,10.9H314l-49.8-3.8c0.2,0.9,0.3,1.8,0.3,2.8c0,0.7,0,1.4-0.1,2s-0.2,1.2-0.4,1.8 c-0.2,0.6-0.4,1.2-0.6,1.7c0,0.1-0.1,0.2-0.1,0.2c-0.1,0.3-0.3,0.6-0.5,0.9c-0.1,0.2-0.2,0.3-0.3,0.5c-0.2,0.4-0.5,0.8-0.8,1.2 c-0.1,0.1-0.1,0.2-0.2,0.3c-0.3,0.4-0.6,0.8-1,1.1c0,0-0.1,0.1-0.1,0.2c-0.4,0.4-0.8,0.8-1.2,1.1c0,0,0,0-0.1,0.1 c-0.4,0.3-0.9,0.7-1.3,1l0,0c-0.4,0.3-0.9,0.5-1.4,0.8c0,0-0.1,0-0.1,0.1c-0.4,0.2-0.9,0.4-1.4,0.5c-0.1,0-0.2,0.1-0.2,0.1 c-0.4,0.1-0.9,0.3-1.3,0.4c-0.1,0-0.2,0-0.3,0.1c-0.4,0.1-0.8,0.1-1.3,0.2c-0.1,0-0.2,0-0.4,0c-0.4,0-0.7,0.1-1.1,0.1h-0.1 c-0.1,0-0.2,0-0.4,0c-0.4,0-0.8,0-1.2-0.1c-0.1,0-0.3,0-0.4,0c-0.4-0.1-0.8-0.1-1.2-0.2l0,0c-0.1,0-0.2-0.1-0.4-0.1 c-0.4-0.1-0.8-0.2-1.2-0.4l0,0c-0.1,0-0.2-0.1-0.3-0.1c-0.4-0.1-0.8-0.3-1.2-0.5c-0.1,0-0.2-0.1-0.3-0.1c-0.4-0.2-0.8-0.5-1.2-0.7 c-0.1,0-0.1-0.1-0.2-0.1c-0.4-0.3-0.8-0.6-1.1-0.9l0,0L241,21c-0.4-0.3-0.8-0.7-1.1-1.1l0,0c-0.4-0.4-0.7-0.8-1-1.3l0.1-0.1h-0.1 c-0.3-0.4-0.6-0.9-0.9-1.4c0,0-0.1-0.1-0.1-0.2c-0.2-0.3-0.3-0.6-0.5-0.9c-0.1-0.1-0.1-0.3-0.2-0.4c-0.2-0.5-0.4-1.1-0.6-1.6 c-0.1-0.6-0.3-1.1-0.3-1.7c-0.1-0.7-0.1-1.3-0.1-2c0-1,0.1-1.9,0.3-2.8l-49.8,3.8H0.5c-0.3,0-0.5,0.2-0.5,0.5s0.2,0.5,0.5,0.5 h186.4l38.6,2.9l-14.2,3.7l-60.1,11c-0.3,0-0.4,0.3-0.4,0.5s0.2,0.4,0.5,0.4h0.1l60.1-11l15.2-1.6l-14.2,5.9l-58.1,19 c-0.2,0.1-0.4,0.3-0.3,0.6c0.1,0.2,0.2,0.3,0.4,0.3h0.1l58.1-19l14.8-3.6l-13.2,7.7l-55.1,26.7c-0.2,0.1-0.3,0.4-0.2,0.6 c0.1,0.2,0.2,0.3,0.4,0.3c0.1,0,0.1,0,0.2,0L214.7,30l14.1-5.6l-12,9.4l-51,33.9c-0.2,0.1-0.3,0.4-0.1,0.6c0.1,0.1,0.2,0.2,0.4,0.2 c0.1,0,0.2,0,0.3-0.1l51-33.9l13.3-7.4L220,37.6L174,78c-0.2,0.2-0.2,0.5,0,0.7c0.1,0.1,0.2,0.2,0.4,0.2c0.1,0,0.2,0,0.3-0.1 l45.9-40.4l12.3-9.2l-9.2,12.3l-40.2,46.2c-0.2,0.2-0.1,0.5,0,0.7c0.1,0.1,0.2,0.1,0.3,0.1s0.3-0.1,0.4-0.2L224.4,42l10.8-10.7 l-7.4,13.4L194.1,96c-0.1,0.2-0.1,0.5,0.1,0.6c0.1,0.1,0.2,0.1,0.3,0.1c0.2,0,0.3-0.1,0.4-0.2l33.6-51.2l9.3-12.1l-5.6,14.3 l-26.4,55.2c-0.1,0.2,0,0.5,0.2,0.6c0.1,0,0.1,0,0.2,0c0.2,0,0.3-0.1,0.4-0.3l26.5-55.3l7.6-13.2l-3.6,14.9l-18.9,58.4 c-0.1,0.2,0.1,0.5,0.3,0.6h0.1c0.2,0,0.4-0.1,0.4-0.3l18.9-58.4l5.8-14.1l-1.6,15.3l-10.9,60.4c0,0.3,0.1,0.5,0.4,0.5h0.1 c0.2,0,0.4-0.2,0.5-0.4L243.3,51l3.8-14.8l0.5,15.3l-2.7,61.3c0,0.3,0.2,0.5,0.4,0.5l0,0c0.2,0,0.5-0.2,0.5-0.4l2.7-61.3l1.8-15.2 l2.5,15.1l5.5,61.1c0,0.2,0.2,0.4,0.5,0.4l0,0c0.3,0,0.4-0.2,0.4-0.5l-5.5-61.1l-0.2-15.3l4.5,14.6l13.7,59.9 c0,0.2,0.2,0.4,0.5,0.4h0.1c0.3-0.1,0.4-0.3,0.4-0.6L259,50.6l-2.3-15.2l6.5,13.9l21.5,57.4c0.1,0.2,0.2,0.3,0.4,0.3 c0.1,0,0.1,0,0.2,0c0.2-0.1,0.4-0.4,0.3-0.6L264.1,49l-4.3-14.6l8.2,12.9l29,54c0.1,0.2,0.2,0.2,0.4,0.2c0.1,0,0.2,0,0.2-0.1 c0.2-0.1,0.3-0.4,0.2-0.6l-29-54l-6.2-14l9.9,11.7l36,49.6c0.1,0.1,0.2,0.2,0.4,0.2c0.1,0,0.2,0,0.3-0.1c0.2-0.2,0.3-0.4,0.1-0.7 L273.4,44l-8-13.1l11.4,10.3L319,85.5c0.1,0.1,0.2,0.1,0.3,0.1c0.1,0,0.2,0,0.3-0.1c0.2-0.2,0.2-0.5,0-0.7l-42.3-44.3l-9.7-11.8 l12.6,8.6l47.9,38.3c0.1,0.1,0.2,0.1,0.3,0.1c0.1,0,0.3-0.1,0.4-0.2c0.2-0.2,0.1-0.5-0.1-0.7l-47.8-38.2l-11.2-10.4l13.7,6.8 l52.5,31.4c0.1,0,0.2,0.1,0.2,0.1c0.2,0,0.3-0.1,0.4-0.2c0.1-0.2,0.1-0.5-0.2-0.6l-52.5-31.4l-12.5-8.8l14.5,4.9L342,52.5 c0.1,0,0.1,0,0.2,0c0.2,0,0.4-0.1,0.4-0.3c0.1-0.2,0-0.5-0.2-0.6l-56.2-24.1l-13.5-7l15,2.9l58.9,16.3h0.1c0.2,0,0.4-0.1,0.5-0.3 s-0.1-0.5-0.3-0.6L288,22.5l-14.4-5.2l15.3,0.9l60.5,8.2c0,0,0,0,0.1,0c0.2,0,0.4-0.2,0.5-0.4c0-0.3-0.1-0.5-0.4-0.5L289,17.2 l-12-2.6l36.8-2.8h186.4c0.3,0,0.5-0.2,0.5-0.5S500.5,10.9,500.3,10.9z" fill="inherit"/><path d="M240.7,12c0.1,0.4,0.2,0.8,0.3,1.1c0.1,0.4,0.2,0.7,0.4,1c0,0.1,0.1,0.1,0.1,0.2c0.1,0.3,0.3,0.5,0.4,0.8 l0,0c0.2,0.3,0.4,0.6,0.6,0.9l-0.1,0.1h0.2c0.2,0.2,0.4,0.5,0.6,0.7c0.1,0.1,0.2,0.2,0.2,0.2c0.2,0.2,0.3,0.3,0.5,0.5 c0.1,0.1,0.2,0.2,0.4,0.3c0.1,0.1,0.3,0.2,0.4,0.3c0.2,0.1,0.3,0.2,0.5,0.3c0.1,0.1,0.2,0.1,0.4,0.2s0.4,0.2,0.6,0.3 c0.1,0,0.2,0.1,0.3,0.1c0.2,0.1,0.5,0.2,0.7,0.3c0.1,0,0.2,0.1,0.2,0.1c0.2,0.1,0.5,0.1,0.8,0.2c0.1,0,0.1,0,0.2,0l0,0 c0.3,0.1,0.5,0.1,0.8,0.1c0.1,0,0.1,0,0.2,0c0.3,0,0.5,0,0.8,0h0.2c0.3,0,0.5,0,0.8,0c0.1,0,0.2,0,0.3,0l0,0c0.2,0,0.5-0.1,0.7-0.1 c0.1,0,0.3-0.1,0.4-0.1c0.2,0,0.4-0.1,0.6-0.2c0.2,0,0.4-0.1,0.5-0.2c0.2-0.1,0.3-0.1,0.5-0.2s0.4-0.2,0.6-0.3 c0.1,0,0.2-0.1,0.3-0.2c0.3-0.2,0.5-0.3,0.8-0.5l0.2,0.1l-0.1-0.1c0.3-0.2,0.6-0.4,0.8-0.7l0,0c0.3-0.2,0.5-0.5,0.8-0.8 c0.1-0.1,0.1-0.1,0.2-0.2c0.2-0.2,0.4-0.5,0.5-0.7c0.2-0.3,0.4-0.7,0.6-1c0-0.1,0.1-0.2,0.1-0.3c0.1-0.3,0.3-0.5,0.4-0.8 c0.2-0.4,0.3-0.8,0.4-1.2s0.2-0.9,0.2-1.3c0-0.4,0.1-0.7,0.1-1.1c0-0.8-0.1-1.6-0.3-2.3c-1-4.4-5-7.7-9.7-7.7s-8.6,3.3-9.7,7.7 c-0.2,0.7-0.3,1.5-0.3,2.3c0,0.3,0,0.6,0,0.9C240.5,11.2,240.6,11.6,240.7,12z" fill="inherit"/></g></svg>