<?xml version="1.0" encoding="UTF-8"?><svg xmlns="http://www.w3.org/2000/svg" xmlns:xlink="http://www.w3.org/1999/xlink" fill="#000000" height="363.6" preserveAspectRatio="xMidYMid meet" version="1" viewBox="-2.2 -0.7 408.4 363.6" width="408.4" zoomAndPan="magnify"><g id="change1_1"><path d="M125.8,222c-6.2-16.8-16.7-31.7-28.1-45.3c-7.8-9.3-19.5-23-32.7-23.7c-15.2-0.9-12,24-8.7,32 c9.4,22.6,36.3,28.7,55.1,40.6c4.2,2.7,8-4,3.9-6.6c-14.5-9.2-31.7-14.1-44.3-26c-7.5-7.1-11.7-17.5-9.3-27.7 c1.8-7.7,8.1-8.5,12.3-5.8c19.5,12.7,36.6,43.1,44.5,64.6C120.1,228.7,127.5,226.7,125.8,222L125.8,222z" fill="#a9852a"/></g><g id="change1_2"><path d="M138.2,220.3c-2.7-17-5.2-34-7.3-51c-1-7.9-1.9-15.8-2.7-23.7c-0.5-4.5-0.6-8.7,0-13.2 c1.8-12.9,17.2-10.8,23.7-5.2c13.6,11.8,0.4,35.9-4.8,48.4c-6.3,15.4-13.5,31.3-17.2,47.5c-1.1,4.8,6.3,6.9,7.4,2 c5.7-24.8,17-47.3,23.8-71.6c4.5-16-1.6-34.8-19.3-38.2c-16.6-3.3-24.6,8.8-24.1,21.7c1.1,26.7,8.9,59.1,13.2,85.5 C131.6,227.2,138.9,225.2,138.2,220.3L138.2,220.3z" fill="#a9852a"/></g><g id="change1_3"><path d="M113.9,235.3c-28.1-0.1-57.2-2.8-85.8-3c-15-0.1-30.3,5.2-27.8,22.8c2.9,20,35.3,27.5,50.1,28.7 c25.4,2,39.5-23.4,56.7-39.3c3.6-3.4-1.8-8.8-5.4-5.4c-11,10.2-26.1,30.2-41.7,32.1C45,273,13.5,269.6,7.6,253.1 c-6.3-17.8,44.1-13,50.6-13c18.5,0.1,37.1,0.2,55.6,0.3C118.7,240.4,119,235.3,113.9,235.3L113.9,235.3z" fill="#a9852a"/></g><g id="change1_4"><path d="M152.6,228.2c11.9-12,19-23.7,31.4-35.6c6.6-6.3,13.3-12.2,20.1-18.3c4.5-4.1,9.3-7.2,15-9.4 c9.5-3.7,20.8,1.8,19.1,14.5c-2.1,15.5-27.5,25.8-39.6,31.7c-17,8.3-35.4,13.4-53.9,16.6c-4.9,0.8-2.8,8.2,2,7.4 c25.3-4.2,59.4-12.8,81.6-25.6c12.6-7.2,25.9-23.3,16.3-41.4c-8.3-15.6-27.4-13.6-39.7-4c-22.7,17.6-37.8,38.7-57.7,59.3 c-3.4,3.6-3.1,8.7,0.3,4.7H152.6z" fill="#a9852a"/></g><g id="change1_5"><path d="M126.8,258.9c10.2,12.3,20.2,24.7,30,37.2c5.7,7.3,11.2,14.7,16.8,22.1c8,10.8,10.9,30.3-8.7,26.7 c-17.8-3.3-18.6-30.6-20.6-44.1c-2.4-16.4-6.5-32.5-11.5-48.3c-1.5-4.7-8.9-2.7-7.4,2c7.7,24.3,9.5,49.3,16,73.7 c4.1,15.2,16.9,26.9,33,24.1c18.2-3.1,15.4-23.1,8.2-34.6c-14.3-22.7-33.3-43.7-50.4-64.2C129.1,249.7,123.7,255.2,126.8,258.9 L126.8,258.9z" fill="#a9852a"/></g><g id="change1_6"><path d="M110.2,265.8c-3,15.4-7.2,33.4-11.6,48.7c-3.1,10.7-17,48.4-35.8,22.6c-12.2-16.8,18.1-37.6,28.2-47.8 c10.9-10.9,20.7-22.9,29.9-35.3c2.9-4-3.7-7.8-6.6-3.9c-7.9,10.7-16.3,20.8-25.4,30.5c-8,8.6-18.1,16-24.8,25.8 c-9.6,14-12.1,32,3.3,42.6c13.9,9.6,30.8,4.9,35.2-6.7c9.4-24.7,11.9-64.2,18.4-89.8c1.2-4.8-7.9-1.7-10.9,3.1V265.8z" fill="#a9852a"/></g><g id="change1_7"><path d="M142.7,252.5c13.8,15.4,32.7,26.4,51.1,35.4c13.3,6.4,32.1,15.4,47.2,10.8c16.8-5.2,6.6-28.4-1.4-36.4 c-21-21-57.9-14.4-84.4-18.9c-4.8-0.8-14.6,6.6-9.7,7.4c22.2,3.8,53.3-3.9,74.8,3.5c12.1,4.2,24.7,20.4,21.3,34.5 c-1.2,5.2-11.3,3.4-14.8,2.9c-27.8-4.5-60-23.6-78.8-44.4C144.8,243.4,139.4,248.9,142.7,252.5L142.7,252.5z" fill="#a9852a"/></g><g id="change1_8"><path d="M130.5,229.5c-3.4-0.3-6.5,1.9-7.8,5c-1.5,3.5-0.6,6.8,1.8,9.6c4.8,5.6,14.5,3.5,17.8-2.5 c1-1.8,0.5-4.2-1.4-5.2c-3.5-1.9-6.9-3.7-10.4-5.6c-4.4-2.3-8.2,4.3-3.9,6.6c3.5,1.9,6.9,3.7,10.4,5.6c-0.5-1.7-0.9-3.5-1.4-5.2 c-1,1.8-3.1,2.4-4.9,1.5c-1.2-0.6-1.7-2.2-0.2-2.1C135.4,237.6,135.4,229.9,130.5,229.5L130.5,229.5z" fill="#a9852a"/></g><g id="change1_9"><path d="M334,187.1c-3.4-9.2-9.1-17.3-15.4-24.7c-4.3-5.1-10.6-12.6-17.9-13c-8.3-0.5-6.6,13.1-4.7,17.5 c5.1,12.3,19.8,15.7,30.1,22.2c2.3,1.4,4.4-2.2,2.1-3.6c-7.9-5-17.3-7.7-24.2-14.2c-4.1-3.9-6.4-9.6-5.1-15.1c1-4.2,4.4-4.7,6.7-3.2 c10.6,6.9,20,23.5,24.3,35.3C330.9,190.7,335,189.7,334,187.1L334,187.1z" fill="#a9852a"/></g><g id="change1_10"><path d="M340.8,186.2c-1.5-9.3-2.8-18.6-4-27.9c-0.5-4.3-1-8.6-1.5-13c-0.3-2.4-0.3-4.8,0-7.2 c1-7.1,9.4-5.9,12.9-2.9c7.4,6.5,0.2,19.6-2.6,26.5c-3.4,8.4-7.4,17.1-9.4,25.9c-0.6,2.6,3.4,3.7,4,1.1c3.1-13.6,9.3-25.8,13-39.1 c2.4-8.8-0.9-19-10.5-20.9c-9.1-1.8-13.4,4.8-13.1,11.8c0.6,14.6,4.9,32.3,7.2,46.7C337.2,190,341.2,188.8,340.8,186.2L340.8,186.2z" fill="#a9852a"/></g><g id="change1_11"><path d="M327.5,194.4c-15.3-0.1-31.3-1.5-46.9-1.6c-8.2,0-16.6,2.8-15.2,12.5c1.6,10.9,19.3,15,27.4,15.7 c13.9,1.1,21.6-12.8,31-21.5c2-1.8-1-4.8-3-3c-6,5.6-14.2,16.5-22.8,17.5c-8.1,1-25.4-0.9-28.6-9.9c-3.4-9.7,24.1-7.1,27.6-7.1 c10.1,0,20.3,0.1,30.4,0.1C330.2,197.2,330.3,194.4,327.5,194.4L327.5,194.4z" fill="#a9852a"/></g><g id="change1_12"><path d="M348.7,191.2c6.5-9,10.4-13.3,17.2-19.8c3.6-3.5,7.3-6.8,11-10.2c2.5-2.2,5.1-4,8.2-5.2 c5.2-2,11.4,0.9,10.4,7.9c-1.1,8.5-15,14.1-21.6,17.3c-9.3,4.5-19.3,7.3-29.5,9c-2.7,0.4-1.5,4.5,1.1,4c13.8-2.3,32.4-7,44.6-14 c6.9-4,14.2-12.7,8.9-22.6c-4.5-8.5-14.9-7.4-21.7-2.2c-12.4,9.6-20.6,21.5-31.5,32.8c-1.9,1.9-1.7,3.9,0.2,2.9H348.7z" fill="#a9852a"/></g><g id="change1_13"><path d="M334.6,207.3c5.6,6.7,11,13.5,16.4,20.3c3.1,4,6.1,8,9.2,12.1c4.4,5.9,6,16.5-4.7,14.6 c-9.7-1.8-10.2-16.7-11.3-24.1c-1.3-9-3.6-17.8-6.3-26.4c-0.8-2.6-4.9-1.5-4,1.1c4.2,13.3,5.2,27,8.8,40.3 c2.2,8.3,9.2,14.7,18.1,13.2c9.9-1.7,8.4-12.6,4.5-18.9c-7.8-12.4-18.2-23.9-27.5-35.1C335.9,202.3,332.9,205.2,334.6,207.3 L334.6,207.3z" fill="#a9852a"/></g><g id="change1_14"><path d="M325.2,211.1c-3,8.4-3.8,18.2-6.2,26.6c-1.7,5.9-9.2,26.5-19.5,12.3c-6.7-9.2,9.9-20.6,15.4-26.1 c5.9-6,11.3-12.5,16.3-19.3c1.6-2.2-2-4.3-3.6-2.1c-4.3,5.8-8.9,11.4-13.9,16.7c-4.4,4.7-9.9,8.8-13.6,14.1 c-5.2,7.6-6.6,17.5,1.8,23.3c7.6,5.2,16.8,2.7,19.2-3.6c5.2-13.5,6.4-35.1,9.9-49c0.7-2.6-6.1-0.9-6.1,1.7V211.1z" fill="#a9852a"/></g><g id="change1_15"><path d="M343.3,203.8c7.6,8.4,17.9,14.4,27.9,19.3c7.3,3.5,17.5,8.4,25.8,5.9c9.2-2.8,3.6-15.5-0.8-19.9 c-11.5-11.5-31.6-7.9-46.1-10.3c-2.6-0.4-8,3.6-5.3,4c12.1,2.1,29.1-2.2,40.9,1.9c6.6,2.3,13.5,11.2,11.7,18.8 c-0.7,2.8-6.2,1.9-8.1,1.6c-15.2-2.5-32.8-12.9-43-24.2C344.4,198.8,341.5,201.8,343.3,203.8L343.3,203.8z" fill="#a9852a"/></g><g id="change1_16"><path d="M336.6,191.2c-1.9-0.2-3.6,1-4.3,2.7c-0.8,1.9-0.3,3.7,1,5.2c2.6,3.1,7.9,1.9,9.7-1.3c0.5-1,0.3-2.3-0.8-2.9 c-1.9-1-3.8-2-5.7-3c-2.4-1.3-4.5,2.3-2.1,3.6c1.9,1,3.8,2,5.7,3c-0.3-1-0.5-1.9-0.8-2.9c-0.5,1-1.7,1.3-2.7,0.8 c-0.7-0.3-0.9-1.2-0.1-1.1C339.3,195.6,339.3,191.4,336.6,191.2L336.6,191.2z" fill="#a9852a"/></g><g id="change1_17"><path d="M246.4,70.9c9.7-1.3,18.9-5.2,27.5-9.7c5.9-3.1,14.6-7.7,16.5-14.7c2.2-8-11.4-9.2-16-8.4 c-13.2,2.4-19.6,16-28.1,24.6c-1.9,1.9,1.2,4.8,3.1,2.8c6.6-6.6,11.3-15.3,19.1-20.6c4.7-3.2,10.7-4.2,15.9-1.7 c3.9,1.9,3.6,5.3,1.6,7.3c-9.1,8.9-27.3,14.5-39.7,16.2C243.5,67.1,243.7,71.2,246.4,70.9L246.4,70.9z" fill="#a9852a"/></g><g id="change1_18"><path d="M245.9,77.7c9.4,0.5,18.7,1.2,28.1,2.1c4.3,0.4,8.7,0.9,13,1.3c2.4,0.3,4.7,0.7,7.1,1.5 c6.7,2.5,3.8,10.5,0,13.3c-7.9,5.9-19.2-4-25.3-8.3c-7.5-5.2-15.1-10.9-23.3-14.8c-2.4-1.2-4.4,2.5-2,3.7 c12.6,6,23.2,14.6,35.4,21.1c8,4.3,18.8,3.2,22.7-5.8c3.7-8.5-1.8-14.2-8.7-15.4c-14.4-2.5-32.6-2.2-47.2-3 C243,73.4,243.2,77.5,245.9,77.7L245.9,77.7z" fill="#a9852a"/></g><g id="change1_19"><path d="M240.7,63c3.4-15,8.2-30.2,11.7-45.4c1.8-8,0.8-16.8-8.9-17.5c-11-0.8-18.8,15.6-21.2,23.4 c-4.1,13.3,7.8,23.8,14.3,34.9c1.4,2.3,4.9,0.1,3.5-2.3c-4.1-7.1-13-17.5-12.2-26c0.8-8.1,6.3-24.6,15.8-25.8 c10.2-1.3,1.8,25,1,28.5c-2.2,9.9-4.5,19.8-6.7,29.6C237.4,65,240.1,65.7,240.7,63L240.7,63z" fill="#a9852a"/></g><g id="change1_20"><path d="M238.6,84.1c6.1,8,11.1,13.1,16,21.1c2.6,4.3,5.3,8.6,7.7,12.9c1.6,2.9,2.9,5.8,3.4,9.1 c0.9,5.5-3.3,10.9-9.9,8.5c-8-2.9-10.5-17.7-12.2-24.9c-2.4-10-3-20.4-2.5-30.7c0.1-2.7-4-2.5-4.2,0.2c-0.7,14-0.1,33.2,4.1,46.6 c2.4,7.6,9.4,16.6,20.1,13.6c9.3-2.6,10.5-13,6.8-20.7c-6.7-14.2-16.9-24.9-25.5-37.9c-1.5-2.3-5.3-2.9-3.2-0.5L238.6,84.1z" fill="#a9852a"/></g><g id="change1_21"><path d="M226.6,67.1c-7.7,4-15.5,7.9-23.4,11.6c-4.6,2.2-9.1,4.3-13.7,6.3c-6.7,3-17.4,2.3-13.2-7.8 c3.8-9.1,18.5-6.3,26-5.8c9,0.6,18.1,0.4,27.1-0.5c2.7-0.2,2.5-4.4-0.2-4.2c-13.9,1.3-27.4-0.8-41.2-0.1 c-8.6,0.4-16.4,5.8-16.8,14.8c-0.5,10.1,10.5,10.9,17.5,8.4c13.8-4.9,27.2-12.6,40.2-19.3C231.2,69.4,229,65.9,226.6,67.1 L226.6,67.1z" fill="#a9852a"/></g><g id="change1_22"><path d="M224.8,57.7c-7.7-4.3-16.9-7.9-24.6-12.1c-5.4-2.9-23.8-14.8-7.8-21.8c10.4-4.5,18,14,22.2,20.6 c4.6,7.1,9.8,13.7,15.3,20.1c1.8,2,4.6-1,2.8-3.1c-4.8-5.5-9.2-11.2-13.3-17.1c-3.6-5.3-6.4-11.6-10.8-16.3 c-6.3-6.8-15.6-10.2-23.1-3.3c-6.7,6.3-6.2,15.8-0.6,19.6c12.1,7.9,32.8,14.1,45.7,20.5c2.4,1.2,2.2-5.4-0.4-6L224.8,57.7z" fill="#a9852a"/></g><g id="change1_23"><path d="M228.2,76.3c-9.8,5.6-17.9,14.3-24.9,23.1c-5,6.3-12,15.3-11.3,23.9c0.8,9.6,14.4,6.9,19.6,3.5 c13.7-8.7,14.5-29.2,20-42.8c1-2.5-1.8-8.5-2.8-6c-4.6,11.4-4.2,28.9-10.7,39.5c-3.7,6-13.8,10.8-20.9,7.3c-2.6-1.3-0.5-6.4,0.2-8.2 c5.7-14.3,19.7-29.3,32.9-36.8C232.8,78.5,230.5,75,228.2,76.3L228.2,76.3z" fill="#a9852a"/></g><g id="change1_24"><path d="M241.9,72.5c0.6-1.8-0.2-3.7-1.7-4.8c-1.7-1.2-3.5-1.1-5.3-0.2c-3.6,1.9-3.6,7.3-0.8,9.8 c0.8,0.7,2.2,0.8,3-0.1c1.4-1.6,2.8-3.3,4.2-4.9c1.8-2-1.3-4.9-3.1-2.8c-1.4,1.6-2.8,3.3-4.2,4.9c1,0,2-0.1,3-0.1 c-0.8-0.7-0.9-1.9-0.2-2.8c0.5-0.6,1.4-0.6,1.1,0.1C237,74.2,241.1,75.1,241.9,72.5L241.9,72.5z" fill="#a9852a"/></g></svg>