<?xml version="1.0" encoding="UTF-8"?><svg xmlns="http://www.w3.org/2000/svg" xmlns:xlink="http://www.w3.org/1999/xlink" fill="#000000" height="500" preserveAspectRatio="xMidYMid meet" version="1" viewBox="0.0 0.0 355.8 500.0" width="355.8" zoomAndPan="magnify"><defs><clipPath id="a"><path d="M 0 0 L 355.808594 0 L 355.808594 500.011719 L 0 500.011719 Z M 0 0"/></clipPath></defs><g><g clip-path="url(#a)" id="change1_1"><path d="M 317.496094 316.457031 C 317.898438 316.859375 318.597656 316.359375 318.296875 315.859375 C 316.996094 313.757812 315.898438 311.359375 315.296875 308.957031 C 314.695312 306.457031 314.898438 303.957031 314.597656 301.457031 C 314.496094 300.757812 313.597656 300.558594 313.398438 301.257812 L 313.398438 301.359375 C 313.195312 301.359375 312.996094 301.359375 312.898438 301.457031 C 305.597656 305.65625 304.496094 321.558594 313.398438 324.558594 C 314.296875 324.859375 315.097656 323.757812 314.597656 322.957031 C 313.898438 321.65625 312.996094 321.15625 311.898438 320.058594 C 309.996094 318.15625 309.496094 315.859375 309.496094 313.257812 C 309.496094 309.359375 310.296875 306.058594 312.996094 303.359375 C 312.398438 307.957031 314.796875 313.15625 317.496094 316.457031 Z M 257.496094 122.058594 C 256.796875 121.757812 255.996094 122.558594 256.695312 123.15625 C 257.695312 124.058594 258.898438 124.757812 259.996094 125.65625 C 260.996094 126.558594 261.996094 127.558594 262.898438 128.558594 C 263.398438 129.058594 264.097656 128.355469 263.695312 127.757812 C 261.898438 125.757812 259.898438 123.257812 257.496094 122.058594 Z M 266.597656 148.257812 C 266.296875 147.558594 265.398438 147.855469 265.496094 148.558594 C 265.996094 152.257812 269.195312 154.457031 271.496094 157.058594 C 275.296875 161.355469 277.398438 166.257812 278.898438 171.855469 C 279.195312 173.058594 280.898438 172.558594 280.695312 171.355469 C 279.996094 167.058594 278.195312 162.855469 275.695312 159.355469 C 272.898438 155.457031 268.296875 152.855469 266.597656 148.257812 Z M 132.597656 430.757812 C 132.996094 428.558594 133.898438 425.257812 132.898438 423.15625 C 132.695312 422.859375 132.195312 422.957031 132.097656 423.257812 C 131.796875 424.257812 131.996094 425.359375 131.996094 426.457031 C 131.996094 427.859375 131.898438 429.15625 131.597656 430.457031 C 131.496094 431.15625 132.398438 431.457031 132.597656 430.757812 Z M 133.898438 328.558594 C 131.195312 334.65625 129.597656 340.957031 129.398438 347.65625 C 129.195312 355.457031 132.996094 363.65625 129.898438 371.15625 C 129.597656 371.757812 130.597656 372.257812 130.996094 371.757812 C 134.996094 367.859375 133.296875 362.457031 132.398438 357.558594 C 130.597656 347.859375 131.695312 338.257812 135.097656 329.058594 C 135.398438 328.359375 134.195312 327.757812 133.898438 328.558594 Z M 186.097656 353.457031 C 185.996094 353.058594 185.398438 352.957031 185.195312 353.359375 C 184.097656 355.558594 184.695312 358.957031 184.898438 361.359375 C 184.996094 362.058594 185.996094 362.058594 185.996094 361.359375 C 185.996094 359.957031 185.996094 358.558594 186.097656 357.15625 C 186.097656 355.957031 186.398438 354.65625 186.097656 353.457031 Z M 340.796875 321.15625 C 337.695312 324.65625 335.796875 326.457031 331.097656 326.359375 C 331.496094 325.058594 330.597656 323.359375 330.097656 322.257812 C 329.296875 320.457031 328.097656 318.957031 326.597656 317.558594 C 326.195312 317.257812 325.597656 317.65625 325.898438 318.058594 C 326.996094 319.457031 327.898438 321.058594 328.597656 322.757812 C 328.996094 323.757812 328.996094 325.15625 329.496094 326.15625 C 328.898438 326.15625 328.398438 326.15625 327.796875 326.359375 C 327.097656 326.65625 326.195312 327.65625 325.496094 327.859375 C 325.195312 327.957031 324.695312 327.957031 324.296875 327.957031 C 323.898438 326.859375 323.496094 325.957031 323.695312 324.757812 C 323.796875 323.957031 322.695312 323.558594 322.496094 324.457031 C 322.296875 325.457031 322.195312 326.65625 322.496094 327.757812 C 319.796875 327.257812 316.796875 326.558594 316.898438 330.257812 C 316.898438 331.15625 318.195312 331.15625 318.296875 330.257812 C 318.496094 328.558594 323.898438 331.15625 324.996094 330.957031 C 326.398438 330.757812 326.195312 330.257812 327.398438 329.757812 C 329.695312 328.65625 330.597656 329.15625 332.898438 329.15625 C 337.097656 329.15625 341.996094 326.257812 342.296875 321.757812 C 342.398438 321.058594 341.296875 320.558594 340.796875 321.15625 Z M 315.097656 331.15625 C 313.996094 331.15625 312.898438 331.558594 311.695312 331.359375 C 311.097656 331.257812 310.496094 331.058594 309.996094 330.859375 C 309.097656 330.359375 309.898438 329.957031 310.597656 329.65625 C 311.898438 329.058594 313.496094 328.457031 313.195312 326.757812 C 313.097656 326.058594 311.996094 326.058594 311.796875 326.757812 C 311.496094 328.058594 309.597656 328.058594 308.597656 328.859375 C 307.796875 329.558594 307.296875 330.757812 307.996094 331.757812 C 309.398438 333.757812 313.996094 334.15625 315.796875 332.558594 C 316.296875 332.058594 315.796875 331.15625 315.097656 331.15625 Z M 330.996094 301.15625 C 330.996094 301.058594 331.097656 300.957031 331.195312 300.757812 C 333.097656 298.457031 336.496094 295.957031 339.898438 294.957031 C 334.398438 290.257812 329.496094 286.859375 322.195312 285.558594 C 322.097656 285.558594 321.898438 285.457031 321.796875 285.457031 C 314.796875 287.359375 307.898438 289.757812 301.097656 292.558594 C 303.796875 293.15625 306.496094 294.058594 308.996094 294.957031 C 311.695312 295.859375 314.496094 296.65625 316.496094 298.757812 C 321.496094 296.65625 327.097656 297.457031 330.996094 301.15625 Z M 222.496094 302.359375 C 223.796875 300.957031 223.195312 299.558594 222.695312 298.058594 C 222.296875 296.859375 223.695312 295.757812 224.796875 296.257812 C 225.597656 295.65625 226.597656 295.257812 227.695312 294.859375 C 228.195312 294.65625 228.996094 294.457031 229.296875 294.058594 C 229.195312 294.058594 229.195312 293.957031 229.097656 293.957031 C 228.898438 294.15625 228.597656 294.15625 228.398438 293.957031 C 227.296875 293.257812 226.097656 293.15625 224.898438 293.15625 C 224.097656 293.15625 223.296875 293.257812 222.695312 292.859375 C 222.597656 292.957031 222.496094 292.957031 222.398438 293.058594 C 219.898438 294.65625 217.796875 297.359375 215.097656 298.359375 C 214.597656 298.558594 213.996094 298.257812 213.695312 297.757812 C 213.296875 298.15625 212.996094 298.558594 212.597656 298.859375 C 212.296875 299.15625 211.898438 299.257812 211.597656 299.359375 C 210.898438 300.757812 208.597656 300.359375 208.398438 298.65625 C 206.996094 297.15625 205.996094 295.257812 204.898438 293.558594 C 204.398438 292.757812 203.898438 291.859375 203.296875 291.058594 C 203.496094 291.65625 203.195312 292.457031 202.296875 292.558594 C 200.898438 292.65625 199.398438 294.257812 198.496094 295.257812 C 198.097656 295.757812 197.195312 296.757812 197.398438 297.457031 C 197.597656 298.15625 198.195312 298.058594 198.695312 298.257812 C 199.097656 298.457031 199.398438 298.65625 199.597656 299.058594 C 200.296875 299.257812 200.796875 300.15625 200.398438 300.957031 C 199.796875 302.15625 199.097656 303.257812 198.996094 304.65625 C 198.898438 305.359375 198.996094 307.257812 200.097656 307.257812 C 200.796875 307.257812 201.996094 305.957031 202.796875 305.757812 C 203.898438 305.457031 204.597656 305.757812 205.496094 306.457031 C 205.496094 306.457031 205.496094 306.457031 205.597656 306.558594 C 205.695312 306.558594 205.796875 306.558594 205.996094 306.558594 C 207.195312 306.859375 208.296875 307.359375 209.496094 307.859375 C 211.398438 308.65625 212.398438 308.15625 213.695312 306.859375 C 214.597656 305.859375 215.496094 304.957031 216.597656 304.558594 C 216.695312 303.957031 217.195312 303.558594 217.898438 303.558594 C 219.398438 303.558594 221.195312 303.757812 222.496094 302.359375 Z M 207.296875 262.257812 C 207.296875 262.15625 207.296875 262.15625 207.296875 262.257812 Z M 208.898438 262.859375 Z M 210.296875 263.757812 C 210.796875 264.859375 211.195312 265.957031 211.496094 267.058594 C 211.496094 265.457031 211.398438 263.859375 211.097656 262.257812 C 211.097656 262.757812 210.796875 263.359375 210.296875 263.757812 Z M 213.796875 412.957031 C 208.097656 408.957031 202.597656 404.15625 200.496094 397.457031 C 200.296875 406.359375 199.195312 415.957031 204.695312 423.457031 C 205.097656 423.957031 204.195312 424.65625 203.796875 424.15625 C 198.195312 417.65625 198.097656 408.558594 198.195312 400.058594 C 197.796875 400.65625 197.398438 401.359375 196.996094 402.058594 C 195.398438 405.257812 195.097656 408.957031 193.597656 412.15625 C 193.597656 412.257812 193.695312 412.359375 193.695312 412.457031 C 193.996094 420.359375 199.195312 425.859375 201.996094 432.859375 C 203.996094 437.957031 205.496094 443.359375 206.097656 448.757812 C 211.195312 442.757812 213.597656 435.757812 214.097656 427.757812 C 214.296875 423.457031 212.898438 417.457031 213.796875 412.957031 Z M 138.796875 374.957031 C 139.597656 375.859375 140.097656 376.957031 139.996094 378.15625 C 139.898438 378.65625 139.695312 379.15625 139.296875 379.359375 C 139.597656 379.558594 139.796875 379.859375 139.597656 380.359375 C 139.496094 380.558594 139.496094 380.757812 139.398438 380.957031 C 140.195312 379.757812 141.195312 378.65625 142.097656 377.757812 C 143.195312 376.558594 144.296875 375.359375 145.398438 374.359375 C 143.195312 375.058594 140.796875 375.457031 138.796875 374.957031 Z M 119.695312 385.359375 C 119.796875 385.359375 119.898438 385.359375 119.898438 385.359375 C 118.996094 384.957031 118.097656 384.558594 117.296875 383.957031 C 116.796875 384.757812 116.097656 385.058594 115.195312 385.058594 C 114.695312 385.359375 114.195312 385.65625 113.695312 385.859375 C 115.796875 385.65625 117.695312 385.457031 119.695312 385.359375 Z M 116.496094 380.058594 C 116.996094 380.257812 117.496094 380.359375 117.898438 380.457031 C 115.597656 378.65625 113.597656 376.558594 112.097656 374.359375 C 113.398438 376.359375 114.898438 378.257812 116.496094 380.058594 Z M 109.996094 370.957031 C 110.195312 371.257812 110.398438 371.65625 110.597656 371.957031 C 110.496094 371.859375 110.496094 371.757812 110.398438 371.558594 C 110.296875 371.257812 110.195312 371.058594 110.296875 370.757812 C 110.195312 370.859375 110.097656 370.957031 109.996094 370.957031 Z M 346.898438 322.558594 C 345.597656 323.15625 344.496094 322.859375 343.398438 322.058594 C 342.398438 321.257812 341.796875 320.15625 340.296875 320.15625 C 339.097656 320.15625 338.097656 320.957031 336.898438 321.15625 C 336.097656 321.359375 335.296875 320.257812 335.996094 319.65625 C 336.097656 319.558594 336.195312 319.558594 336.296875 319.457031 C 336.898438 313.757812 335.195312 309.65625 331.796875 305.058594 C 327.996094 300.058594 323.496094 299.359375 317.996094 300.359375 C 320.898438 302.65625 323.296875 305.359375 325.097656 308.558594 C 325.398438 309.15625 324.597656 309.65625 324.195312 309.058594 C 322.097656 305.957031 319.496094 303.359375 316.496094 301.15625 C 316.296875 301.058594 316.195312 300.859375 316.195312 300.757812 C 315.398438 300.859375 314.898438 300.058594 315.195312 299.457031 C 310.195312 295.859375 303.296875 295.558594 297.597656 294.058594 C 291.695312 296.65625 285.796875 299.65625 280.097656 303.058594 C 282.496094 305.558594 284.597656 308.558594 286.398438 311.957031 C 286.695312 312.457031 285.898438 312.859375 285.597656 312.359375 C 283.695312 308.859375 281.496094 305.957031 278.996094 303.65625 C 278.996094 303.65625 278.996094 303.65625 278.898438 303.65625 C 277.695312 304.359375 276.695312 303.058594 277.097656 302.058594 C 274.695312 300.15625 271.996094 298.757812 269.296875 297.65625 C 268.496094 298.457031 266.898438 297.757812 266.695312 296.757812 C 256.296875 293.558594 244.097656 294.257812 232.898438 294.257812 C 232.796875 294.957031 232.496094 295.757812 232.097656 296.257812 C 231.996094 296.359375 231.796875 296.558594 231.695312 296.65625 C 235.296875 297.457031 238.597656 299.359375 241.296875 301.757812 C 241.796875 302.257812 241.097656 302.957031 240.496094 302.558594 C 237.097656 299.957031 233.496094 298.757812 229.496094 298.058594 C 229.296875 298.15625 229.097656 298.15625 228.996094 298.257812 C 228.296875 298.558594 227.496094 298.65625 226.796875 299.058594 C 226.898438 299.257812 226.898438 299.558594 226.898438 299.757812 C 235.796875 302.058594 243.695312 310.558594 247.597656 318.457031 C 247.898438 318.957031 247.097656 319.457031 246.796875 318.957031 C 244.296875 314.757812 241.097656 310.859375 237.296875 307.757812 C 233.996094 305.058594 230.398438 303.558594 226.695312 301.859375 C 226.496094 302.65625 226.195312 303.359375 225.796875 303.957031 C 230.296875 306.15625 232.996094 312.15625 234.796875 316.257812 C 234.996094 316.757812 234.296875 317.257812 233.996094 316.757812 C 232.597656 313.957031 231.195312 310.957031 229.097656 308.65625 C 227.796875 307.15625 226.296875 306.257812 224.597656 305.457031 C 224.097656 305.859375 223.597656 306.15625 222.996094 306.359375 C 227.296875 310.65625 229.898438 315.859375 230.796875 321.957031 C 232.195312 331.359375 230.398438 343.957031 241.296875 348.257812 C 241.796875 348.457031 241.597656 349.257812 241.097656 349.058594 C 235.398438 347.15625 232.496094 342.257812 231.097656 336.558594 C 228.398438 325.359375 229.996094 315.257812 220.996094 306.757812 C 220.097656 306.859375 219.296875 306.859375 218.398438 306.65625 C 217.898438 307.558594 217.195312 308.457031 216.398438 309.257812 C 220.195312 332.257812 219.496094 362.859375 248.597656 367.359375 C 249.398438 367.457031 249.796875 368.058594 249.898438 368.757812 C 250.097656 368.359375 250.496094 367.957031 251.097656 368.058594 C 251.296875 368.058594 251.398438 368.058594 251.597656 368.058594 C 251.496094 367.957031 251.398438 367.757812 251.296875 367.558594 C 250.097656 363.359375 252.195312 359.859375 255.296875 357.058594 C 257.398438 355.15625 259.996094 353.65625 261.898438 351.457031 C 265.597656 347.058594 264.597656 343.257812 265.195312 338.257812 C 265.597656 334.257812 267.398438 331.957031 270.695312 329.957031 C 270.398438 329.457031 270.097656 328.957031 269.796875 328.457031 C 269.195312 327.558594 268.496094 326.65625 267.695312 325.859375 C 267.195312 325.359375 267.996094 324.558594 268.496094 325.058594 C 269.398438 325.859375 270.195312 326.65625 270.898438 327.558594 C 271.296875 328.058594 271.695312 328.558594 271.898438 329.15625 C 272.296875 328.957031 272.597656 328.757812 272.996094 328.558594 C 271.898438 326.359375 270.796875 324.257812 269.097656 322.257812 C 267.097656 320.058594 264.898438 318.15625 262.597656 316.257812 C 262.097656 315.859375 262.796875 314.957031 263.296875 315.359375 C 267.496094 318.359375 272.898438 322.457031 274.597656 327.65625 C 279.898438 324.558594 283.695312 321.558594 284.898438 314.257812 C 284.996094 313.65625 285.898438 313.859375 285.898438 314.359375 C 285.695312 318.558594 284.296875 322.457031 281.398438 325.558594 C 279.597656 327.457031 277.296875 328.757812 275.097656 329.957031 C 274.996094 330.359375 274.597656 330.558594 274.195312 330.457031 C 271.796875 331.859375 269.695312 333.558594 268.695312 336.359375 C 266.796875 341.65625 268.398438 346.957031 264.996094 351.859375 C 261.195312 357.457031 253.398438 359.457031 253.296875 367.257812 C 253.296875 367.558594 253.195312 367.859375 252.996094 368.058594 C 259.296875 367.65625 264.496094 364.15625 269.597656 360.457031 C 274.296875 357.058594 279.597656 353.15625 283.195312 348.558594 C 287.195312 343.457031 284.898438 338.859375 285.695312 333.257812 C 285.996094 331.457031 286.496094 330.65625 286.996094 329.058594 C 288.195312 327.15625 289.097656 324.957031 289.398438 322.65625 C 288.996094 320.15625 288.195312 317.757812 287.097656 315.558594 C 286.695312 314.757812 287.796875 314.15625 288.296875 314.859375 C 291.695312 319.757812 292.695312 323.257812 290.296875 328.859375 C 286.996094 336.15625 291.097656 343.757812 285.796875 350.457031 C 281.398438 356.058594 274.898438 360.65625 269.097656 364.65625 C 263.398438 368.65625 257.597656 372.058594 250.496094 370.957031 C 249.898438 370.859375 249.597656 370.457031 249.496094 370.058594 C 249.195312 370.65625 248.695312 371.15625 247.898438 371.058594 C 235.898438 370.257812 225.695312 362.558594 220.996094 351.558594 C 220.996094 351.457031 220.898438 351.359375 220.898438 351.15625 C 220.597656 356.359375 219.496094 361.859375 217.398438 366.859375 C 245.097656 379.15625 250.597656 413.457031 239.796875 439.15625 C 239.597656 439.558594 239.296875 439.859375 238.898438 439.957031 C 238.898438 440.058594 238.996094 440.15625 238.996094 440.257812 C 239.398438 442.058594 236.597656 442.859375 236.195312 441.058594 C 234.597656 434.257812 232.898438 428.359375 227.695312 423.257812 C 223.996094 419.65625 219.398438 416.957031 215.097656 414.058594 C 217.898438 427.359375 216.195312 441.957031 206.496094 452.15625 C 205.296875 453.359375 203.496094 451.558594 204.597656 450.257812 C 203.496094 441.558594 200.796875 434.558594 196.097656 427.058594 C 193.796875 423.359375 191.496094 419.757812 191.195312 415.65625 C 189.695312 417.457031 187.796875 418.859375 185.996094 420.257812 C 184.796875 421.15625 183.195312 419.058594 184.398438 418.15625 C 187.195312 415.757812 189.597656 413.65625 191.097656 410.359375 C 185.796875 409.15625 180.898438 406.957031 176.398438 403.757812 C 175.796875 403.359375 176.296875 402.359375 176.996094 402.757812 C 181.695312 405.359375 186.597656 407.359375 191.796875 408.457031 C 192.398438 406.558594 192.796875 404.65625 193.597656 402.859375 C 194.496094 400.859375 195.796875 399.457031 196.796875 397.558594 C 197.195312 396.957031 197.398438 396.359375 197.695312 395.757812 C 196.296875 395.359375 194.898438 394.757812 193.496094 394.359375 C 191.195312 393.65625 188.898438 393.15625 186.597656 392.65625 C 185.898438 392.457031 186.097656 391.359375 186.796875 391.359375 C 190.398438 391.457031 194.695312 391.957031 198.097656 393.558594 C 198.195312 393.457031 198.195312 393.359375 198.296875 393.257812 C 198.796875 390.558594 198.398438 387.859375 197.996094 384.757812 C 197.796875 383.558594 199.496094 383.058594 199.796875 384.257812 C 200.496094 387.058594 201.195312 389.957031 200.898438 392.859375 C 200.898438 393.359375 200.796875 393.757812 200.695312 394.257812 C 204.996094 406.359375 216.796875 410.957031 226.195312 418.359375 C 232.398438 423.257812 235.898438 428.957031 237.898438 436.15625 C 247.195312 410.859375 240.597656 382.558594 216.398438 368.65625 C 213.898438 373.757812 210.195312 378.15625 205.296875 380.757812 C 207.195312 388.359375 211.597656 392.65625 218.296875 396.757812 C 223.195312 399.757812 226.796875 403.558594 229.796875 408.457031 C 230.195312 409.15625 229.195312 409.757812 228.796875 409.058594 C 226.195312 405.058594 222.695312 401.859375 218.597656 399.457031 C 216.097656 398.058594 213.496094 397.058594 211.296875 395.257812 C 206.996094 391.859375 204.097656 387.15625 202.996094 381.859375 C 201.796875 382.257812 200.597656 382.65625 199.296875 382.859375 C 198.695312 382.957031 198.496094 382.15625 198.996094 381.957031 C 200.398438 381.359375 201.695312 380.757812 202.898438 380.058594 C 203.097656 379.65625 203.496094 379.359375 203.898438 379.257812 C 203.898438 379.15625 203.898438 379.15625 203.898438 379.058594 C 205.195312 371.957031 205.695312 364.859375 204.796875 357.757812 C 204.695312 357.15625 205.695312 357.058594 205.796875 357.65625 C 206.796875 364.558594 206.996094 371.257812 205.898438 378.15625 C 215.496094 370.457031 216.496094 357.757812 218.097656 345.15625 C 218.097656 344.757812 218.296875 344.457031 218.496094 344.257812 C 215.398438 333.859375 214.296875 321.859375 214.097656 311.359375 C 213.695312 311.558594 213.398438 311.757812 212.996094 311.957031 C 211.195312 312.65625 209.296875 312.15625 207.496094 311.359375 C 197.796875 316.15625 189.597656 331.359375 188.496094 341.558594 C 188.398438 342.058594 187.597656 342.058594 187.695312 341.558594 C 188.296875 334.15625 191.597656 327.957031 195.296875 321.757812 C 197.996094 317.15625 200.996094 312.859375 205.597656 310.359375 C 205.597656 310.359375 205.597656 310.359375 205.496094 310.359375 C 198.296875 312.859375 192.796875 317.65625 187.296875 322.859375 C 181.898438 327.957031 172.898438 335.15625 172.195312 342.859375 C 172.195312 343.359375 171.398438 343.359375 171.398438 342.859375 C 171.898438 335.15625 179.496094 328.558594 184.496094 323.257812 C 188.496094 318.957031 193.097656 314.257812 198.296875 311.15625 C 197.296875 310.757812 196.398438 309.859375 195.898438 308.859375 C 195.796875 308.558594 195.695312 308.257812 195.597656 307.957031 C 195.398438 308.257812 195.097656 308.558594 194.695312 308.558594 C 183.796875 310.257812 173.996094 312.257812 163.496094 315.757812 C 155.695312 318.359375 148.597656 319.058594 140.898438 315.757812 C 137.296875 314.15625 133.796875 312.058594 130.796875 309.558594 C 110.097656 324.65625 121.296875 354.558594 127.195312 374.65625 C 127.398438 374.65625 127.496094 374.558594 127.695312 374.558594 C 129.097656 372.65625 131.597656 372.15625 133.898438 372.65625 C 134.496094 372.757812 135.195312 373.058594 135.898438 373.359375 C 137.796875 368.457031 137.296875 361.859375 137.496094 356.859375 C 137.496094 356.15625 138.695312 356.15625 138.695312 356.859375 C 138.597656 361.359375 138.996094 365.859375 138.695312 370.257812 C 138.597656 371.757812 138.398438 373.257812 137.695312 374.457031 C 137.898438 374.65625 138.097656 374.757812 138.296875 374.957031 C 138.195312 374.558594 138.296875 374.15625 138.597656 373.957031 C 140.898438 372.257812 144.398438 372.15625 147.097656 371.359375 C 150.496094 370.359375 153.195312 368.859375 155.996094 366.757812 C 155.097656 363.757812 154.597656 360.558594 154.296875 357.058594 C 154.296875 356.757812 154.796875 356.65625 154.898438 356.957031 C 156.195312 362.65625 157.695312 367.65625 160.695312 371.757812 C 159.695312 368.15625 161.195312 363.058594 162.195312 360.058594 C 162.398438 359.359375 163.398438 359.65625 163.195312 360.359375 C 162.398438 363.859375 160.496094 370.15625 162.996094 373.359375 C 163.296875 373.65625 163.195312 374.058594 162.898438 374.359375 C 164.695312 376.15625 166.898438 377.65625 169.695312 378.859375 C 178.398438 382.757812 187.597656 383.359375 196.898438 382.257812 C 197.496094 382.15625 197.597656 383.15625 196.996094 383.257812 C 186.695312 385.65625 175.398438 384.257812 165.996094 379.15625 C 161.195312 376.558594 158.296875 372.957031 156.597656 368.65625 C 155.398438 370.058594 153.996094 371.15625 152.398438 372.058594 C 152.398438 372.359375 152.296875 372.65625 151.898438 372.859375 C 147.097656 375.757812 143.296875 380.957031 140.996094 386.058594 C 142.195312 385.457031 143.398438 384.859375 144.597656 383.859375 C 145.597656 383.058594 146.398438 382.257812 147.398438 381.457031 C 149.597656 379.757812 151.898438 378.859375 154.695312 379.359375 C 155.195312 379.457031 154.996094 380.257812 154.496094 380.15625 C 149.097656 379.359375 146.695312 385.558594 142.496094 387.359375 C 146.898438 388.457031 157.097656 383.359375 160.597656 383.058594 C 165.398438 382.558594 169.898438 383.15625 174.496094 384.558594 C 174.996094 384.757812 174.796875 385.558594 174.296875 385.359375 C 164.296875 382.859375 157.097656 385.15625 147.898438 388.859375 C 145.296875 389.859375 143.195312 390.257812 141.195312 388.859375 C 141.195312 388.957031 141.296875 389.058594 141.296875 389.15625 C 141.398438 389.457031 141.296875 389.757812 141.195312 390.058594 C 142.296875 391.058594 142.996094 392.359375 142.996094 393.859375 C 145.597656 396.257812 151.796875 394.257812 154.996094 395.15625 C 157.796875 395.957031 160.195312 397.757812 161.996094 399.957031 C 162.398438 400.457031 161.695312 401.15625 161.296875 400.65625 C 158.996094 398.058594 155.996094 396.359375 152.398438 396.257812 C 149.898438 396.15625 147.398438 397.15625 144.996094 396.757812 C 144.097656 396.65625 143.195312 396.257812 142.496094 395.859375 C 142.195312 396.65625 141.695312 397.359375 141.097656 397.757812 C 146.597656 401.359375 150.695312 405.757812 154.996094 410.859375 C 157.695312 414.058594 160.496094 417.359375 164.195312 419.359375 C 168.898438 421.957031 172.898438 421.257812 177.796875 420.058594 C 178.796875 419.859375 179.296875 420.957031 178.695312 421.65625 C 174.097656 427.257812 165.195312 424.359375 160.195312 420.757812 C 154.597656 416.65625 150.597656 411.058594 145.898438 405.957031 C 153.796875 418.359375 164.097656 433.859375 153.195312 446.757812 C 152.296875 447.859375 151.296875 448.65625 150.195312 449.65625 C 146.597656 452.757812 145.695312 453.257812 143.296875 457.957031 C 141.796875 460.757812 140.398438 463.257812 137.996094 465.359375 C 137.496094 465.757812 136.996094 466.15625 136.496094 466.558594 C 136.496094 466.65625 136.496094 466.757812 136.496094 466.757812 C 136.398438 467.457031 135.796875 467.558594 135.296875 467.359375 C 130.796875 470.058594 125.496094 470.957031 120.398438 469.558594 C 119.496094 469.257812 119.898438 468.058594 120.796875 468.15625 C 125.996094 468.859375 130.898438 467.757812 134.898438 465.15625 C 135.796875 459.058594 135.898438 453.058594 134.695312 446.957031 C 134.597656 446.359375 135.496094 446.058594 135.695312 446.65625 C 136.996094 452.257812 137.398438 457.859375 136.898438 463.558594 C 138.796875 461.757812 140.398438 459.558594 141.597656 456.957031 C 143.796875 451.859375 146.496094 450.359375 150.296875 446.457031 C 163.597656 433.058594 147.796875 414.457031 140.496094 402.15625 C 140.195312 401.65625 140.296875 401.15625 140.597656 400.757812 C 140.097656 400.359375 139.496094 399.957031 138.898438 399.558594 C 137.996094 400.058594 136.996094 400.15625 135.898438 400.15625 C 135.398438 400.15625 134.496094 399.957031 134.097656 400.15625 C 133.597656 400.457031 133.597656 401.558594 133.296875 402.058594 C 133.097656 402.359375 132.898438 402.65625 132.695312 402.957031 C 134.695312 407.957031 134.996094 413.457031 134.597656 418.757812 C 134.597656 419.359375 133.597656 419.359375 133.597656 418.757812 C 133.796875 413.65625 132.695312 408.859375 131.496094 403.957031 C 130.398438 404.558594 129.195312 404.65625 127.996094 404.457031 C 127.796875 408.457031 128.496094 412.359375 127.996094 416.359375 C 127.398438 421.058594 126.398438 425.757812 125.597656 430.457031 C 125.496094 430.957031 124.695312 430.757812 124.796875 430.257812 C 125.496094 424.957031 126.597656 419.257812 126.796875 413.859375 C 126.898438 410.457031 126.195312 407.15625 126.496094 403.859375 C 126.195312 403.65625 125.996094 403.558594 125.796875 403.359375 C 125.398438 403.859375 124.898438 404.257812 124.195312 404.359375 C 124.796875 409.058594 123.195312 413.859375 121.195312 418.359375 C 116.296875 429.359375 110.695312 440.457031 115.195312 452.65625 C 115.398438 453.15625 114.597656 453.359375 114.496094 452.859375 C 111.398438 444.957031 112.296875 436.757812 114.996094 428.757812 C 117.898438 420.257812 123.097656 412.757812 121.996094 404.058594 C 121.296875 403.757812 120.695312 403.257812 120.195312 402.757812 C 118.398438 401.058594 117.296875 396.859375 120.496094 395.957031 C 121.597656 395.65625 122.496094 396.65625 122.296875 397.757812 C 122.195312 398.058594 122.097656 398.257812 122.097656 398.457031 C 122.195312 398.558594 122.195312 398.558594 122.296875 398.65625 C 122.796875 399.558594 123.195312 400.359375 123.496094 401.257812 C 123.796875 401.457031 124.097656 401.558594 124.195312 401.457031 C 123.898438 400.859375 123.695312 400.15625 123.695312 399.457031 C 123.695312 398.257812 125.296875 397.558594 126.097656 398.457031 C 126.496094 398.957031 126.996094 399.65625 127.398438 400.257812 C 127.898438 399.859375 128.695312 400.15625 128.496094 400.957031 C 128.496094 401.058594 128.496094 401.058594 128.496094 401.15625 C 128.898438 401.257812 129.195312 401.257812 129.695312 400.957031 C 130.695312 400.359375 130.695312 398.957031 131.597656 398.15625 C 132.398438 397.457031 133.398438 397.15625 134.496094 397.15625 C 135.398438 397.15625 137.398438 397.757812 137.898438 396.859375 C 138.195312 396.359375 138.597656 396.257812 138.996094 396.15625 C 139.296875 395.757812 139.695312 395.359375 139.996094 394.757812 C 140.496094 393.558594 140.195312 392.257812 139.195312 391.457031 C 139.097656 391.359375 139.097656 391.257812 138.996094 391.15625 C 137.398438 390.359375 136.496094 388.058594 136.195312 386.457031 C 135.898438 384.359375 136.496094 382.359375 137.796875 380.65625 L 137.898438 380.558594 C 137.796875 380.558594 137.695312 380.457031 137.695312 380.457031 C 136.296875 379.558594 135.695312 377.957031 134.195312 376.957031 C 133.296875 376.359375 131.597656 375.558594 130.296875 375.65625 C 130.195312 377.15625 128.296875 377.65625 126.898438 377.65625 C 125.898438 377.65625 125.097656 377.457031 124.496094 378.558594 C 124.097656 379.257812 123.996094 380.058594 123.695312 380.757812 C 126.398438 381.757812 129.195312 382.15625 131.996094 383.058594 C 133.195312 383.457031 133.296875 384.65625 132.796875 385.457031 C 134.597656 385.859375 134.898438 388.257812 132.996094 388.957031 C 132.496094 389.15625 131.898438 389.257812 131.398438 389.457031 C 129.398438 391.359375 126.195312 392.058594 123.695312 393.15625 C 121.097656 394.257812 118.496094 395.558594 115.898438 396.757812 C 116.097656 397.058594 116.195312 397.457031 115.898438 397.757812 C 115.296875 398.457031 114.695312 399.257812 114.097656 400.058594 C 112.398438 410.957031 105.695312 418.058594 97.496094 425.65625 C 96.898438 426.257812 95.898438 425.257812 96.597656 424.757812 C 100.496094 421.058594 104.398438 417.15625 107.398438 412.757812 C 109.296875 409.859375 110.398438 406.859375 111.296875 403.65625 C 107.695312 407.957031 103.496094 412.058594 98.398438 413.757812 C 93.796875 415.257812 88.496094 414.65625 83.695312 414.558594 C 77.898438 414.457031 72.097656 414.457031 66.398438 414.257812 C 65.597656 414.257812 65.597656 413.058594 66.398438 413.058594 C 75.796875 412.957031 86.496094 414.359375 95.695312 412.257812 C 102.898438 410.65625 106.597656 405.15625 111.195312 400.257812 C 110.996094 400.257812 110.695312 400.257812 110.496094 400.15625 C 109.796875 399.757812 109.195312 399.457031 108.496094 399.15625 C 104.597656 405.257812 96.296875 407.058594 89.496094 406.957031 C 88.695312 406.957031 88.695312 405.757812 89.496094 405.757812 C 96.296875 405.65625 102.496094 403.457031 106.796875 398.359375 C 105.398438 397.65625 104.097656 397.058594 102.695312 396.558594 C 102.398438 396.65625 102.097656 396.65625 101.695312 396.558594 C 88.898438 393.65625 73.695312 392.757812 62.898438 401.558594 C 59.097656 404.65625 55.898438 408.558594 52.195312 411.859375 C 46.996094 416.558594 41.097656 420.757812 42.996094 427.558594 C 43.195312 427.257812 43.796875 427.058594 44.195312 427.457031 C 48.796875 431.058594 56.195312 431.058594 61.695312 431.558594 C 66.296875 431.957031 70.996094 432.257812 75.597656 432.257812 C 76.195312 432.257812 76.195312 433.257812 75.597656 433.257812 C 68.597656 433.359375 61.695312 433.359375 54.796875 432.558594 C 50.796875 432.058594 46.398438 431.957031 43.496094 429.058594 C 43.796875 429.859375 44.195312 430.558594 44.695312 431.359375 C 45.097656 432.058594 44.097656 432.859375 43.597656 432.257812 C 39.996094 428.15625 39.398438 422.757812 42.496094 418.15625 C 44.398438 415.257812 47.496094 413.359375 49.996094 411.15625 C 53.195312 408.359375 55.898438 405.058594 58.898438 402.058594 C 63.898438 396.957031 69.695312 393.957031 75.796875 392.457031 C 73.695312 392.058594 71.695312 391.457031 69.597656 390.359375 C 64.398438 387.757812 58.996094 384.257812 55.898438 379.15625 C 53.398438 375.058594 52.695312 370.457031 52.398438 365.757812 C 52.097656 365.558594 51.898438 365.457031 51.597656 365.257812 C 50.695312 364.65625 51.398438 363.359375 52.296875 363.65625 C 52.296875 362.757812 52.195312 361.957031 52.195312 361.058594 C 52.195312 360.058594 53.597656 360.15625 53.695312 361.058594 C 53.796875 362.257812 53.898438 363.558594 54.097656 364.757812 C 58.796875 367.65625 63.496094 370.558594 68.597656 372.65625 C 68.996094 372.859375 68.695312 373.558594 68.296875 373.457031 C 63.496094 371.558594 58.898438 369.558594 54.496094 367.058594 C 55.796875 374.15625 58.597656 380.257812 65.496094 384.558594 C 71.996094 388.65625 77.996094 389.65625 85.496094 389.757812 C 93.296875 389.957031 103.597656 390.457031 109.898438 395.957031 C 109.996094 395.457031 110.296875 395.058594 110.695312 394.859375 C 111.898438 394.359375 113.296875 394.457031 114.195312 395.359375 C 116.695312 393.757812 119.296875 392.257812 121.898438 390.859375 C 117.296875 390.957031 112.695312 390.558594 108.898438 389.757812 C 108.097656 390.757812 106.496094 391.058594 105.496094 389.957031 C 105.195312 389.558594 104.996094 389.15625 104.898438 388.757812 C 104.796875 388.558594 104.796875 388.457031 104.796875 388.257812 C 104.695312 387.757812 104.898438 387.257812 105.195312 386.859375 C 99.398438 385.257812 93.097656 381.859375 87.996094 383.257812 C 87.296875 383.457031 86.996094 382.359375 87.695312 382.15625 C 96.195312 379.957031 104.097656 386.359375 112.195312 384.957031 C 111.097656 384.257812 110.195312 383.457031 109.496094 382.757812 C 109.097656 382.359375 108.695312 381.957031 108.296875 381.558594 C 107.597656 382.058594 106.796875 382.15625 105.996094 381.757812 C 104.796875 381.058594 104.496094 379.457031 105.195312 378.359375 C 105.296875 378.257812 105.398438 378.15625 105.496094 378.058594 C 101.496094 372.65625 97.898438 366.757812 90.695312 365.257812 C 90.097656 365.15625 90.296875 364.257812 90.996094 364.359375 C 95.796875 365.15625 99.296875 367.558594 102.496094 371.15625 C 103.296875 372.058594 105.195312 374.859375 107.398438 377.558594 C 107.496094 377.558594 107.496094 377.558594 107.597656 377.558594 C 108.195312 377.65625 108.796875 378.15625 108.996094 378.65625 C 109.195312 378.558594 109.496094 378.558594 109.695312 378.65625 C 110.496094 378.957031 111.195312 379.257812 111.996094 379.558594 C 109.496094 375.957031 107.597656 371.757812 105.597656 368.15625 C 98.898438 355.957031 87.398438 348.058594 73.496094 346.65625 C 72.597656 346.558594 72.597656 345.257812 73.496094 345.257812 C 83.695312 346.058594 93.296875 350.257812 100.496094 357.65625 C 103.496094 360.757812 105.695312 364.257812 107.796875 367.757812 C 107.898438 367.558594 107.996094 367.359375 108.195312 367.257812 C 108.597656 366.757812 109.195312 366.65625 109.796875 366.859375 C 111.296875 366.457031 112.796875 367.65625 112.695312 369.359375 C 112.695312 370.058594 112.296875 370.757812 111.796875 371.15625 C 112.195312 371.15625 112.496094 371.257812 112.796875 371.65625 C 115.195312 375.058594 117.996094 378.058594 121.695312 379.957031 C 121.796875 379.957031 121.796875 380.058594 121.898438 380.058594 C 122.296875 378.558594 123.496094 376.957031 124.695312 376.257812 C 124.796875 376.257812 124.796875 376.15625 124.898438 376.15625 C 122.496094 372.15625 120.695312 367.457031 119.398438 362.457031 C 114.496094 356.957031 111.097656 350.15625 105.996094 344.65625 C 100.796875 339.058594 94.398438 334.457031 86.996094 332.457031 C 78.695312 330.15625 72.898438 332.859375 65.097656 334.859375 C 61.097656 335.859375 56.097656 335.757812 53.097656 339.257812 C 49.796875 343.15625 52.398438 350.359375 53.296875 354.558594 C 53.496094 355.757812 51.898438 356.15625 51.496094 355.058594 C 48.996094 348.65625 47.695312 339.65625 53.796875 334.757812 C 57.496094 331.859375 62.695312 332.359375 66.996094 330.859375 C 71.097656 329.457031 74.796875 328.15625 79.195312 328.15625 C 94.796875 328.058594 109.597656 340.257812 117.695312 353.957031 C 116.695312 347.65625 116.398438 341.257812 116.496094 335.65625 C 116.695312 325.558594 120.195312 313.757812 129.695312 308.757812 C 122.296875 301.757812 117.695312 292.15625 119.398438 281.558594 C 118.898438 281.058594 119.097656 280.058594 119.996094 279.957031 L 120.097656 279.957031 C 120.195312 279.957031 120.398438 279.957031 120.496094 279.957031 C 124.695312 279.957031 128.695312 280.859375 132.496094 282.859375 C 133.097656 283.15625 132.597656 283.957031 131.996094 283.65625 C 128.496094 282.15625 124.796875 281.457031 120.996094 281.558594 C 119.996094 298.457031 133.898438 314.359375 151.195312 315.257812 C 159.296875 315.65625 167.097656 311.257812 174.695312 309.15625 C 181.195312 307.359375 188.195312 305.957031 194.898438 306.15625 C 195.398438 306.15625 195.695312 306.359375 195.996094 306.65625 C 195.996094 305.15625 196.398438 303.65625 197.097656 302.359375 C 196.496094 302.15625 195.898438 301.859375 195.496094 301.359375 C 194.898438 300.65625 194.496094 299.859375 194.398438 298.957031 C 189.496094 300.058594 185.296875 302.957031 180.296875 303.558594 C 176.496094 304.058594 172.898438 303.257812 169.496094 301.558594 C 168.898438 301.257812 169.296875 300.257812 169.898438 300.457031 C 176.496094 302.957031 181.496094 301.859375 187.796875 299.058594 C 190.097656 298.058594 192.195312 297.15625 194.496094 297.058594 C 194.496094 296.859375 194.597656 296.757812 194.597656 296.558594 C 194.695312 296.359375 194.796875 296.15625 194.898438 295.957031 C 183.496094 291.359375 172.796875 295.15625 160.996094 294.558594 C 153.597656 294.15625 144.796875 292.957031 139.597656 287.15625 C 139.097656 286.65625 139.898438 285.859375 140.398438 286.359375 C 148.695312 294.859375 163.597656 293.65625 174.398438 292.359375 C 180.796875 291.558594 187.695312 290.65625 193.597656 293.359375 C 189.195312 289.457031 184.195312 284.257812 178.398438 286.058594 C 177.796875 286.257812 177.597656 285.359375 178.195312 285.15625 C 184.898438 282.859375 191.796875 289.457031 196.597656 293.558594 C 196.898438 293.257812 197.296875 292.957031 197.597656 292.65625 C 196.898438 292.058594 196.296875 291.15625 195.796875 290.359375 C 193.996094 287.65625 192.296875 284.859375 188.996094 283.859375 C 188.296875 283.65625 188.597656 282.757812 189.296875 282.859375 C 191.496094 283.15625 193.296875 284.457031 194.695312 286.15625 C 196.097656 287.859375 197.296875 290.65625 199.398438 291.65625 C 199.898438 291.457031 200.398438 291.359375 200.796875 291.257812 C 190.898438 277.757812 180.597656 263.15625 165.496094 255.457031 C 165.296875 255.457031 165.097656 255.359375 164.898438 255.15625 C 162.796875 254.15625 160.695312 253.257812 158.496094 252.457031 C 153.898438 250.957031 149.796875 250.359375 146.097656 250.957031 C 152.097656 253.058594 157.597656 256.058594 162.695312 259.859375 C 163.097656 260.15625 162.695312 260.757812 162.296875 260.457031 C 156.296875 256.457031 149.796875 253.65625 142.898438 251.757812 C 141.695312 252.257812 140.496094 252.859375 139.398438 253.65625 C 141.996094 253.859375 144.695312 255.257812 146.796875 256.457031 C 147.296875 256.757812 146.898438 257.359375 146.398438 257.15625 C 144.996094 256.457031 143.496094 255.859375 141.996094 255.457031 C 140.695312 255.15625 139.296875 255.15625 137.996094 254.859375 C 136.296875 256.359375 134.796875 258.359375 133.496094 260.859375 C 130.898438 265.65625 128.898438 271.15625 124.398438 274.558594 C 123.796875 275.058594 123.296875 274.058594 123.695312 273.558594 C 128.996094 266.957031 131.195312 258.15625 136.996094 252.058594 C 142.695312 246.15625 151.097656 246.855469 158.398438 248.957031 C 159.597656 249.257812 160.796875 249.65625 161.996094 250.15625 C 158.296875 243.15625 156.597656 236.15625 156.398438 227.757812 C 156.097656 216.65625 155.195312 205.355469 155.597656 194.257812 C 155.398438 193.558594 155.195312 192.757812 154.996094 191.957031 C 154.796875 190.957031 156.296875 190.457031 156.597656 191.558594 C 156.695312 191.757812 156.796875 192.058594 156.796875 192.257812 C 156.898438 192.355469 156.996094 192.558594 157.097656 192.757812 C 157.097656 192.855469 157.097656 192.957031 157.097656 193.058594 C 161.398438 203.855469 176.597656 209.15625 179.695312 220.558594 C 180.097656 213.558594 181.597656 206.355469 186.398438 201.058594 C 193.195312 193.65625 201.996094 196.457031 210.097656 192.15625 C 210.796875 191.757812 211.496094 192.855469 210.796875 193.257812 C 203.996094 197.558594 195.296875 195.058594 189.296875 201.15625 C 182.597656 207.957031 181.898438 218.457031 182.398438 227.558594 C 183.398438 245.457031 191.597656 258.757812 202.097656 272.65625 C 203.097656 274.058594 200.996094 275.359375 199.796875 274.359375 C 186.898438 263.15625 180.296875 243.558594 179.695312 226.65625 C 179.296875 226.855469 178.695312 226.855469 178.496094 226.355469 C 174.898438 218.15625 171.496094 211.957031 164.796875 205.855469 C 162.195312 203.457031 159.496094 201.058594 157.597656 198.257812 C 158.195312 206.355469 158.097656 214.65625 158.496094 222.757812 C 158.695312 228.355469 158.695312 234.058594 160.398438 239.457031 C 161.695312 243.855469 164.097656 247.855469 166.296875 251.957031 C 171.695312 254.558594 176.597656 257.957031 181.097656 261.957031 C 173.296875 248.65625 166.996094 234.355469 163.097656 219.957031 C 162.898438 219.257812 163.898438 218.957031 164.195312 219.65625 C 168.195312 232.558594 173.898438 244.558594 180.695312 256.15625 C 183.898438 261.558594 187.398438 266.859375 190.996094 272.058594 C 194.796875 276.457031 198.195312 281.15625 201.496094 285.859375 C 201.796875 285.859375 202.097656 285.859375 202.398438 286.058594 C 202.496094 286.058594 202.496094 286.15625 202.597656 286.257812 L 202.695312 286.257812 C 202.996094 286.359375 203.398438 286.558594 203.597656 286.859375 C 203.796875 286.957031 203.996094 287.058594 204.097656 287.257812 C 205.398438 288.957031 206.796875 290.65625 208.097656 292.257812 C 207.898438 291.15625 207.695312 290.058594 207.195312 288.859375 C 205.996094 286.15625 204.195312 283.757812 202.398438 281.558594 C 201.496094 281.859375 200.398438 281.558594 199.695312 280.757812 C 198.597656 279.558594 198.796875 277.558594 200.296875 276.757812 C 201.898438 275.859375 203.796875 277.15625 203.796875 278.859375 C 203.796875 279.058594 203.796875 279.15625 203.695312 279.359375 C 205.796875 281.359375 208.496094 284.257812 210.296875 287.359375 C 210.496094 286.058594 210.597656 284.757812 210.695312 283.457031 C 209.496094 272.457031 198.496094 265.957031 197.296875 254.859375 C 197.195312 254.15625 198.496094 253.957031 198.597656 254.65625 C 199.695312 262.65625 207.195312 268.859375 210.695312 276.257812 C 210.496094 272.558594 209.796875 268.957031 208.796875 265.558594 C 207.597656 265.457031 206.398438 264.558594 206.496094 263.15625 C 206.597656 261.257812 208.597656 259.859375 210.398438 260.359375 C 210.996094 260.558594 211.398438 260.957031 211.695312 261.457031 C 211.695312 261.257812 211.597656 261.15625 211.597656 260.957031 C 209.898438 254.757812 204.398438 250.558594 201.796875 244.859375 C 197.496094 235.457031 197.695312 224.957031 199.195312 214.957031 C 199.296875 214.15625 200.496094 214.558594 200.398438 215.257812 C 199.398438 222.65625 198.996094 230.257812 200.796875 237.558594 C 202.296875 243.957031 205.597656 248.15625 209.496094 253.257812 C 213.996094 259.257812 214.898438 266.65625 213.898438 273.957031 C 214.296875 277.058594 214.398438 280.15625 214.398438 283.457031 C 214.398438 283.757812 214.398438 283.957031 214.398438 284.257812 C 215.496094 282.457031 216.695312 280.65625 217.898438 278.957031 C 217.496094 278.957031 217.195312 278.558594 217.296875 278.15625 C 218.496094 274.457031 219.898438 270.957031 218.898438 266.957031 C 218.296875 264.457031 216.796875 262.257812 215.898438 259.859375 C 214.496094 256.058594 214.195312 252.457031 215.195312 248.558594 C 215.398438 247.757812 216.496094 248.15625 216.398438 248.859375 C 214.898438 256.257812 219.296875 260.65625 220.796875 267.257812 C 221.296875 269.257812 221.195312 271.15625 220.695312 273.058594 C 220.996094 273.058594 221.195312 273.058594 221.496094 273.15625 C 222.898438 273.65625 223.398438 275.058594 223.195312 276.359375 C 223.097656 277.058594 222.398438 277.457031 221.796875 277.558594 C 219.695312 282.15625 217.398438 286.457031 215.496094 291.058594 C 218.695312 287.359375 222.496094 284.058594 226.695312 281.957031 C 226.597656 281.757812 226.597656 281.558594 226.695312 281.257812 C 231.296875 273.257812 238.097656 268.15625 245.398438 262.859375 C 245.898438 262.558594 246.398438 263.257812 245.996094 263.65625 C 242.898438 266.257812 239.695312 268.859375 236.597656 271.558594 C 234.296875 273.558594 232.496094 275.957031 230.796875 278.359375 C 230.898438 278.359375 231.097656 278.359375 231.195312 278.457031 C 231.996094 278.65625 232.597656 279.257812 232.898438 279.957031 C 235.996094 278.15625 239.195312 276.457031 242.398438 274.558594 C 249.496094 270.359375 254.195312 260.457031 263.296875 260.457031 C 263.796875 260.457031 263.796875 261.257812 263.296875 261.257812 C 256.398438 261.457031 253.695312 267.058594 249.398438 271.15625 C 246.996094 273.457031 244.195312 275.359375 241.296875 277.058594 C 238.398438 278.757812 235.597656 280.457031 232.796875 282.257812 C 232.496094 282.65625 232.097656 282.957031 231.597656 283.058594 L 231.496094 283.058594 C 227.296875 285.859375 223.296875 288.757812 219.398438 292.257812 C 219.296875 292.359375 219.195312 292.558594 219.097656 292.65625 C 219.898438 292.15625 220.796875 291.65625 221.496094 291.257812 C 223.496094 290.15625 225.398438 289.257812 227.496094 288.65625 C 227.097656 288.65625 226.597656 288.558594 226.195312 288.558594 C 225.296875 288.457031 225.195312 287.058594 226.195312 287.058594 C 234.796875 287.257812 240.496094 283.15625 247.996094 280.257812 C 251.097656 279.058594 253.695312 279.058594 256.597656 280.757812 C 257.097656 281.058594 256.597656 281.757812 256.195312 281.457031 C 250.296875 278.257812 244.097656 284.359375 238.898438 286.457031 C 237.296875 287.058594 235.796875 287.65625 234.195312 288.058594 C 234.296875 288.257812 234.398438 288.457031 234.398438 288.65625 C 234.796875 290.558594 232.898438 291.757812 231.296875 290.859375 C 230.898438 290.65625 230.695312 290.257812 230.597656 289.859375 C 229.296875 290.457031 227.898438 291.15625 226.597656 291.859375 C 227.496094 292.15625 228.398438 292.558594 229.097656 293.058594 C 229.195312 292.558594 229.496094 292.058594 230.195312 291.957031 C 242.898438 289.859375 256.695312 290.257812 268.195312 295.15625 C 269.898438 291.65625 272.695312 289.058594 275.695312 286.359375 C 281.695312 281.15625 284.796875 277.359375 284.398438 268.957031 C 284.195312 264.15625 284.195312 259.757812 287.296875 255.859375 C 288.996094 253.65625 291.296875 252.058594 293.296875 250.257812 C 289.398438 250.757812 285.796875 251.65625 282.195312 253.457031 C 281.695312 253.757812 281.195312 252.957031 281.695312 252.65625 C 285.695312 250.359375 290.398438 248.757812 294.996094 248.65625 C 296.597656 247.058594 297.898438 245.257812 298.496094 242.859375 C 298.796875 241.859375 300.195312 242.257812 299.996094 243.257812 C 299.296875 247.957031 295.898438 250.457031 292.496094 253.558594 C 289.496094 256.359375 287.195312 258.957031 286.898438 263.359375 C 286.597656 267.058594 287.898438 270.65625 287.496094 274.359375 C 286.496094 284.65625 275.496094 288.257812 270.898438 296.457031 C 270.996094 296.558594 271.097656 296.558594 271.195312 296.558594 C 271.398438 296.257812 271.796875 296.058594 272.195312 296.058594 C 284.296875 296.058594 291.398438 286.957031 296.898438 277.359375 C 302.597656 267.359375 305.195312 255.757812 300.796875 244.757812 C 300.496094 243.957031 301.695312 243.457031 302.097656 244.15625 C 308.496094 256.359375 305.296875 269.558594 298.496094 280.957031 C 293.296875 289.558594 285.796875 298.65625 275.296875 299.15625 C 276.496094 299.957031 277.597656 300.859375 278.695312 301.859375 C 289.097656 295.558594 300.296875 290.457031 311.898438 286.757812 C 314.398438 284.757812 316.597656 282.757812 317.996094 279.859375 C 319.398438 276.957031 319.695312 273.757812 321.695312 271.15625 C 322.195312 270.457031 323.195312 271.058594 322.796875 271.757812 C 321.097656 275.257812 320.695312 279.15625 318.695312 282.457031 C 318.097656 283.457031 317.398438 284.457031 316.597656 285.359375 C 328.695312 281.957031 341.296875 279.957031 353.898438 279.558594 C 354.597656 279.558594 354.496094 280.558594 353.898438 280.558594 C 344.597656 281.359375 335.597656 282.757812 326.695312 284.957031 C 332.398438 286.757812 338.296875 290.15625 341.496094 295.058594 C 341.496094 295.15625 341.597656 295.15625 341.597656 295.257812 C 342.695312 295.058594 343.695312 294.957031 344.597656 295.058594 C 348.894531 295.65625 353.695312 300.15625 355.296875 304.058594 C 355.597656 304.859375 354.398438 305.457031 353.898438 304.859375 C 351.796875 302.257812 349.296875 298.957031 346.296875 297.457031 C 345.195312 296.859375 343.898438 296.757812 342.695312 296.957031 L 342.796875 297.058594 C 345.597656 300.15625 345.898438 305.457031 345.695312 309.457031 C 345.695312 310.15625 344.597656 310.15625 344.597656 309.457031 C 344.597656 307.257812 344.296875 305.15625 343.597656 303.15625 C 342.996094 301.359375 341.996094 299.65625 341.496094 297.859375 C 341.394531 297.558594 341.496094 297.359375 341.695312 297.15625 C 341.398438 297.257812 340.996094 297.359375 340.695312 297.457031 C 340.796875 298.757812 339.796875 300.058594 339.597656 301.257812 C 339.296875 302.859375 339.394531 304.359375 339.597656 305.957031 C 339.695312 306.457031 338.894531 306.65625 338.597656 306.257812 C 337.695312 304.65625 337.496094 302.859375 337.796875 301.058594 C 337.898438 300.257812 338.097656 299.257812 338.496094 298.359375 C 336.195312 299.457031 334.097656 301.058594 332.597656 302.359375 C 332.496094 302.457031 332.296875 302.457031 332.195312 302.558594 C 332.296875 302.65625 332.296875 302.65625 332.398438 302.757812 C 336.796875 307.757812 339.097656 313.058594 337.996094 319.558594 C 339.097656 319.058594 340.496094 318.757812 341.597656 318.957031 C 342.398438 319.058594 343.097656 319.457031 343.695312 319.957031 C 344.496094 320.65625 345.398438 322.359375 346.796875 322.058594 C 347.097656 321.058594 347.695312 322.257812 346.898438 322.558594 Z M 355.496094 315.359375 C 355.195312 312.957031 354.796875 310.457031 354.296875 308.058594 C 354.195312 307.457031 353.097656 307.558594 353.097656 308.257812 C 353.296875 311.058594 353.597656 313.859375 353.796875 316.65625 C 353.996094 318.457031 353.796875 320.457031 351.695312 321.058594 C 351.097656 321.257812 350.597656 321.257812 350.097656 321.457031 C 350.496094 319.757812 350.296875 317.957031 350.097656 316.257812 C 349.898438 314.65625 349.695312 313.058594 348.996094 311.558594 C 348.796875 311.058594 348.097656 311.359375 348.097656 311.757812 C 347.898438 313.457031 348.296875 315.15625 348.296875 316.957031 C 348.398438 318.558594 348.195312 320.058594 348.496094 321.65625 C 348.597656 322.058594 348.898438 322.15625 349.195312 322.257812 C 349.195312 322.558594 349.296875 322.757812 349.597656 322.859375 C 351.796875 323.65625 354.695312 322.257812 355.496094 320.058594 C 356.097656 318.558594 355.695312 316.859375 355.496094 315.359375 Z M 202.898438 159.65625 C 198.996094 158.957031 196.195312 157.257812 193.296875 154.855469 C 195.496094 161.757812 196.496094 169.058594 200.496094 175.257812 C 204.898438 182.15625 211.695312 185.558594 219.398438 187.355469 C 219.398438 185.355469 219.695312 183.457031 220.398438 181.65625 C 211.898438 178.257812 204.996094 171.855469 199.996094 164.257812 C 199.496094 163.457031 200.695312 162.757812 201.195312 163.558594 C 206.496094 170.757812 213.398438 175.65625 221.296875 179.558594 C 222.097656 178.058594 223.097656 176.65625 224.195312 175.457031 C 224.195312 175.355469 224.195312 175.257812 224.195312 175.15625 C 224.296875 174.355469 224.296875 173.65625 224.398438 172.855469 C 223.996094 172.757812 223.695312 172.457031 223.496094 171.957031 C 220.195312 161.957031 211.695312 161.15625 202.898438 159.65625 Z M 220.695312 187.957031 C 220.796875 188.058594 220.796875 188.058594 220.898438 188.15625 C 225.597656 187.558594 229.996094 188.558594 234.597656 192.355469 C 239.398438 196.355469 243.496094 201.355469 245.597656 207.15625 C 252.695312 206.855469 255.597656 202.65625 260.996094 199.15625 C 264.097656 197.058594 267.796875 196.058594 271.496094 195.855469 C 271.296875 194.855469 271.398438 193.757812 271.597656 193.058594 C 267.195312 195.257812 261.796875 196.15625 257.097656 196.457031 C 256.496094 196.457031 256.398438 195.558594 256.996094 195.457031 C 259.898438 194.855469 262.796875 194.15625 265.597656 193.257812 C 267.796875 192.558594 269.796875 191.457031 271.898438 190.65625 C 271.898438 190.355469 271.898438 190.058594 271.898438 189.757812 C 271.898438 189.757812 271.898438 189.757812 271.898438 189.65625 C 271.796875 189.957031 271.695312 190.15625 271.296875 190.15625 C 266.796875 190.957031 262.996094 189.757812 258.695312 188.257812 C 251.398438 185.757812 245.097656 185.058594 237.597656 187.355469 C 236.898438 187.558594 236.597656 186.457031 237.296875 186.257812 C 241.898438 184.65625 246.496094 183.957031 251.398438 184.65625 C 258.296875 185.558594 264.097656 188.957031 271.195312 188.558594 C 271.496094 188.558594 271.796875 188.757812 271.898438 188.957031 C 271.898438 188.855469 271.898438 188.855469 271.898438 188.757812 C 271.695312 187.257812 271.496094 185.757812 271.597656 184.257812 C 264.195312 185.15625 256.898438 178.558594 250.898438 175.058594 C 237.097656 167.058594 223.695312 172.355469 220.695312 187.957031 Z M 272.398438 178.257812 C 263.195312 173.957031 255.195312 166.855469 247.898438 159.558594 C 249.796875 161.558594 251.695312 163.65625 253.597656 165.65625 C 259.097656 171.355469 264.496094 177.15625 272.398438 178.257812 Z M 253.097656 161.058594 C 251.496094 159.957031 249.996094 158.757812 248.398438 157.65625 C 256.097656 164.457031 263.796875 171.058594 272.796875 176.457031 C 268.296875 170.15625 258.695312 165.15625 253.097656 161.058594 Z M 278.398438 178.058594 C 278.398438 178.257812 278.398438 178.558594 278.398438 178.757812 C 278.398438 179.757812 277.496094 180.257812 276.597656 180.257812 C 276.496094 180.558594 276.195312 180.855469 275.796875 180.855469 C 275.398438 180.957031 275.097656 180.957031 274.695312 180.957031 C 274.695312 181.058594 274.695312 181.15625 274.597656 181.355469 C 273.398438 183.457031 273.496094 185.15625 273.898438 187.15625 C 274.398438 187.058594 274.898438 187.058594 275.398438 187.15625 C 276.496094 187.355469 277.496094 187.558594 278.398438 187.757812 C 277.695312 186.957031 277.398438 185.957031 277.496094 184.757812 C 277.597656 183.855469 277.996094 183.058594 278.496094 182.257812 C 278.398438 181.757812 278.695312 181.355469 279.097656 181.15625 L 279.097656 181.058594 C 279.996094 179.355469 279.996094 177.65625 279.996094 175.957031 C 279.796875 176.15625 279.597656 176.457031 279.296875 176.757812 C 279.195312 177.15625 278.796875 177.65625 278.398438 178.058594 Z M 288.796875 123.355469 C 288.695312 122.058594 288.695312 120.757812 288.597656 119.457031 L 288.496094 119.355469 C 285.796875 116.257812 284.296875 112.355469 281.496094 109.257812 C 278.296875 105.757812 274.796875 104.15625 270.597656 102.15625 C 269.796875 101.757812 270.398438 100.65625 271.195312 100.855469 C 275.597656 101.757812 279.597656 104.15625 282.695312 107.257812 C 284.695312 109.257812 286.898438 111.855469 288.496094 114.65625 C 288.496094 113.058594 288.398438 111.457031 288.398438 109.855469 C 279.097656 101.457031 271.597656 91.457031 258.097656 93.058594 C 265.898438 97.058594 264.398438 109.757812 273.695312 112.457031 C 274.195312 112.558594 274.398438 112.957031 274.496094 113.355469 C 279.796875 111.457031 285.296875 117.65625 288.796875 123.355469 Z M 287.296875 90.957031 C 287.398438 90.957031 287.398438 90.957031 287.496094 90.957031 C 287.398438 90.855469 287.296875 90.757812 287.195312 90.65625 C 285.398438 87.457031 282.996094 85.957031 280.195312 83.757812 C 277.597656 81.757812 275.296875 79.558594 273.097656 77.058594 C 272.496094 76.457031 273.398438 75.457031 273.996094 76.15625 C 277.097656 79.15625 280.496094 81.855469 284.296875 84.15625 C 284.796875 84.457031 285.296875 84.757812 285.796875 85.15625 C 278.996094 76.457031 269.695312 65.15625 258.898438 64.355469 C 263.097656 66.457031 265.195312 71.15625 267.398438 75.355469 C 271.898438 84.15625 276.398438 91.257812 287.296875 90.957031 Z M 284.398438 56.757812 C 284.496094 56.757812 284.496094 56.757812 284.398438 56.757812 C 282.296875 54.957031 280.398438 52.855469 278.195312 51.15625 C 275.398438 49.058594 272.296875 47.355469 269.195312 45.757812 C 268.195312 45.257812 268.898438 43.558594 269.996094 43.957031 C 273.496094 45.355469 276.796875 47.257812 279.898438 49.558594 C 281.496094 50.757812 283.296875 52.058594 284.796875 53.457031 C 284.796875 53.355469 284.796875 53.257812 284.695312 53.15625 C 279.097656 43.355469 268.996094 37.855469 258.195312 36.058594 C 260.398438 37.757812 261.695312 40.257812 263.398438 43.257812 C 267.695312 51.257812 274.097656 59.457031 284.398438 56.757812 Z M 278.398438 31.65625 C 278.398438 31.558594 278.398438 31.558594 278.398438 31.457031 C 274.898438 27.058594 272.597656 21.558594 271.695312 15.957031 C 271.597656 15.058594 272.898438 14.65625 273.097656 15.558594 C 273.996094 20.65625 275.796875 25.058594 278.597656 29.257812 C 278.898438 23.257812 277.398438 17.558594 274.695312 12.058594 C 273.296875 9.257812 271.695312 6.65625 270.398438 3.855469 C 270.097656 8.457031 269.695312 13.058594 270.097656 17.65625 C 270.597656 24.058594 274.296875 27.65625 278.398438 31.65625 Z M 289.195312 53.457031 C 290.097656 51.65625 290.996094 49.757812 291.996094 48.058594 C 293.597656 45.355469 295.898438 42.65625 296.398438 39.457031 C 296.496094 38.757812 297.597656 38.957031 297.597656 39.65625 C 297.398438 42.355469 295.898438 44.457031 294.597656 46.757812 C 292.695312 50.058594 291.097656 53.457031 289.695312 56.957031 C 289.496094 57.355469 289.195312 57.558594 288.996094 57.558594 C 288.996094 57.558594 288.996094 57.558594 288.996094 57.65625 C 288.996094 58.15625 288.695312 58.457031 288.398438 58.558594 C 288.496094 58.855469 288.496094 59.058594 288.597656 59.355469 C 294.097656 55.257812 298.898438 51.15625 301.996094 44.855469 C 305.398438 37.957031 305.597656 30.457031 306.296875 23.058594 C 301.996094 26.855469 297.296875 29.558594 294.097656 34.65625 C 290.398438 40.457031 289.695312 46.957031 289.195312 53.457031 Z M 291.695312 89.058594 C 291.695312 89.457031 291.695312 89.855469 291.796875 90.257812 C 292.898438 88.757812 294.296875 87.355469 295.296875 86.15625 C 298.597656 82.257812 302.296875 79.058594 306.398438 76.058594 C 306.898438 75.65625 307.496094 76.457031 306.996094 76.855469 C 303.996094 79.558594 301.097656 82.457031 298.398438 85.457031 C 295.796875 88.355469 293.996094 91.558594 291.898438 94.65625 C 291.898438 95.355469 291.898438 96.058594 291.996094 96.757812 C 299.796875 91.855469 306.597656 87.058594 309.695312 77.855469 C 311.398438 72.855469 311.695312 67.457031 315.496094 64.15625 C 309.195312 65.457031 304.796875 71.355469 300.597656 76.058594 C 297.097656 80.257812 294.195312 84.457031 291.695312 89.058594 Z M 289.496094 170.558594 C 292.496094 165.15625 296.898438 160.558594 300.296875 155.355469 C 303.398438 150.558594 306.496094 145.757812 309.695312 140.957031 C 301.195312 149.855469 292.097656 158.257812 289.496094 170.558594 Z M 305.597656 153.957031 C 308.496094 148.15625 310.796875 142.15625 313.996094 136.457031 C 309.996094 143.058594 305.796875 149.65625 301.597656 156.15625 C 297.796875 162.058594 292.597656 167.558594 289.597656 173.855469 C 289.398438 174.257812 289.097656 174.355469 288.796875 174.257812 C 288.597656 174.757812 288.195312 175.058594 287.695312 175.15625 C 288.097656 175.257812 288.398438 175.558594 288.195312 176.058594 C 287.296875 180.257812 292.398438 182.957031 290.996094 187.257812 C 289.898438 190.957031 285.796875 192.855469 284.398438 196.355469 C 285.097656 196.558594 285.898438 196.757812 286.597656 196.757812 C 288.195312 196.757812 289.398438 195.757812 290.898438 195.65625 L 290.996094 195.65625 C 290.996094 195.558594 290.996094 195.457031 290.898438 195.355469 C 290.796875 194.957031 291.195312 194.558594 291.496094 194.355469 C 291.398438 194.15625 291.195312 193.957031 291.097656 193.757812 C 290.796875 193.257812 291.496094 192.757812 291.898438 193.15625 C 297.597656 199.65625 303.695312 202.957031 311.695312 205.957031 C 316.695312 207.757812 318.796875 210.65625 322.097656 213.855469 C 315.898438 201.957031 305.496094 196.355469 292.597656 192.355469 C 291.597656 192.058594 291.695312 190.355469 292.898438 190.457031 C 292.996094 190.457031 293.097656 190.457031 293.097656 190.457031 C 293.195312 190.058594 293.496094 189.65625 294.097656 189.457031 C 294.597656 189.257812 294.996094 189.15625 295.496094 189.058594 C 295.496094 188.15625 295.296875 187.457031 294.898438 186.855469 C 294.296875 186.757812 293.796875 186.65625 293.195312 186.457031 C 292.597656 186.257812 292.597656 185.257812 293.398438 185.257812 C 293.496094 185.257812 293.597656 185.257812 293.796875 185.257812 C 293.597656 185.058594 293.496094 184.757812 293.398438 184.558594 C 292.695312 184.457031 292.398438 183.558594 292.898438 183.058594 C 292.496094 181.15625 292.898438 179.257812 291.496094 177.65625 C 290.796875 177.558594 290.296875 177.058594 290.296875 176.457031 C 289.597656 176.058594 289.195312 174.957031 289.796875 174.257812 C 296.097656 167.855469 301.695312 161.957031 305.597656 153.957031 Z M 324.097656 217.457031 C 323.996094 217.15625 323.796875 216.757812 323.597656 216.457031 C 323.597656 216.457031 323.496094 216.457031 323.496094 216.355469 C 323.195312 216.15625 322.996094 215.957031 322.796875 215.757812 C 323.296875 216.355469 323.695312 216.855469 324.097656 217.457031 Z M 311.496094 209.257812 C 314.597656 210.558594 318.496094 212.257812 321.398438 214.558594 C 319.695312 212.757812 318.398438 210.65625 316.296875 209.257812 C 312.898438 207.058594 308.597656 206.457031 304.898438 204.757812 C 300.398438 202.757812 296.398438 199.855469 293.296875 196.15625 C 295.195312 200.558594 296.496094 204.15625 301.796875 206.257812 C 304.898438 207.457031 308.296875 207.957031 311.496094 209.257812 Z M 297.296875 216.957031 C 294.996094 210.855469 292.695312 204.757812 290.695312 198.558594 C 289.597656 199.257812 288.097656 199.558594 286.898438 199.558594 C 286.898438 199.558594 286.898438 199.558594 286.796875 199.558594 C 287.796875 202.15625 287.695312 205.15625 287.695312 207.957031 C 287.695312 213.257812 287.695312 218.558594 287.597656 223.757812 C 287.597656 224.457031 286.496094 224.457031 286.496094 223.757812 C 286.195312 215.558594 286.898438 207.15625 284.996094 199.257812 C 283.996094 198.957031 282.996094 198.558594 281.996094 198.15625 C 282.996094 202.855469 282.398438 207.957031 281.796875 212.65625 C 281.695312 213.257812 280.796875 213.257812 280.796875 212.65625 C 281.296875 207.65625 280.695312 202.757812 280.398438 197.855469 C 279.496094 197.757812 278.496094 197.957031 277.496094 198.558594 L 277.496094 198.65625 C 275.796875 204.457031 274.398438 211.15625 270.996094 216.257812 C 268.695312 219.65625 265.597656 221.957031 264.597656 226.15625 C 263.898438 229.355469 264.097656 232.65625 264.496094 235.957031 C 268.796875 234.257812 273.496094 232.855469 278.097656 232.457031 C 278.398438 229.558594 278.496094 226.757812 278.597656 223.855469 C 278.597656 223.257812 279.496094 223.15625 279.597656 223.757812 C 280.097656 226.558594 280.097656 229.558594 279.796875 232.355469 C 286.398438 232.058594 292.695312 233.558594 297.597656 238.15625 C 302.996094 231.457031 299.898438 223.957031 297.296875 216.957031 Z M 280.398438 183.957031 C 279.898438 185.257812 279.898438 186.558594 281.398438 187.257812 L 281.496094 187.355469 C 284.097656 186.457031 286.398438 186.457031 288.296875 188.558594 C 289.796875 186.257812 289.195312 184.355469 288.296875 182.355469 C 288.097656 182.355469 287.996094 182.355469 287.796875 182.257812 C 286.195312 181.457031 284.796875 181.65625 283.496094 182.757812 C 282.898438 183.15625 282.398438 183.65625 281.695312 183.957031 C 281.296875 184.058594 280.796875 184.058594 280.398438 183.957031 Z M 283.398438 174.457031 C 283.097656 174.757812 282.597656 174.957031 282.195312 174.757812 C 282.796875 176.355469 282.695312 178.15625 282.296875 179.855469 C 282.195312 180.355469 281.898438 180.855469 281.695312 181.355469 C 282.695312 181.058594 284.097656 180.355469 284.695312 180.257812 C 285.695312 180.058594 286.597656 180.257812 287.496094 180.558594 C 286.898438 179.15625 286.398438 177.65625 286.695312 176.058594 C 286.496094 176.058594 286.296875 175.957031 286.097656 175.855469 C 285.195312 174.957031 284.296875 174.558594 283.398438 174.457031 Z M 273.097656 202.15625 C 273.195312 201.757812 273.597656 201.65625 273.898438 201.65625 C 274.398438 200.355469 274.898438 198.957031 275.496094 197.65625 C 275.695312 197.257812 276.097656 197.058594 276.496094 197.15625 C 277.695312 195.558594 279.695312 195.355469 281.695312 195.65625 C 281.796875 195.65625 281.796875 195.65625 281.898438 195.65625 C 283.195312 192.855469 285.597656 191.757812 287.496094 189.65625 C 284.695312 186.957031 282.898438 189.457031 280.195312 190.15625 C 278.296875 190.558594 276.496094 189.457031 274.597656 189.65625 C 274.597656 189.757812 274.597656 189.855469 274.597656 189.957031 C 274.796875 190.257812 274.796875 190.757812 274.496094 190.957031 C 274.195312 192.558594 273.195312 194.355469 273.796875 195.65625 C 273.898438 195.65625 273.996094 195.757812 273.996094 195.757812 C 274.097656 195.757812 274.195312 195.65625 274.296875 195.65625 C 275.695312 195.355469 276.296875 197.457031 274.898438 197.855469 C 274.097656 198.058594 273.398438 198.257812 272.695312 198.457031 C 267.097656 202.65625 263.996094 209.65625 260.195312 215.457031 C 257.296875 219.957031 254.296875 224.65625 250.996094 228.855469 C 250.695312 229.65625 250.296875 230.457031 249.898438 231.15625 C 259.097656 222.65625 269.195312 215.058594 273.097656 202.15625 Z M 253.796875 221.855469 C 256.597656 217.957031 259.496094 213.957031 262.097656 209.957031 C 264.398438 206.457031 266.496094 203.058594 269.296875 200.15625 C 261.695312 204.355469 257.195312 212.65625 254.097656 220.855469 C 254.097656 221.257812 253.898438 221.558594 253.796875 221.855469 Z M 220.996094 189.457031 L 220.898438 189.457031 C 220.898438 189.558594 220.796875 189.558594 220.796875 189.65625 C 220.796875 189.558594 220.898438 189.558594 220.996094 189.457031 Z M 207.597656 132.855469 C 205.097656 127.957031 203.996094 122.058594 203.398438 116.855469 C 203.296875 116.15625 204.398438 116.058594 204.597656 116.65625 C 205.695312 121.257812 206.898438 126.355469 208.996094 130.558594 C 211.296875 135.15625 214.796875 137.15625 218.898438 139.457031 C 219.296875 129.65625 217.898438 120.855469 210.695312 113.558594 C 207.195312 109.957031 202.996094 107.558594 200.195312 103.65625 C 200.996094 110.855469 201.496094 118.457031 203.398438 125.257812 C 204.195312 128.558594 205.695312 130.957031 207.597656 132.855469 Z M 302.597656 117.65625 C 301.898438 119.257812 301.195312 121.058594 300.398438 122.757812 C 305.898438 118.15625 310.296875 113.15625 312.796875 106.257812 C 312.996094 105.558594 314.097656 105.855469 313.898438 106.558594 C 311.796875 113.15625 307.996094 119.558594 302.496094 123.855469 C 307.796875 121.457031 312.597656 118.257812 316.597656 113.65625 C 320.796875 108.757812 322.695312 102.257812 327.097656 97.65625 C 320.597656 97.15625 316.195312 98.855469 311.796875 104.15625 C 308.097656 108.355469 304.898438 112.65625 302.597656 117.65625 Z M 299.695312 124.355469 C 299.597656 124.65625 299.398438 124.957031 299.296875 125.15625 C 299.597656 125.058594 299.898438 124.957031 300.097656 124.855469 C 299.996094 124.757812 299.796875 124.558594 299.695312 124.355469 Z M 190.898438 152.957031 C 190.695312 152.058594 191.796875 151.65625 192.296875 152.257812 C 192.398438 152.257812 192.597656 152.257812 192.695312 152.355469 C 199.695312 157.355469 207.398438 156.058594 214.996094 159.058594 C 218.796875 160.558594 222.097656 163.058594 224.097656 166.355469 C 223.597656 158.355469 221.597656 150.355469 220.097656 142.65625 C 219.796875 142.957031 219.296875 143.15625 218.796875 143.058594 C 198.996094 139.15625 199.695312 117.058594 198.597656 101.355469 C 198.398438 101.058594 198.296875 100.65625 198.097656 100.257812 C 197.695312 99.257812 199.296875 98.65625 199.796875 99.558594 C 203.296875 107.355469 213.097656 110.65625 217.496094 118.257812 C 221.195312 124.65625 223.195312 133.058594 221.097656 140.257812 C 220.996094 140.558594 220.796875 140.757812 220.597656 140.957031 C 220.597656 141.058594 220.597656 141.15625 220.597656 141.257812 C 220.597656 141.355469 220.597656 141.457031 220.597656 141.558594 C 220.796875 141.558594 220.898438 141.65625 220.996094 141.957031 C 222.898438 148.257812 224.195312 154.855469 225.398438 161.355469 C 226.097656 165.058594 227.195312 169.15625 226.796875 172.957031 C 229.996094 170.558594 233.796875 169.058594 237.796875 168.757812 C 243.597656 168.355469 248.796875 170.757812 253.695312 173.558594 C 256.496094 175.15625 259.195312 176.957031 261.996094 178.457031 C 265.195312 180.15625 268.597656 180.757812 271.796875 182.058594 C 271.996094 181.757812 272.097656 181.457031 272.296875 181.15625 C 266.296875 180.855469 261.398438 177.457031 257.097656 173.058594 C 249.097656 165.058594 241.195312 156.457031 234.097656 147.65625 C 233.597656 147.058594 234.398438 146.257812 234.898438 146.855469 L 234.996094 146.957031 C 235.195312 146.855469 235.398438 146.855469 235.695312 146.957031 C 244.695312 152.058594 253.097656 158.355469 261.296875 164.457031 C 265.496094 167.65625 270.796875 170.65625 273.996094 174.957031 C 269.496094 161.757812 253.898438 153.257812 249.097656 139.957031 C 247.398438 135.257812 247.296875 129.457031 250.097656 125.058594 C 253.695312 119.457031 260.195312 120.058594 265.496094 117.257812 C 266.195312 116.855469 266.898438 117.957031 266.195312 118.355469 C 265.496094 118.855469 264.796875 119.15625 263.996094 119.558594 C 269.597656 125.457031 273.097656 132.957031 274.296875 141.058594 C 274.398438 141.957031 272.996094 142.355469 272.898438 141.457031 C 271.796875 133.457031 268.296875 126.558594 262.695312 120.855469 C 262.496094 120.65625 262.398438 120.457031 262.398438 120.257812 C 261.195312 120.65625 259.898438 120.957031 258.496094 121.355469 C 253.296875 122.855469 249.695312 126.65625 249.398438 132.257812 C 248.996094 140.65625 255.195312 146.957031 260.296875 152.65625 C 265.796875 158.757812 275.398438 166.457031 277.597656 175.15625 C 277.695312 175.058594 277.796875 174.957031 277.898438 174.855469 C 278.796875 173.957031 279.695312 173.15625 280.898438 172.855469 C 280.996094 172.855469 281.097656 172.855469 281.296875 172.757812 C 280.597656 167.558594 280.097656 162.355469 279.398438 157.15625 C 279.296875 156.457031 280.597656 156.257812 280.695312 156.957031 C 281.496094 162.15625 282.398438 167.355469 283.195312 172.65625 C 283.695312 172.757812 284.195312 172.855469 284.597656 172.957031 C 285.195312 163.15625 289.996094 153.855469 290.296875 143.757812 C 290.496094 136.257812 284.398438 107.058594 271.195312 117.058594 C 270.597656 117.457031 270.097656 116.65625 270.496094 116.15625 C 270.898438 115.65625 271.296875 115.257812 271.796875 114.855469 C 261.898438 112.757812 263.496094 97.65625 254.695312 93.65625 C 254.496094 93.558594 254.394531 93.457031 254.394531 93.355469 C 253.796875 92.957031 253.796875 91.855469 254.597656 91.65625 C 268.796875 88.257812 278.996094 95.65625 287.894531 105.257812 C 287.796875 100.855469 287.796875 96.558594 287.695312 92.15625 C 287.597656 92.355469 287.496094 92.457031 287.394531 92.558594 C 282.394531 95.558594 276.394531 92.855469 272.496094 89.15625 C 265.695312 82.65625 264.996094 67.757812 255.296875 64.855469 C 254.597656 64.65625 254.597656 63.957031 254.996094 63.558594 C 254.996094 63.558594 254.996094 63.457031 255.097656 63.457031 C 260.796875 59.558594 268.496094 65.558594 272.996094 68.957031 C 278.496094 73.15625 283.296875 78.15625 287.597656 83.457031 C 287.296875 74.957031 286.597656 66.558594 285.296875 58.257812 C 285.195312 58.355469 285.097656 58.457031 284.996094 58.558594 C 279.996094 61.058594 274.398438 59.855469 269.996094 56.558594 C 262.898438 51.15625 261.398438 38.558594 252.996094 35.457031 L 252.898438 35.457031 C 251.296875 35.355469 251.296875 32.855469 252.898438 32.957031 C 265.597656 33.957031 276.796875 39.957031 283.796875 50.457031 C 282.496094 44.65625 280.695312 38.855469 278.398438 33.15625 C 274.695312 30.457031 270.996094 27.15625 269.398438 22.855469 C 266.898438 16.355469 268.597656 7.855469 268.796875 1.058594 C 268.796875 0.855469 268.898438 0.65625 268.996094 0.558594 C 268.898438 -0.0429688 269.695312 -0.242188 269.898438 0.355469 C 270.195312 0.457031 270.398438 0.65625 270.398438 1.058594 C 270.398438 1.15625 270.398438 1.355469 270.398438 1.457031 C 272.296875 6.355469 275.898438 10.558594 277.996094 15.457031 C 280.195312 20.757812 280.996094 25.855469 280.296875 31.558594 C 280.296875 31.855469 280.097656 31.957031 279.996094 32.15625 C 282.796875 38.457031 284.996094 44.957031 286.597656 51.558594 C 287.097656 45.957031 288.796875 40.457031 291.496094 35.558594 C 295.195312 28.757812 300.898438 25.957031 306.398438 20.957031 C 306.695312 20.355469 307.796875 20.457031 307.898438 21.257812 C 309.195312 36.957031 304.496094 55.15625 288.996094 62.257812 C 290.195312 69.457031 290.996094 76.757812 291.496094 84.15625 C 294.398438 79.65625 298.097656 75.65625 301.796875 71.757812 C 306.097656 67.355469 311.296875 61.15625 317.996094 62.65625 C 318.097656 62.65625 318.195312 62.558594 318.296875 62.558594 C 318.898438 62.257812 319.496094 62.855469 319.496094 63.355469 C 319.597656 63.757812 319.496094 64.15625 318.996094 64.15625 C 318.898438 64.15625 318.898438 64.15625 318.796875 64.15625 C 313.097656 67.457031 313.695312 74.15625 311.898438 79.65625 C 310.898438 82.757812 309.398438 85.65625 307.496094 88.355469 C 303.898438 93.257812 298.496094 98.058594 292.496094 99.457031 C 292.398438 99.457031 292.296875 99.457031 292.195312 99.457031 C 292.496094 109.65625 292.496094 119.855469 292.796875 129.957031 C 303.097656 116.855469 307.796875 92.058594 328.796875 96.457031 C 329.597656 96.65625 329.398438 97.957031 328.597656 97.855469 C 325.296875 101.257812 324.195312 105.855469 321.796875 109.855469 C 320.097656 112.757812 317.996094 115.355469 315.695312 117.757812 C 310.796875 122.757812 304.597656 126.757812 297.898438 128.558594 C 297.796875 128.558594 297.695312 128.558594 297.597656 128.558594 C 296.398438 130.457031 294.898438 132.058594 292.898438 133.15625 C 292.898438 133.355469 292.898438 133.558594 292.898438 133.757812 C 294.097656 139.355469 294.097656 145.257812 293.398438 150.957031 C 293.195312 152.855469 292.898438 154.957031 292.496094 157.058594 C 299.097656 147.457031 309.296875 139.855469 316.796875 131.15625 C 317.296875 130.558594 318.195312 131.457031 317.695312 132.058594 C 317.496094 132.355469 317.296875 132.558594 316.996094 132.855469 C 316.996094 132.957031 316.996094 133.058594 316.996094 133.257812 C 310.695312 145.15625 307.398438 159.457031 298.597656 169.757812 C 301.796875 167.058594 304.996094 164.355469 308.597656 162.15625 C 314.597656 158.457031 322.398438 157.957031 329.296875 158.457031 C 341.695312 159.355469 346.496094 172.355469 342.296875 183.058594 C 342.097656 183.65625 341.195312 183.355469 341.398438 182.757812 C 343.898438 175.558594 341.796875 164.355469 333.597656 161.855469 C 328.597656 160.257812 320.097656 161.15625 315.296875 162.558594 C 306.898438 165.058594 302.097656 173.855469 294.195312 176.757812 C 295.097656 178.058594 295.398438 179.65625 295.695312 181.457031 C 295.695312 181.558594 295.695312 181.558594 295.796875 181.65625 C 300.496094 179.457031 303.898438 175.257812 308.597656 172.855469 C 312.695312 170.757812 316.996094 169.957031 321.597656 170.058594 C 322.195312 170.058594 322.195312 170.855469 321.597656 170.957031 C 314.796875 171.257812 308.898438 173.65625 303.796875 178.15625 C 301.296875 180.355469 299.296875 182.15625 296.496094 183.257812 C 296.796875 183.757812 297.195312 184.15625 297.597656 184.65625 C 304.796875 183.257812 311.296875 177.757812 318.898438 179.957031 C 319.496094 180.15625 319.195312 180.957031 318.695312 180.855469 C 311.296875 179.058594 305.398438 185.65625 298.597656 186.65625 C 298.796875 187.257812 298.796875 187.957031 298.796875 188.65625 C 303.796875 188.757812 308.597656 191.355469 313.597656 192.15625 C 322.496094 193.65625 333.898438 192.855469 339.695312 185.15625 C 340.195312 184.457031 341.398438 185.058594 340.898438 185.855469 C 337.195312 191.855469 330.398438 194.058594 323.796875 195.058594 C 320.195312 195.558594 316.597656 195.757812 312.996094 195.257812 C 308.996094 194.65625 305.398438 193.058594 301.597656 192.257812 C 312.398438 196.558594 321.296875 206.855469 325.296875 217.15625 C 325.496094 217.757812 324.695312 217.957031 324.398438 217.558594 C 324.496094 217.957031 323.898438 218.257812 323.597656 217.957031 C 317.097656 210.855469 307.496094 210.957031 299.398438 207.15625 C 297.796875 206.457031 296.496094 205.355469 295.398438 204.15625 C 297.996094 210.855469 300.597656 217.757812 301.996094 224.558594 C 303.097656 229.757812 302.695312 234.957031 298.597656 238.65625 C 299.097656 239.15625 299.597656 239.757812 300.097656 240.355469 C 300.496094 240.855469 299.597656 241.457031 299.195312 241.058594 C 287.496094 227.355469 266.097656 236.355469 254.195312 245.457031 C 248.097656 250.15625 243.296875 255.757812 239.097656 262.058594 C 236.097656 266.558594 233.195312 271.359375 228.898438 274.65625 C 227.695312 275.558594 225.898438 273.757812 226.796875 272.558594 C 236.898438 258.957031 245.398438 244.855469 261.195312 237.15625 C 261.898438 236.855469 262.597656 236.457031 263.398438 236.15625 C 262.496094 230.65625 261.796875 225.15625 264.695312 220.355469 C 258.597656 226.757812 251.796875 233.257812 244.695312 238.457031 C 244.496094 238.65625 244.195312 238.558594 244.097656 238.355469 C 243.597656 238.257812 243.296875 237.65625 243.695312 237.15625 C 245.195312 235.558594 246.496094 233.757812 247.695312 231.855469 C 247.496094 231.65625 247.398438 231.355469 247.597656 231.058594 C 248.496094 229.65625 249.398438 228.355469 250.296875 226.957031 C 254.996094 216.957031 257.996094 205.15625 266.695312 199.058594 C 265.398438 199.355469 264.195312 199.757812 262.996094 200.457031 C 260.996094 201.558594 259.296875 203.058594 257.496094 204.355469 C 253.996094 206.957031 250.496094 208.457031 246.195312 208.355469 C 246.597656 209.558594 246.898438 210.855469 246.996094 212.058594 C 248.296875 221.558594 245.695312 231.855469 241.996094 240.558594 C 238.195312 249.558594 230.296875 257.15625 228.496094 266.957031 C 228.195312 268.457031 225.597656 268.15625 225.796875 266.558594 C 226.496094 260.257812 229.996094 255.558594 233.398438 250.359375 C 237.898438 243.457031 241.296875 235.957031 243.195312 227.855469 C 245.496094 217.757812 245.597656 208.058594 238.796875 199.558594 C 236.398438 196.558594 233.398438 193.15625 230.195312 191.15625 C 227.296875 189.355469 224.398438 188.855469 221.597656 189.15625 C 221.796875 189.15625 221.996094 189.355469 222.097656 189.65625 C 224.398438 195.65625 224.398438 202.058594 224.296875 208.355469 C 224.296875 209.058594 223.296875 209.058594 223.296875 208.355469 C 223.097656 202.058594 222.796875 196.058594 220.796875 190.058594 C 220.695312 189.855469 220.796875 189.65625 220.796875 189.558594 C 220.597656 189.855469 220.296875 189.957031 219.898438 189.957031 C 219.398438 189.957031 218.996094 189.855469 218.496094 189.855469 C 218.097656 189.957031 217.597656 190.058594 217.195312 190.257812 C 218.097656 192.15625 217.996094 194.757812 217.898438 196.558594 C 217.796875 197.15625 216.996094 197.15625 216.996094 196.558594 C 216.996094 195.15625 216.796875 193.757812 216.398438 192.457031 C 216.195312 191.855469 215.996094 191.355469 215.695312 190.757812 C 214.996094 191.058594 214.195312 191.257812 213.496094 191.558594 C 212.597656 191.855469 212.296875 190.558594 213.097656 190.15625 C 213.796875 189.855469 214.597656 189.65625 215.296875 189.355469 L 215.296875 189.257812 C 199.296875 185.558594 193.597656 167.855469 190.898438 152.957031 Z M 100.195312 458.457031 C 97.597656 455.257812 95.996094 451.457031 96.597656 447.058594 C 96.796875 445.558594 97.195312 443.957031 97.597656 442.457031 C 91.796875 451.65625 86.195312 460.957031 84.796875 472.257812 C 84.695312 472.957031 83.597656 473.058594 83.597656 472.257812 C 83.398438 464.457031 86.597656 457.257812 90.398438 450.558594 C 93.597656 444.757812 96.898438 438.859375 100.496094 433.058594 C 95.597656 438.257812 90.097656 443.058594 84.695312 447.15625 C 84.796875 447.359375 84.796875 447.65625 84.695312 447.859375 C 82.296875 452.457031 79.398438 456.058594 77.695312 461.15625 C 76.195312 465.65625 75.296875 470.457031 75.195312 475.15625 C 75.097656 481.65625 77.195312 488.058594 75.195312 494.15625 C 86.195312 483.957031 98.695312 474.457031 100.195312 458.457031 Z M 49.296875 468.859375 C 45.898438 472.058594 43.296875 475.859375 39.898438 479.15625 C 35.398438 483.558594 30.195312 487.15625 24.996094 490.65625 C 24.496094 490.957031 23.898438 490.15625 24.296875 489.757812 C 30.097656 485.15625 35.898438 480.457031 40.695312 474.757812 C 43.097656 471.859375 45.195312 468.558594 48.097656 466.058594 C 38.097656 468.058594 30.496094 473.15625 23.898438 481.859375 C 18.695312 488.65625 12.597656 493.058594 5.195312 496.859375 C 15.398438 497.558594 25.097656 495.359375 33.695312 489.058594 C 41.398438 483.558594 45.097656 476.457031 49.296875 468.859375 Z M 50.796875 450.15625 C 48.097656 450.457031 45.296875 450.359375 42.496094 450.058594 C 34.195312 449.058594 25.898438 447.257812 17.597656 445.859375 C 16.796875 445.757812 16.996094 444.359375 17.796875 444.457031 C 29.996094 445.757812 44.296875 449.457031 56.195312 445.457031 C 49.898438 445.359375 44.195312 443.257812 38.097656 440.757812 C 26.898438 436.058594 17.195312 438.957031 7.996094 445.558594 C 16.796875 447.859375 22.398438 456.15625 32.296875 456.257812 C 39.398438 456.359375 45.296875 453.65625 50.796875 450.15625 Z M 57.898438 445.457031 C 57.796875 445.457031 57.695312 445.457031 57.597656 445.457031 L 57.695312 445.558594 C 57.796875 445.558594 57.898438 445.457031 57.898438 445.457031 Z M 113.496094 467.957031 C 109.898438 466.359375 105.796875 464.058594 102.597656 460.957031 C 101.496094 476.558594 84.796875 488.558594 73.898438 497.558594 C 73.195312 498.15625 72.195312 497.257812 72.695312 496.558594 C 72.597656 496.359375 72.496094 496.058594 72.695312 495.757812 C 76.796875 487.359375 72.398438 475.757812 73.695312 466.558594 C 74.398438 461.65625 75.996094 455.957031 78.898438 451.457031 C 71.296875 456.757812 62.996094 461.457031 54.496094 464.65625 C 54.496094 464.957031 54.296875 465.257812 53.898438 465.257812 C 53.796875 465.359375 53.695312 465.558594 53.496094 465.65625 C 53.398438 465.65625 53.398438 465.757812 53.398438 465.757812 C 49.496094 487.859375 22.195312 505.058594 0.796875 498.65625 C -0.601562 498.257812 -0.00390625 496.257812 1.398438 496.457031 C 1.496094 496.457031 1.597656 496.457031 1.796875 496.457031 C 1.898438 496.359375 1.996094 496.15625 2.195312 496.058594 C 7.898438 493.058594 13.695312 490.15625 18.398438 485.558594 C 22.398438 481.65625 25.195312 476.65625 29.496094 472.957031 C 35.496094 467.859375 43.097656 464.558594 50.898438 464.058594 C 51.398438 463.757812 51.996094 463.457031 52.597656 463.257812 C 53.097656 463.058594 53.496094 463.257812 53.695312 463.457031 C 64.195312 458.15625 73.996094 452.65625 83.195312 445.257812 C 78.898438 446.957031 74.398438 447.859375 70.097656 447.058594 C 67.597656 446.65625 65.097656 445.957031 62.695312 444.957031 C 62.695312 445.058594 62.597656 445.058594 62.597656 445.15625 C 54.695312 451.859375 45.195312 458.15625 34.597656 458.65625 C 29.695312 458.957031 25.097656 457.757812 20.996094 455.15625 C 16.097656 452.058594 11.695312 449.15625 6.496094 446.457031 C 6.097656 446.558594 5.695312 445.957031 5.898438 445.558594 C 9.496094 438.558594 19.496094 435.457031 26.796875 434.957031 C 31.496094 434.65625 35.597656 435.957031 39.796875 437.859375 C 45.796875 440.457031 50.996094 441.957031 57.097656 442.359375 C 52.898438 440.058594 49.195312 437.058594 46.398438 433.558594 C 45.898438 432.957031 46.695312 432.15625 47.296875 432.65625 C 53.695312 438.457031 64.097656 444.15625 72.996094 444.15625 C 81.097656 444.15625 91.597656 438.359375 95.898438 431.558594 C 98.796875 426.957031 100.597656 422.859375 104.996094 419.457031 C 112.097656 413.757812 113.496094 407.757812 116.296875 399.558594 C 116.695312 398.359375 118.597656 398.558594 118.597656 399.859375 C 118.296875 406.457031 116.296875 412.757812 112.097656 417.65625 C 109.398438 424.65625 104.996094 430.757812 101.898438 437.65625 C 99.195312 443.757812 97.796875 449.558594 101.597656 455.058594 C 101.996094 455.15625 102.496094 455.457031 102.496094 456.058594 C 102.496094 456.15625 102.496094 456.257812 102.496094 456.359375 C 102.597656 456.457031 102.695312 456.65625 102.796875 456.757812 C 106.097656 460.359375 110.796875 462.859375 115.296875 464.757812 C 117.296875 465.757812 115.597656 468.859375 113.496094 467.957031 Z M 192.097656 312.359375 C 185.496094 315.859375 178.195312 317.15625 171.996094 321.65625 C 164.996094 326.65625 159.097656 334.15625 156.996094 342.558594 C 156.996094 342.757812 156.695312 342.65625 156.796875 342.457031 C 158.695312 333.957031 162.296875 327.058594 168.996094 321.359375 C 174.898438 316.257812 183.695312 310.859375 191.695312 310.457031 C 192.597656 310.359375 192.996094 311.859375 192.097656 312.359375" fill="#a9852a"/></g></g></svg>