<?xml version="1.0" encoding="UTF-8"?><svg xmlns="http://www.w3.org/2000/svg" xmlns:xlink="http://www.w3.org/1999/xlink" fill="#000000" height="2074" preserveAspectRatio="xMidYMid meet" version="1" viewBox="218.2 202.2 2093.0 2074.0" width="2093" zoomAndPan="magnify"><g><g id="change1_1"><path d="M 1028.921875 314.929688 C 1516.769531 202.222656 1985.417969 524.78125 2075.796875 1035.246094 C 2166.179688 1545.707031 1844.050781 2050.769531 1356.210938 2163.480469 C 868.378906 2276.1875 399.574219 1953.867188 309.195312 1443.417969 C 218.816406 932.953125 541.09375 427.640625 1028.921875 314.929688" fill="#745e4d"/></g><path d="M 7428.287935 15486.30689 C 10950.297668 16299.993818 14333.698895 13971.286296 14986.188219 10285.992075 C 15638.705745 6600.726055 13313.100345 2954.433983 9791.147014 2140.718853 C 6269.250085 1327.031925 2884.720813 3654.019179 2232.231489 7339.200595 C 1579.742165 11024.494816 3906.419207 14672.59176 7428.287935 15486.30689 Z M 7428.287935 15486.30689" fill="none" stroke="#242226" stroke-miterlimit="10" stroke-width="8.88" transform="matrix(.13851 0 0 -.13851 0 2460)"/><g id="change1_2"><path d="M 1462.882812 327.195312 L 1607.332031 370.148438 C 1913.550781 461.226562 2157.625 724.648438 2220.222656 1078.210938 C 2310.605469 1588.671875 1988.484375 2093.730469 1500.648438 2206.441406 C 1350.628906 2241.101562 1202.417969 2234.621094 1066.449219 2194.179688 L 922.007812 2151.222656 C 1057.980469 2191.660156 1206.1875 2198.140625 1356.207031 2163.480469 C 1844.035156 2050.769531 2166.171875 1545.710938 2075.789062 1035.25 C 2013.191406 681.683594 1769.117188 418.273438 1462.882812 327.195312" fill="#745e4d"/></g><path d="M 10319.796921 15045.710469 L 11338.803085 14742.700875 C 13499.000256 14100.197083 15220.803499 12241.907252 15662.393963 9747.727152 C 16299.992725 6146.718811 14027.613664 2583.820897 10586.211686 1788.710054 C 9527.910171 1544.202585 8482.367245 1589.918565 7523.185911 1875.209428 L 6504.234859 2178.246579 C 7463.44375 1892.983272 8508.95912 1847.267292 9567.260635 2091.774761 C 13008.607501 2886.885604 15281.096787 6449.783517 14643.498025 10050.791859 C 14201.907561 12544.999515 12480.104317 14403.206677 10319.796921 15045.710469 Z M 10319.796921 15045.710469" fill="none" stroke="#242226" stroke-miterlimit="10" stroke-width="8.677" transform="matrix(.14175 0 0 -.14175 0 2460)"/><g id="change2_1"><path d="M 1004.441406 1533.449219 L 862.558594 1533.449219 L 633.523438 1135.160156 L 630.28125 1135.160156 C 634.839844 1205.511719 637.125 1255.679688 637.125 1285.691406 L 637.125 1533.449219 L 537.371094 1533.449219 L 537.371094 1006.960938 L 678.179688 1006.960938 L 906.847656 1401.289062 L 909.367188 1401.289062 C 905.769531 1332.871094 903.96875 1284.488281 903.96875 1256.160156 L 903.96875 1006.960938 L 1004.441406 1006.960938 L 1004.441406 1533.449219" fill="#ddd0be"/></g><path d="M 10044.414062 9265.507812 L 8625.585938 9265.507812 L 6335.234375 13248.398438 L 6302.8125 13248.398438 C 6348.398438 12544.882812 6371.25 12043.203125 6371.25 11743.085938 L 6371.25 9265.507812 L 5373.710938 9265.507812 L 5373.710938 14530.390625 L 6781.796875 14530.390625 L 9068.476562 10587.109375 L 9093.671875 10587.109375 C 9057.695312 11271.289062 9039.6875 11755.117188 9039.6875 12038.398438 L 9039.6875 14530.390625 L 10044.414062 14530.390625 Z M 10044.414062 9265.507812" fill="none" stroke="#242226" stroke-linecap="round" stroke-linejoin="round" stroke-miterlimit="10" stroke-width="12.3" transform="matrix(.1 0 0 -.1 0 2460)"/><g id="change2_2"><path d="M 1246.800781 1533.449219 L 1136.960938 1533.449219 L 1136.960938 1006.960938 L 1438.738281 1006.960938 L 1438.738281 1098.429688 L 1246.800781 1098.429688 L 1246.800781 1234.199219 L 1425.410156 1234.199219 L 1425.410156 1325.300781 L 1246.800781 1325.300781 L 1246.800781 1533.449219" fill="#ddd0be"/></g><path d="M 12468.007812 9265.507812 L 11369.609375 9265.507812 L 11369.609375 14530.390625 L 14387.382812 14530.390625 L 14387.382812 13615.703125 L 12468.007812 13615.703125 L 12468.007812 12258.007812 L 14254.101562 12258.007812 L 14254.101562 11346.992188 L 12468.007812 11346.992188 Z M 12468.007812 9265.507812" fill="none" stroke="#242226" stroke-linecap="round" stroke-linejoin="round" stroke-miterlimit="10" stroke-width="12.3" transform="matrix(.1 0 0 -.1 0 2460)"/><g id="change2_3"><path d="M 1744.835938 1533.449219 L 1633.203125 1533.449219 L 1633.203125 1099.867188 L 1490.226562 1099.867188 L 1490.226562 1006.960938 L 1887.800781 1006.960938 L 1887.800781 1099.867188 L 1744.835938 1099.867188 L 1744.835938 1533.449219" fill="#ddd0be"/></g><path d="M 15065.586253 8000.196702 L 14101.705507 8000.196702 L 14101.705507 11743.911139 L 12867.190738 11743.911139 L 12867.190738 12546.099524 L 16299.999838 12546.099524 L 16299.999838 11743.911139 L 15065.586253 11743.911139 Z M 15065.586253 8000.196702" fill="none" stroke="#242226" stroke-linecap="round" stroke-linejoin="round" stroke-miterlimit="10" stroke-width="10.62" transform="matrix(.11582 0 0 -.11582 0 2460)"/></g></svg>