<?xml version="1.0" encoding="UTF-8"?><svg xmlns="http://www.w3.org/2000/svg" xmlns:xlink="http://www.w3.org/1999/xlink" fill="#000000" height="380.9" preserveAspectRatio="xMidYMid meet" version="1" viewBox="25.7 22.0 373.7 380.9" width="373.7" zoomAndPan="magnify"><g id="change1_1"><path d="M 333.5625 41.585938 C 334.183594 42.703125 334.675781 43.921875 335.09375 45.203125 C 334.570312 44.003906 334.066406 42.796875 333.5625 41.585938 Z M 384.46875 117.007812 C 384.851562 117.042969 385.246094 117.117188 385.632812 117.265625 L 386.003906 117.527344 L 386.015625 117.535156 L 386 117.554688 C 385.984375 117.960938 384.863281 119.003906 384.1875 119.226562 L 383.9375 119.300781 C 383.863281 119.207031 383.773438 119.132812 383.714844 119.035156 C 383.648438 118.9375 383.601562 118.835938 383.539062 118.738281 C 383.710938 118.125 384.046875 117.53125 384.46875 117.007812 Z M 380.15625 137.84375 C 380.492188 137.222656 381.089844 136.777344 381.699219 136.421875 C 382.054688 136.675781 382.339844 136.988281 382.453125 137.433594 C 382.714844 138.488281 381.652344 138.851562 380.855469 138.65625 C 380.125 138.472656 379.941406 138.234375 380.15625 137.84375 Z M 304.859375 152.992188 C 304.925781 153.070312 305.074219 153.21875 305.1875 153.371094 C 305.472656 153.746094 305.644531 154.234375 305.832031 154.664062 C 305.945312 154.929688 305.921875 155.148438 305.84375 155.339844 L 305.757812 155.308594 C 305.359375 155.28125 305.023438 155.296875 304.636719 155.382812 C 304.535156 155.410156 304.265625 155.457031 304.078125 155.492188 L 304.066406 155.460938 C 303.964844 154.800781 304.308594 153.695312 304.859375 152.992188 Z M 306.335938 165.296875 C 306.765625 165.023438 307.253906 164.898438 307.6875 165.011719 C 307.28125 165.226562 306.972656 165.652344 307.015625 166.253906 C 307.046875 166.75 307.027344 167.367188 306.9375 167.597656 L 306.882812 167.589844 C 306.5 167.496094 306.144531 167.289062 305.84375 167.035156 C 305.664062 166.375 305.890625 165.757812 306.335938 165.296875 Z M 302.453125 175.527344 C 302.757812 175.375 303.082031 175.273438 303.414062 175.203125 C 303.8125 175.164062 304.1875 175.238281 304.519531 175.589844 C 305.296875 176.417969 305.421875 177.640625 305.175781 178.703125 C 303.765625 178.582031 302.773438 177.589844 302.488281 176.25 C 302.433594 175.996094 302.429688 175.757812 302.453125 175.527344 Z M 195.351562 181.253906 C 195.210938 181.136719 195.074219 181.015625 194.914062 180.917969 C 194.75 180.816406 194.578125 180.738281 194.410156 180.652344 C 194.835938 180.667969 195.261719 180.683594 195.675781 180.699219 C 195.570312 180.886719 195.457031 181.066406 195.351562 181.253906 Z M 97.683594 279.195312 C 98.210938 277.785156 98.792969 276.425781 99.421875 275.097656 C 100.105469 275.203125 100.820312 275.082031 101.460938 274.664062 C 102.378906 274.066406 103.214844 273.359375 104.003906 272.59375 C 102.910156 274.167969 102.011719 275.890625 101.34375 277.753906 C 100.40625 277.890625 100.230469 278.902344 100.65625 279.542969 C 99.410156 280.5 98.078125 281.375 96.699219 282.097656 C 97.011719 281.117188 97.335938 280.144531 97.683594 279.195312 Z M 141.464844 252.101562 C 141.929688 252.195312 142.382812 252.445312 142.808594 252.640625 C 143.066406 252.757812 143.195312 252.941406 143.265625 253.132812 L 143.175781 253.171875 C 142.863281 253.421875 142.628906 253.648438 142.394531 253.980469 C 142.335938 254.0625 142.171875 254.277344 142.050781 254.425781 L 142.023438 254.410156 C 141.503906 253.984375 141.023438 252.929688 140.96875 252.042969 C 141.070312 252.050781 141.277344 252.0625 141.464844 252.101562 Z M 151.085938 259.125 C 150.917969 259.554688 150.976562 260.082031 151.40625 260.5 C 151.761719 260.847656 152.15625 261.320312 152.242188 261.554688 L 152.214844 261.574219 C 151.847656 261.769531 151.445312 261.851562 151.054688 261.859375 C 150.476562 261.492188 150.234375 260.882812 150.269531 260.238281 C 150.398438 259.753906 150.683594 259.335938 151.085938 259.125 Z M 154.679688 269.574219 C 154.949219 269.285156 155.273438 269.085938 155.757812 269.125 C 156.886719 269.230469 157.796875 270.066406 158.316406 271.015625 C 157.1875 271.863281 155.789062 271.78125 154.679688 270.972656 C 154.472656 270.820312 154.3125 270.644531 154.179688 270.457031 C 154.304688 270.140625 154.476562 269.851562 154.679688 269.574219 Z M 46.328125 235.9375 C 45.941406 235.230469 46.355469 234.253906 46.742188 233.585938 C 47.609375 232.992188 49.035156 232.523438 49.382812 233.519531 C 49.453125 233.710938 49.46875 233.902344 49.492188 234.09375 C 49.257812 235.320312 48.007812 236.695312 46.789062 236.886719 C 46.648438 236.539062 46.46875 236.203125 46.328125 235.9375 Z M 99.359375 123.578125 C 99.652344 123.136719 100.054688 122.734375 100.5 122.515625 C 100.601562 123.351562 100.046875 124.492188 99.585938 125.007812 L 99.359375 125.222656 C 99.296875 124.675781 99.292969 124.128906 99.359375 123.578125 Z M 108.34375 132.019531 C 108.488281 131.8125 108.632812 131.640625 108.722656 131.546875 C 108.964844 131.304688 109.265625 131.078125 109.59375 130.878906 C 110.3125 130.980469 111.347656 131.601562 111.074219 132.164062 C 110.695312 132.925781 109.53125 133.890625 108.566406 133.882812 C 108.492188 133.773438 108.417969 133.628906 108.359375 133.394531 C 108.257812 132.988281 108.246094 132.484375 108.34375 132.019531 Z M 173.105469 106.832031 L 173.097656 106.914062 L 173.074219 106.851562 Z M 189.589844 110.066406 C 191.832031 108.359375 193.96875 106.398438 195.992188 104.339844 C 194.179688 106.609375 192.019531 108.507812 189.589844 110.066406 Z M 172.75 149.734375 L 172.855469 149.808594 L 172.785156 149.847656 Z M 245.605469 106.703125 C 245.90625 106.722656 246.21875 106.71875 246.535156 106.664062 C 246.148438 106.777344 245.773438 106.90625 245.382812 107.003906 C 245.457031 106.902344 245.527344 106.800781 245.605469 106.703125 Z M 398.144531 43.105469 C 396.496094 43.117188 394.777344 43.191406 393.019531 43.332031 C 385.972656 41.230469 377.457031 44.671875 370.445312 49.277344 C 368.105469 50.472656 365.925781 51.867188 363.972656 53.480469 C 363.785156 53.078125 363.679688 52.609375 363.683594 52.035156 C 363.691406 50.316406 363.875 48.613281 364.15625 46.921875 C 365.476562 43.5625 366.394531 39.960938 366.804688 36.355469 C 367.605469 33.503906 368.363281 30.648438 368.773438 27.757812 L 368.78125 27.742188 C 368.820312 27.441406 368.867188 27.144531 368.902344 26.839844 C 369.164062 24.574219 367.507812 23.550781 365.75 23.628906 C 365.695312 23.453125 365.652344 23.277344 365.59375 23.109375 C 365.355469 22.425781 364.71875 22.035156 364.015625 22.363281 C 359.070312 24.644531 358.671875 31.132812 358.421875 35.871094 C 358.367188 36.957031 358.28125 38.082031 358.1875 39.222656 C 357.421875 42.292969 356.683594 45.378906 355.847656 48.441406 C 352.375 43.628906 347.566406 39.5 342.398438 36.320312 C 337.773438 33.210938 332.640625 30.847656 327.285156 29.414062 C 326.367188 29.171875 325.363281 30.136719 325.90625 31.058594 C 326.3125 31.742188 326.757812 32.609375 327.234375 33.601562 C 326.957031 34.832031 327.328125 36.164062 328.695312 36.835938 L 328.734375 36.855469 C 331.078125 42.101562 334.058594 49.164062 337.585938 55.132812 C 338.351562 57.898438 339.355469 60.507812 341.074219 62.605469 C 342.714844 64.605469 344.835938 65.589844 347.09375 65.828125 C 349.277344 66.980469 351.585938 67.273438 354.003906 66.3125 C 350.425781 72.597656 347.714844 79.535156 344.136719 85.628906 C 341.054688 90.871094 337.019531 95.480469 332.6875 99.722656 C 331.113281 101.265625 329.503906 102.535156 327.839844 103.644531 C 310.929688 105.109375 294.023438 107.960938 277.285156 112.238281 C 277.546875 111.847656 277.796875 111.46875 278.039062 111.105469 C 279.550781 108.800781 282.242188 104.621094 280.605469 101.792969 C 280.324219 101.300781 279.722656 101.074219 279.203125 101.34375 C 274.378906 103.859375 272.027344 109.472656 269.765625 114.257812 C 254.238281 118.644531 238.882812 124.269531 223.820312 131.1875 C 230.3125 124.929688 236.472656 118.21875 242.117188 111.210938 C 242.683594 110.507812 243.265625 109.761719 243.84375 109.019531 C 247.351562 109.316406 250.914062 107.695312 254.0625 105.398438 C 258.417969 103.730469 262.25 100.328125 264.214844 96.261719 C 264.722656 95.214844 264.667969 94.226562 264.304688 93.40625 C 264.355469 93.304688 264.402344 93.199219 264.453125 93.09375 C 269.027344 87.785156 271.679688 81.339844 270.121094 74.25 C 269.953125 73.480469 269.382812 72.789062 268.65625 72.363281 C 268.644531 71.871094 268.632812 71.382812 268.605469 70.902344 C 268.566406 70.265625 267.9375 69.703125 267.296875 70.066406 C 261.386719 73.382812 254.863281 76.867188 249.570312 81.449219 C 241.070312 88.039062 234.847656 96.992188 240.65625 106.691406 L 240.816406 106.886719 C 241.085938 107.507812 241.378906 108.125 241.734375 108.722656 C 241.347656 109.226562 240.972656 109.738281 240.578125 110.238281 C 234.605469 117.855469 227.5625 124.546875 221.488281 132.058594 C 221.414062 132.152344 221.394531 132.242188 221.398438 132.339844 C 217.570312 134.128906 213.769531 135.984375 209.984375 137.949219 C 193.628906 146.4375 178.34375 156.191406 164.152344 166.988281 C 166.847656 162.679688 168.863281 157.816406 170.488281 152.972656 C 173.027344 152.523438 175.457031 151.085938 177.644531 149.171875 C 181.109375 146.976562 184.785156 142.265625 186.246094 140.828125 C 188.089844 139.015625 186.8125 135.320312 184.046875 135.515625 C 180.332031 135.78125 176.425781 137.925781 175.636719 141.710938 C 174.511719 143.019531 173.503906 144.480469 172.542969 145.980469 L 172.371094 146.199219 C 174.300781 137.214844 174.316406 127.867188 176.503906 118.933594 C 176.929688 118.09375 177.34375 117.183594 177.746094 116.175781 C 177.863281 115.882812 177.894531 115.566406 177.894531 115.242188 C 178.28125 115.410156 178.734375 115.46875 179.230469 115.351562 C 191.0625 115.957031 198.683594 105.332031 204.117188 95.339844 C 204.574219 94.816406 205.019531 94.304688 205.457031 93.808594 C 206.160156 93.011719 206.398438 92.066406 206.296875 91.183594 C 206.773438 90.238281 207.238281 89.3125 207.683594 88.425781 C 208.054688 87.6875 207.339844 86.707031 206.511719 87.015625 C 205.421875 87.417969 204.308594 87.859375 203.183594 88.34375 C 202.910156 88.34375 202.628906 88.363281 202.332031 88.4375 C 192.804688 90.765625 181.265625 99.058594 177.300781 108.210938 C 177.046875 108.796875 176.9375 109.421875 176.964844 110.03125 C 176.601562 110.742188 176.269531 111.46875 175.972656 112.207031 C 175.777344 112.113281 175.585938 112.039062 175.378906 112 C 175.1875 111.96875 175.003906 111.914062 174.8125 111.878906 C 174.730469 111.652344 174.652344 111.429688 174.566406 111.207031 C 175.433594 107.988281 175.871094 104.425781 175.855469 100.800781 C 176.46875 93.664062 176.253906 83.652344 170.636719 79.359375 C 170.117188 78.964844 169.441406 78.863281 168.773438 78.960938 C 168.335938 78.667969 167.796875 78.664062 167.359375 79.089844 C 165.148438 81.273438 164.796875 84.242188 165.152344 87.230469 C 165.242188 88.90625 165.566406 90.601562 166.023438 92.335938 C 166.621094 94.613281 167.453125 96.828125 168.191406 99.066406 C 168.464844 100.078125 168.746094 101.09375 169.042969 102.109375 L 169.070312 102.226562 L 169.039062 102.410156 C 168.828125 103.726562 169.109375 105.222656 170.296875 106.003906 C 170.824219 107.476562 171.410156 108.910156 172.097656 110.253906 C 162.253906 101.289062 148.410156 97.066406 135.210938 98.195312 C 134.265625 98.273438 133.644531 99.527344 134.472656 100.203125 C 139.214844 104.113281 149.503906 116.964844 159.0625 122.84375 C 163.910156 126.316406 168.695312 127.730469 172.824219 124.03125 C 171.632812 131.097656 171.425781 138.46875 170.136719 145.34375 C 169.019531 151.328125 166.789062 157.03125 164.152344 162.492188 C 161.671875 167.640625 158.425781 171.179688 154.339844 174.777344 C 110.144531 211.289062 77.679688 258.507812 58.8125 310.550781 C 58.574219 309.429688 58.347656 308.308594 58.15625 307.171875 C 58.117188 306.933594 57.988281 306.765625 57.828125 306.644531 C 58.328125 300.886719 60.472656 295.035156 59.785156 289.375 C 52.84375 231.984375 101.722656 172.648438 115.699219 152.945312 C 116.339844 153.847656 117.308594 154.488281 118.636719 154.570312 C 121.101562 154.71875 122.648438 152.726562 123.1875 150.589844 C 123.515625 150.234375 123.808594 149.820312 123.988281 149.3125 C 124.476562 148 124.089844 146.359375 122.953125 145.515625 C 122.792969 145.394531 122.621094 145.300781 122.449219 145.222656 C 122.023438 144.433594 121.453125 143.730469 120.769531 143.175781 C 120.167969 142.6875 119.253906 142.910156 118.71875 143.355469 C 118.0625 143.902344 117.503906 144.5625 117.078125 145.273438 C 114.925781 146.585938 114.269531 149.761719 115.210938 152.042969 C 104.34375 165.476562 94.144531 179.582031 83.796875 193.402344 C 83.472656 193.839844 83.175781 194.277344 82.851562 194.707031 C 83.625 190.617188 83.832031 186.4375 84.84375 182.355469 C 86.394531 176.132812 88.726562 170.128906 91.09375 164.1875 C 91.355469 163.523438 91.628906 162.867188 91.898438 162.210938 C 94.804688 162.179688 97.605469 161.375 99.988281 159.585938 C 100.9375 158.871094 102.191406 157.78125 103.144531 156.53125 C 103.828125 156.902344 104.695312 156.933594 105.585938 156.617188 C 107.339844 155.980469 108.800781 154.527344 109.574219 152.839844 C 110.269531 151.316406 110.027344 149.71875 108.925781 148.59375 C 108.570312 147.597656 107.863281 146.78125 106.699219 146.476562 C 105.351562 146.117188 104.273438 146.542969 103.523438 147.332031 C 103.417969 147.378906 103.308594 147.414062 103.210938 147.46875 C 102.46875 147.871094 102.015625 148.507812 101.746094 149.242188 C 100.683594 150.851562 100.417969 152.945312 101.558594 154.546875 C 100.882812 155.664062 99.988281 156.632812 99.023438 157.503906 C 97.273438 159.078125 94.871094 160.34375 92.46875 160.789062 C 96.082031 152.003906 100.050781 143.632812 105.6875 135.964844 C 108.917969 140.394531 116.574219 136.617188 115.9375 130.898438 C 115.535156 127.363281 112.585938 126.839844 109.824219 127.753906 C 108.074219 127.59375 106.289062 128.289062 105.410156 130.308594 C 105.191406 130.820312 105.066406 131.375 104.996094 131.945312 C 104.785156 132.613281 104.722656 133.320312 104.839844 133.996094 C 104.8125 134.140625 104.8125 134.292969 104.871094 134.464844 L 104.960938 134.644531 C 101.070312 138.035156 98.199219 142.835938 95.828125 147.910156 C 95.867188 141.054688 99.136719 135.242188 101.019531 128.648438 C 104.101562 127.429688 106.371094 123.179688 103.640625 120.640625 C 103.503906 120.511719 103.355469 120.4375 103.21875 120.332031 C 102.644531 119.164062 101.578125 118.316406 99.898438 118.238281 C 96.886719 118.101562 95.757812 121.800781 95.980469 124.945312 C 95.898438 125.707031 96.015625 126.433594 96.363281 127.035156 C 96.765625 128.273438 97.433594 129.128906 98.320312 129.207031 L 98.546875 129.3125 C 98.675781 129.355469 98.808594 129.34375 98.9375 129.332031 C 95.582031 135.300781 92.660156 143.457031 94.917969 149.941406 C 93.078125 154.144531 91.53125 158.417969 89.996094 162.152344 C 85.84375 172.269531 80.699219 184.710938 81.949219 195.964844 C 72.949219 208.421875 65.917969 221.417969 61.195312 236.195312 C 56.671875 250.339844 54.636719 264.722656 54.15625 279.402344 C 51.355469 273.824219 48.925781 268.300781 47.714844 261.933594 C 46.308594 254.5625 47.191406 247.371094 47.894531 240.039062 C 48.617188 239.84375 49.3125 239.507812 49.925781 239.046875 C 51.664062 237.742188 52.976562 235.558594 52.949219 233.34375 C 52.910156 230.835938 50.742188 228.707031 48.203125 228.894531 C 46.011719 229.058594 44.3125 230.671875 43.441406 232.609375 C 43.316406 232.757812 43.199219 232.910156 43.097656 233.0625 C 41.847656 234.976562 42.128906 237.390625 43.707031 239.023438 C 44.503906 239.84375 45.484375 240.195312 46.480469 240.21875 C 44.023438 249.125 44.558594 259.234375 47.394531 268.496094 C 43.195312 266.34375 40.523438 263.414062 37.945312 259.453125 C 36.539062 257.289062 35.484375 254.785156 34.230469 252.453125 C 34.394531 252.359375 34.554688 252.265625 34.710938 252.148438 C 37.257812 250.25 36.910156 246.46875 34.378906 244.828125 C 34.226562 244.722656 34.058594 244.660156 33.898438 244.582031 C 33.808594 244.503906 33.742188 244.417969 33.648438 244.339844 C 31.382812 242.5625 28.398438 243.371094 27.238281 245.910156 C 27.125 246.160156 27.046875 246.425781 26.988281 246.695312 C 26.558594 247.394531 26.328125 248.210938 26.296875 249.039062 C 25.699219 250.53125 26.769531 252.128906 28.300781 252.828125 C 28.398438 252.871094 28.484375 252.894531 28.574219 252.929688 C 28.71875 252.996094 28.851562 253.042969 28.996094 253.085938 L 29.21875 253.152344 C 29.40625 253.203125 29.585938 253.253906 29.773438 253.28125 C 30.496094 253.40625 31.230469 253.402344 31.957031 253.289062 C 33.371094 256.128906 35.347656 258.914062 37.050781 261.28125 C 39.3125 264.421875 42.878906 269.398438 47.246094 269.40625 C 47.398438 269.40625 47.515625 269.316406 47.601562 269.203125 C 49.167969 274.097656 51.355469 278.738281 54.074219 282.800781 C 54.050781 284.410156 54.023438 286.019531 54.03125 287.636719 C 54.085938 296.773438 54.597656 305.960938 54.03125 315.09375 C 53.789062 319.089844 53.367188 323.101562 53.320312 327.097656 C 51.496094 333.128906 49.835938 339.207031 48.375 345.335938 C 46.640625 357.621094 44.078125 369.820312 42.949219 382.199219 C 42.535156 386.714844 42.410156 391.25 42.472656 395.789062 C 43.421875 398.171875 44.355469 400.558594 45.277344 402.957031 C 46.414062 380.652344 49.976562 358.601562 55.78125 337.167969 C 59.632812 331.507812 63.640625 326.011719 67.953125 320.765625 C 68.253906 320.945312 68.582031 321.125 68.96875 321.296875 C 72.085938 322.617188 76.523438 321.8125 78.824219 319.320312 C 79.558594 318.519531 78.878906 317.378906 77.972656 317.164062 C 75.785156 316.648438 73.648438 316.269531 71.566406 316.523438 C 74.832031 312.804688 78.261719 309.222656 81.964844 305.835938 C 86.933594 301.28125 92.21875 297.277344 97.703125 293.558594 C 99.46875 295.949219 101.550781 298.625 104.171875 300.070312 C 106.304688 301.242188 109.605469 301.285156 110.40625 298.511719 C 111.039062 296.304688 107.679688 294.425781 106.230469 293.597656 C 105.015625 292.898438 103.710938 292.363281 102.386719 291.953125 C 101.75 291.757812 101.136719 291.707031 100.523438 291.660156 C 107.035156 287.402344 113.800781 283.511719 120.632812 279.621094 C 121.914062 279.382812 123.21875 279.570312 124.46875 280.046875 C 124.105469 280.835938 124.066406 281.773438 124.492188 282.667969 C 124.480469 284.132812 125.175781 285.613281 125.8125 286.914062 C 125.898438 287.097656 126.011719 287.273438 126.109375 287.453125 C 126.167969 287.558594 126.226562 287.667969 126.285156 287.769531 C 127.203125 289.375 128.382812 290.847656 129.609375 292.210938 C 130.609375 293.320312 132.421875 293.464844 133.664062 292.734375 C 135.085938 291.902344 135.40625 290.472656 135.199219 288.960938 C 134.6875 285.21875 132.078125 277.925781 127.332031 278.132812 C 126.453125 278.171875 125.6875 278.542969 125.132812 279.097656 C 123.902344 278.714844 122.605469 278.582031 121.273438 278.800781 C 121.171875 278.625 120.960938 278.503906 120.742188 278.582031 C 120.472656 278.6875 120.214844 278.800781 119.949219 278.90625 C 120.15625 278.625 120.355469 278.355469 120.5625 278.074219 C 122.070312 276.710938 123.3125 274.992188 124.339844 273.078125 C 124.535156 272.828125 124.742188 272.585938 124.941406 272.339844 L 125.117188 272.394531 C 133.386719 271.882812 142.46875 271.886719 150.714844 269.746094 L 150.714844 269.761719 C 150.671875 270.296875 150.691406 270.847656 150.769531 271.398438 C 150.625 274.621094 152.890625 277.628906 156.730469 277.492188 C 158.269531 277.433594 159.71875 276.628906 160.726562 275.46875 C 162.773438 273.941406 164.050781 271.398438 163.109375 268.683594 C 162.042969 265.59375 157.824219 263.792969 154.785156 264.472656 C 152.996094 264.871094 151.597656 266.164062 151.003906 267.792969 C 142.492188 269.125 133.988281 270.402344 125.464844 271.695312 C 126.722656 270.15625 127.996094 268.644531 129.316406 267.179688 C 134.882812 264.894531 140.71875 263.230469 146.242188 260.867188 C 146.351562 262.320312 147.1875 263.457031 148.355469 264.136719 C 148.777344 264.550781 149.304688 264.878906 149.96875 265.0625 C 150.984375 265.351562 152.179688 265.199219 153.179688 264.703125 C 158.140625 263.269531 156.78125 255.285156 151.496094 255.390625 C 148.894531 255.441406 146.6875 257.214844 146.285156 259.703125 C 140.816406 261.195312 135.539062 263.574219 130.402344 265.984375 C 133.164062 263.011719 136.125 260.203125 139.359375 257.546875 C 140.492188 258.628906 142.113281 259.167969 143.695312 258.929688 C 147.550781 258.367188 147.679688 253.515625 146.132812 250.847656 C 144.835938 248.613281 142.183594 248.246094 140.195312 249.1875 C 139.859375 249.253906 139.546875 249.351562 139.265625 249.519531 C 138.597656 249.90625 138.25 250.519531 138.101562 251.207031 C 137.78125 251.875 137.632812 252.648438 137.734375 253.523438 C 137.753906 253.675781 137.804688 253.804688 137.835938 253.945312 C 137.847656 254.589844 137.976562 255.246094 138.234375 255.902344 C 138.339844 256.164062 138.46875 256.410156 138.613281 256.644531 C 133.980469 259.453125 129.929688 263.613281 126.414062 268.144531 C 127.726562 264.121094 128.402344 259.765625 128.734375 255.945312 C 130.644531 256.144531 132.722656 255.269531 133.238281 253.40625 C 133.878906 251.152344 131.984375 248.304688 130.328125 246.976562 C 130.011719 246.710938 129.660156 246.539062 129.3125 246.433594 C 129.214844 246.1875 128.964844 246 128.675781 246.125 C 128.5625 246.175781 128.472656 246.25 128.363281 246.304688 C 127.242188 246.359375 126.296875 247.109375 126.152344 248.234375 C 124.851562 250.042969 124.4375 252.480469 125.847656 254.414062 C 126.339844 255.085938 127.0625 255.527344 127.867188 255.765625 C 126.652344 261.371094 125.855469 266.898438 123.617188 271.964844 C 121.984375 274.320312 120.492188 276.683594 119.128906 278.949219 L 119.085938 279.003906 L 119.085938 279.023438 C 119.019531 279.128906 118.949219 279.238281 118.882812 279.347656 C 109.550781 283.179688 100.6875 288.335938 92.460938 294.472656 C 94.105469 290.886719 95.179688 286.933594 96.378906 283.097656 C 98.675781 282.542969 100.6875 281.394531 102.597656 279.976562 L 102.675781 279.917969 C 108.8125 278.917969 113.492188 273.585938 112.285156 267.15625 C 112.117188 266.28125 111.210938 265.886719 110.460938 266.375 C 109.109375 267.257812 107.886719 268.257812 106.765625 269.351562 C 108.292969 267.171875 109.511719 264.753906 110.457031 262.378906 C 111.402344 260.011719 111.65625 257.464844 111.160156 254.972656 C 110.960938 253.964844 110.269531 252.640625 109.492188 251.933594 C 109.148438 251.597656 108.777344 251.285156 108.378906 251.003906 C 108.363281 251 105.851562 250.039062 107.132812 250.5625 C 105.84375 250.035156 104.398438 250.914062 103.710938 251.949219 C 103.3125 252.550781 103.027344 253.019531 102.820312 253.46875 C 102.59375 253.664062 102.351562 253.847656 102.144531 254.058594 C 100.699219 254.8125 99.675781 256.660156 99.089844 257.96875 C 97.207031 262.179688 96.648438 267.269531 96.566406 271.855469 C 96.546875 272.953125 97.148438 273.921875 98 274.515625 C 97.417969 275.890625 96.859375 277.265625 96.335938 278.597656 C 95.804688 279.945312 95.261719 281.332031 94.726562 282.746094 C 94.214844 278.785156 91.046875 272.957031 86.640625 273.101562 C 86.152344 273.121094 85.679688 273.609375 85.636719 274.089844 C 85.148438 279.117188 89.394531 283.28125 93.34375 285.714844 C 93.4375 285.773438 93.53125 285.804688 93.621094 285.832031 C 92.53125 288.996094 91.613281 292.242188 91.191406 295.425781 C 87.414062 298.304688 83.78125 301.40625 80.304688 304.664062 C 80.472656 304.085938 80.617188 303.503906 80.765625 302.976562 C 81.25 301.183594 82.28125 297.878906 81.023438 296.160156 C 79.511719 294.089844 77.175781 296.457031 76.464844 297.980469 C 75.265625 300.550781 75.796875 303.777344 76.546875 306.605469 C 76.484375 306.96875 76.40625 307.328125 76.367188 307.703125 C 76.34375 307.933594 76.398438 308.15625 76.503906 308.347656 C 74.074219 310.800781 71.730469 313.335938 69.484375 315.933594 C 70.113281 313.097656 70.214844 309.769531 68.464844 307.683594 C 67.917969 307.035156 67.085938 307.207031 66.675781 307.882812 C 65.007812 310.660156 65.617188 313.898438 66.292969 316.960938 C 66.292969 317.125 66.28125 317.285156 66.28125 317.449219 C 66.289062 318.21875 66.398438 318.835938 66.628906 319.34375 C 63.273438 323.464844 60.171875 327.746094 57.292969 332.132812 C 57.300781 331.992188 57.304688 331.851562 57.308594 331.722656 C 70.792969 285.265625 95.003906 241.980469 128.675781 205.933594 C 137.09375 204.289062 145.480469 202.160156 153.628906 199.535156 C 154.484375 199.257812 155.378906 198.953125 156.269531 198.652344 C 161.636719 202.867188 171.128906 201.214844 176.882812 199.214844 C 180.28125 198.027344 183.566406 196.050781 186.578125 193.621094 C 190.011719 191.304688 193.097656 188.683594 195.59375 186.164062 C 196.507812 185.238281 196.730469 183.941406 196.382812 182.8125 C 196.917969 182.007812 197.429688 181.199219 197.894531 180.394531 C 198.214844 179.835938 197.996094 179.019531 197.257812 178.96875 C 188.359375 178.351562 178.417969 177.375 169.765625 180.167969 C 163.929688 182.050781 158.347656 186.21875 155.925781 191.855469 C 155.4375 192.484375 155.1875 193.261719 155.160156 194.035156 C 154.890625 195.066406 154.71875 196.136719 154.671875 197.246094 C 154.070312 197.453125 153.476562 197.679688 152.871094 197.882812 C 145.523438 200.347656 137.9375 201.957031 130.472656 204.007812 C 145.796875 187.882812 163.050781 173.253906 182.085938 160.46875 C 189.570312 158.527344 197.058594 156.847656 204.628906 155.667969 C 204.722656 156.003906 204.855469 156.359375 205.035156 156.742188 C 206.476562 159.804688 210.316406 162.15625 213.695312 161.824219 C 214.78125 161.71875 215.03125 160.417969 214.496094 159.652344 C 213.207031 157.8125 211.863281 156.105469 210.144531 154.90625 C 215.054688 154.3125 219.992188 153.921875 225.019531 153.855469 C 231.757812 153.769531 238.367188 154.304688 244.933594 155.175781 C 244.660156 158.128906 244.433594 161.511719 245.425781 164.339844 C 246.238281 166.628906 248.675781 168.863281 251.121094 167.324219 C 253.0625 166.101562 251.804688 162.460938 251.273438 160.871094 C 250.828125 159.550781 250.21875 158.28125 249.492188 157.085938 C 249.152344 156.523438 248.730469 156.074219 248.304688 155.632812 C 255.996094 156.792969 263.636719 158.390625 271.324219 160.035156 C 272.542969 160.769531 273.460938 161.898438 274.078125 163.230469 L 274.0625 163.242188 C 273.460938 163.789062 272.910156 164.394531 272.414062 165.035156 C 272.175781 165.257812 271.980469 165.535156 271.835938 165.84375 C 271.773438 165.933594 271.714844 166.023438 271.65625 166.113281 C 271.140625 166.582031 270.679688 167.144531 270.222656 167.851562 C 269.117188 169.566406 268.65625 171.84375 268.839844 173.847656 C 269.019531 175.867188 270.546875 177.109375 272.214844 177.042969 C 272.628906 177.324219 273.128906 177.214844 273.476562 176.832031 L 273.601562 176.679688 C 273.871094 176.542969 274.144531 176.371094 274.398438 176.152344 C 277.046875 173.921875 278.1875 170.675781 278.597656 167.339844 C 278.761719 165.992188 277.535156 164.75 276.351562 164.394531 C 276.167969 164.339844 275.996094 164.316406 275.820312 164.28125 C 275.15625 162.484375 274.023438 160.914062 272.347656 159.851562 C 272.390625 159.652344 272.3125 159.417969 272.097656 159.335938 C 271.828125 159.234375 271.558594 159.148438 271.289062 159.054688 C 271.628906 158.976562 271.960938 158.90625 272.300781 158.835938 C 274.335938 158.824219 276.402344 158.363281 278.445312 157.617188 C 278.761719 157.566406 279.074219 157.519531 279.386719 157.472656 L 279.480469 157.628906 C 285.988281 162.75 292.769531 168.800781 300.339844 172.691406 L 300.335938 172.699219 C 299.945312 173.074219 299.597656 173.503906 299.292969 173.960938 C 297.039062 176.273438 296.726562 180.027344 299.679688 182.476562 C 300.863281 183.460938 302.488281 183.820312 304.007812 183.628906 C 306.558594 183.855469 309.195312 182.800781 310.304688 180.148438 C 311.566406 177.136719 309.613281 172.984375 306.894531 171.46875 C 305.296875 170.574219 303.386719 170.605469 301.859375 171.425781 C 294.617188 166.757812 287.429688 162.042969 280.203125 157.339844 C 282.164062 157.023438 284.128906 156.746094 286.089844 156.535156 C 291.761719 158.535156 297.226562 161.175781 302.917969 163.089844 C 302.03125 164.25 301.894531 165.65625 302.320312 166.941406 C 302.359375 167.53125 302.535156 168.121094 302.902344 168.703125 C 303.476562 169.589844 304.46875 170.273438 305.539062 170.570312 C 310.199219 172.804688 314.5 165.941406 310.488281 162.5 C 308.511719 160.8125 305.679688 160.660156 303.730469 162.25 C 298.648438 159.722656 293.136719 157.988281 287.691406 156.363281 C 291.734375 155.980469 295.808594 155.867188 299.996094 156.035156 C 300.117188 157.59375 300.972656 159.074219 302.304688 159.957031 C 305.558594 162.09375 308.882812 158.558594 309.507812 155.535156 C 310.023438 153.003906 308.289062 150.96875 306.183594 150.351562 C 305.890625 150.179688 305.589844 150.039062 305.269531 149.976562 C 304.511719 149.820312 303.84375 150.050781 303.273438 150.460938 C 302.59375 150.742188 301.964844 151.226562 301.460938 151.949219 C 301.371094 152.070312 301.324219 152.199219 301.257812 152.332031 C 300.839844 152.816406 300.492188 153.394531 300.246094 154.054688 C 300.148438 154.324219 300.085938 154.589844 300.035156 154.859375 C 294.710938 153.875 288.914062 154.277344 283.277344 155.316406 C 286.9375 153.1875 290.339844 150.394531 293.132812 147.761719 C 294.425781 149.183594 296.558594 149.910156 298.1875 148.867188 C 300.160156 147.609375 300.644531 144.226562 300.300781 142.128906 C 300.226562 141.71875 300.078125 141.359375 299.898438 141.046875 C 299.984375 140.800781 299.925781 140.492188 299.617188 140.394531 C 299.507812 140.355469 299.386719 140.351562 299.273438 140.324219 C 298.402344 139.613281 297.191406 139.546875 296.339844 140.285156 C 294.160156 140.773438 292.226562 142.316406 291.992188 144.695312 C 291.914062 145.527344 292.160156 146.335938 292.605469 147.050781 C 287.96875 150.425781 283.691406 154.019531 278.648438 156.304688 C 275.867188 156.976562 273.171875 157.753906 270.644531 158.53125 L 270.582031 158.542969 L 270.570312 158.558594 C 270.445312 158.59375 270.324219 158.628906 270.199219 158.667969 C 260.6875 155.3125 250.640625 153.265625 240.410156 152.363281 C 244.027344 150.785156 247.46875 148.546875 250.90625 146.488281 C 252.996094 147.597656 255.261719 148.082031 257.628906 148.296875 L 257.726562 148.308594 C 262.96875 151.640625 270.015625 150.777344 273.390625 145.175781 C 273.851562 144.417969 273.433594 143.511719 272.550781 143.382812 C 267.539062 142.625 262.613281 143.382812 258.171875 145.804688 C 257.386719 145.28125 256.578125 145.921875 256.46875 146.679688 C 254.902344 146.5625 253.324219 146.332031 251.8125 145.949219 C 252.699219 145.433594 253.589844 144.917969 254.484375 144.441406 C 257.183594 143.015625 259.933594 141.914062 262.726562 140.894531 C 265.398438 141.6875 267.992188 141.394531 270.414062 140.441406 C 270.6875 140.382812 270.9375 140.320312 271.140625 140.261719 C 275.238281 139.054688 279.265625 136.355469 281.40625 132.609375 C 282.207031 131.21875 281.882812 128.871094 280.242188 128.167969 C 276.546875 126.582031 272.910156 127.621094 269.433594 129.320312 C 266.824219 130.601562 263.554688 132.929688 262.5625 135.886719 C 262.121094 136.195312 261.808594 136.609375 261.6875 137.179688 C 260.980469 138.082031 260.328125 139.003906 259.726562 139.917969 C 259.636719 140.050781 259.644531 140.179688 259.6875 140.296875 C 257.6875 141.1875 255.738281 142.164062 253.875 143.097656 C 252.578125 143.75 251.253906 144.421875 249.914062 145.125 C 252.164062 141.824219 253.6875 135.367188 250.296875 132.546875 C 249.921875 132.230469 249.246094 132.28125 248.894531 132.609375 C 245.175781 136.035156 245.574219 141.976562 246.898438 146.417969 C 246.933594 146.523438 246.984375 146.609375 247.035156 146.6875 C 244.117188 148.328125 241.269531 150.136719 238.828125 152.226562 C 234.097656 151.867188 229.328125 151.761719 224.558594 151.882812 C 225.070312 151.554688 225.5625 151.222656 226.027344 150.925781 C 227.582031 149.910156 230.550781 148.128906 230.757812 146.011719 C 231.003906 143.457031 227.683594 143.671875 226.140625 144.339844 C 223.535156 145.453125 221.78125 148.21875 220.464844 150.824219 C 220.179688 151.054688 219.878906 151.273438 219.601562 151.523438 C 219.425781 151.679688 219.320312 151.886719 219.269531 152.101562 C 215.824219 152.308594 212.390625 152.640625 208.980469 153.085938 C 211.339844 151.386719 213.628906 148.972656 213.714844 146.25 C 213.738281 145.398438 213.007812 144.96875 212.246094 145.207031 C 209.152344 146.167969 207.453125 148.992188 205.917969 151.730469 C 205.8125 151.84375 205.695312 151.960938 205.585938 152.082031 C 205.074219 152.664062 204.746094 153.195312 204.582031 153.730469 C 198.207031 154.75 191.9375 156.175781 185.839844 157.953125 C 194.332031 152.429688 203.164062 147.253906 212.34375 142.484375 C 236.679688 129.847656 261.9375 120.761719 287.523438 115.035156 C 290.199219 116.324219 294.9375 116.425781 296.632812 116.625 C 303.558594 117.441406 310.628906 117.433594 317.492188 118.671875 C 321.601562 119.421875 325.710938 120.472656 329.78125 121.6875 C 329.855469 121.871094 329.9375 122.050781 330.007812 122.234375 C 329.039062 127.636719 326.746094 132.804688 327.0625 138.367188 C 327.300781 142.578125 329.292969 146.722656 331.003906 150.511719 C 332.003906 152.71875 335.316406 160.894531 339.0625 164.976562 C 338.859375 165.53125 338.753906 166.121094 338.753906 166.722656 C 338.472656 168.152344 339.128906 169.550781 340.398438 170.429688 C 340.652344 170.632812 340.929688 170.800781 341.214844 170.925781 C 343.714844 172.238281 347.589844 173.148438 348.753906 169.800781 C 348.925781 169.304688 349.011719 168.757812 349.019531 168.210938 C 349.148438 167.953125 349.246094 167.691406 349.324219 167.421875 C 349.503906 167.003906 349.652344 166.566406 349.730469 166.113281 C 350.285156 162.863281 346.546875 161.433594 343.933594 161.453125 C 343.121094 161.460938 342.367188 161.65625 341.699219 161.980469 C 340.6875 160.933594 339.703125 159.835938 338.824219 158.425781 C 336.636719 154.90625 334.824219 151.136719 333.144531 147.359375 C 331.375 143.40625 329.898438 139.566406 330.171875 135.144531 C 330.359375 131.964844 331.296875 129.015625 331.683594 125.9375 C 337.414062 136.648438 349.277344 144.414062 359.835938 149.796875 C 359.851562 150.078125 359.882812 150.359375 359.9375 150.636719 C 359.96875 151.675781 360.511719 152.558594 361.359375 153.171875 C 362.855469 154.523438 365.273438 155.070312 367.027344 154.152344 C 367.816406 153.734375 368.289062 153.058594 368.558594 152.292969 C 369.410156 151.246094 369.648438 149.859375 368.96875 148.585938 L 368.820312 148.367188 C 368.828125 147.453125 368.632812 146.550781 368.164062 145.777344 C 366.890625 143.671875 364.050781 143.78125 362.214844 145.050781 C 361.402344 145.609375 360.773438 146.375 360.367188 147.226562 C 354.75 144.304688 349.378906 140.972656 344.503906 136.898438 C 339.449219 132.675781 335.988281 127.546875 332.136719 122.394531 C 337.351562 124.015625 342.515625 125.84375 347.5625 127.582031 C 357.152344 130.882812 366.601562 134.601562 375.988281 138.429688 C 376.316406 139.839844 377.128906 141.152344 378.265625 142.007812 C 378.980469 143.207031 380.113281 144.035156 381.785156 144.082031 C 385.175781 144.179688 386.992188 140.152344 386.71875 137.289062 C 386.664062 136.734375 386.539062 136.195312 386.375 135.664062 C 386.289062 134.589844 385.878906 133.699219 385.050781 133.199219 C 384.039062 132 382.636719 131.289062 380.925781 131.515625 C 380.851562 131.238281 380.53125 131.007812 380.253906 131.195312 C 379.941406 131.398438 379.664062 131.671875 379.398438 131.972656 C 378.765625 132.265625 378.199219 132.648438 377.738281 133.140625 L 377.601562 133.234375 C 376.773438 133.898438 376.273438 134.746094 376.019531 135.652344 C 365.632812 131.460938 355.167969 127.484375 344.5625 123.945312 C 345.4375 123.75 346.3125 123.40625 347.160156 123.109375 C 350.382812 121.972656 353.429688 120.765625 356.796875 120.09375 C 364.039062 118.65625 371.675781 119.058594 378.976562 120.199219 C 379.617188 121.316406 380.800781 122.046875 382.113281 122.328125 C 383.117188 123.242188 384.613281 123.683594 385.972656 123.851562 C 389.15625 124.242188 390.484375 121.359375 390.179688 118.644531 C 390.105469 117.976562 389.945312 117.300781 389.699219 116.652344 C 389.554688 115.214844 388.808594 114.207031 387.785156 113.617188 C 387.183594 112.996094 386.488281 112.476562 385.703125 112.140625 C 382.421875 110.730469 379.066406 114.320312 378.546875 117.4375 C 372.09375 116.511719 365.597656 116.378906 359.097656 117.148438 C 355.890625 117.523438 352.8125 118.316406 349.824219 119.511719 C 347.316406 120.511719 344.0625 121.480469 341.828125 123.03125 C 334.410156 120.621094 326.914062 118.425781 319.308594 116.558594 C 313.660156 115.171875 307.566406 115.226562 301.789062 114.777344 C 298.855469 114.542969 295.914062 114.261719 292.992188 113.863281 C 301.613281 112.101562 310.265625 110.722656 318.929688 109.699219 C 319.863281 109.703125 320.789062 109.605469 321.695312 109.371094 L 321.949219 109.34375 L 322.027344 109.265625 C 325.371094 108.308594 328.503906 106.03125 331.097656 103.996094 C 335.121094 100.859375 338.691406 96.945312 341.878906 92.914062 C 343.253906 93.15625 344.703125 93.101562 346.171875 92.839844 C 348.316406 93.101562 350.734375 91.695312 352.480469 90.75 C 354.777344 89.511719 357.742188 87.902344 359.464844 85.839844 C 360.0625 85.320312 360.628906 84.808594 361.136719 84.308594 C 361.695312 83.757812 361.527344 82.730469 360.726562 82.496094 C 360.519531 82.433594 360.316406 82.394531 360.117188 82.34375 C 359.386719 80.683594 357.273438 79.75 355.4375 81.421875 C 355.027344 81.792969 354.617188 82.152344 354.199219 82.496094 C 351.234375 83.347656 348.523438 85.226562 345.914062 87.242188 C 350.886719 79.296875 354.105469 70.3125 359.363281 62.539062 C 359.878906 62.183594 360.273438 61.703125 360.519531 61.140625 C 361.449219 62.410156 363.253906 63.097656 364.875 62.1875 C 366.671875 62.300781 368.566406 62.128906 370.320312 61.90625 C 371.777344 61.867188 373.226562 61.65625 374.652344 61.308594 C 383.007812 59.941406 388.917969 55.175781 395.9375 50.445312 C 397.378906 49.472656 397.9375 47.648438 397.351562 46.179688 C 397.835938 45.722656 398.3125 45.269531 398.773438 44.828125 C 399.367188 44.265625 399.03125 43.097656 398.144531 43.105469" fill="#3a241a"/></g></svg>