<?xml version="1.0" encoding="UTF-8"?><svg xmlns="http://www.w3.org/2000/svg" xmlns:xlink="http://www.w3.org/1999/xlink" fill="#000000" height="500" preserveAspectRatio="xMidYMid meet" version="1" viewBox="0.0 0.0 561.0 500.0" width="561" zoomAndPan="magnify"><defs><clipPath id="a"><path d="M 0 0 L 561.039062 0 L 561.039062 499.960938 L 0 499.960938 Z M 0 0"/></clipPath></defs><g><g clip-path="url(#a)" id="change1_1"><path d="M 443.433594 184.628906 C 441.933594 184.726562 441.933594 186.925781 443.433594 186.925781 C 448.433594 186.925781 453.335938 186.726562 458.335938 186.925781 C 459.136719 186.925781 459.335938 185.628906 458.535156 185.527344 C 453.433594 184.726562 448.433594 184.324219 443.433594 184.628906 Z M 263.734375 92.125 C 265.433594 101.824219 266.734375 111.527344 267.933594 121.226562 C 268.136719 123.027344 270.933594 123.027344 270.734375 121.226562 C 269.734375 111.226562 267.835938 101.425781 265.433594 91.625 C 265.136719 90.527344 263.535156 91.027344 263.734375 92.125 Z M 172.136719 204.527344 C 163.734375 200.628906 154.636719 197.226562 145.335938 196.027344 C 144.035156 195.824219 143.835938 197.925781 145.035156 198.226562 C 154.136719 200.425781 162.835938 202.425781 171.535156 205.824219 C 172.335938 206.226562 172.933594 204.925781 172.136719 204.527344 Z M 78.734375 229.425781 C 82.734375 228.527344 86.636719 227.425781 90.535156 226.527344 C 93.933594 225.726562 98.035156 225.726562 100.933594 223.726562 C 101.734375 223.226562 101.636719 221.925781 100.636719 221.726562 C 97.035156 220.824219 93.035156 222.324219 89.535156 223.324219 C 85.535156 224.425781 81.535156 225.726562 77.835938 227.527344 C 76.835938 228.027344 77.636719 229.628906 78.734375 229.425781 Z M 394.535156 317.226562 C 393.734375 316.925781 393.136719 317.925781 393.433594 318.625 C 394.535156 320.925781 397.335938 322.726562 399.234375 324.425781 C 401.535156 326.625 403.636719 329.125 405.636719 331.625 C 406.136719 332.226562 407.136719 331.726562 406.734375 331.027344 C 404.933594 328.324219 403.136719 325.824219 401.035156 323.324219 C 399.234375 321.125 397.234375 318.125 394.535156 317.226562 Z M 374.933594 345.226562 C 376.835938 350.425781 379.835938 355.226562 381.933594 360.324219 C 384.433594 366.125 386.335938 372.027344 388.136719 378.027344 C 388.535156 379.226562 390.335938 378.726562 390.035156 377.527344 C 387.535156 366.527344 383.636719 353.226562 376.335938 344.425781 C 375.835938 343.726562 374.636719 344.425781 374.933594 345.226562 Z M 178.234375 322.625 C 179.933594 319.925781 181.734375 317.226562 183.835938 314.824219 C 185.433594 313.027344 188.636719 311.425781 189.136719 309.027344 C 189.234375 308.425781 188.835938 307.824219 188.234375 307.824219 C 185.433594 307.726562 182.734375 311.425781 181.136719 313.324219 C 179.035156 315.824219 177.234375 318.625 176.035156 321.625 C 175.433594 323.027344 177.535156 323.824219 178.234375 322.625 Z M 203.234375 412.527344 C 203.933594 404.226562 205.535156 396.527344 208.335938 388.625 C 210.535156 382.324219 213.933594 375.824219 214.335938 369.125 C 214.433594 368.226562 213.035156 367.925781 212.636719 368.625 C 208.835938 375.027344 206.734375 383.125 204.636719 390.226562 C 202.433594 397.527344 200.636719 404.925781 201.535156 412.527344 C 201.636719 413.625 203.136719 413.625 203.234375 412.527344 Z M 423.835938 311.425781 C 428.433594 314.925781 433.335938 317.726562 437.734375 321.726562 C 442.035156 325.625 445.933594 330.027344 449.835938 334.324219 C 450.433594 334.925781 451.535156 334.125 451.035156 333.425781 C 447.136719 327.925781 442.433594 322.824219 437.535156 318.125 C 434.234375 314.925781 429.433594 309.324219 424.335938 309.824219 C 423.335938 309.925781 423.035156 310.925781 423.835938 311.425781 Z M 401.136719 242.128906 C 400.335938 242.425781 400.433594 243.425781 401.136719 243.726562 C 404.535156 245.027344 408.535156 244.824219 412.234375 245.726562 C 415.933594 246.628906 419.335938 248.027344 422.835938 249.324219 C 423.636719 249.628906 424.035156 248.425781 423.433594 248.027344 C 417.933594 244.128906 407.734375 239.925781 401.136719 242.128906 Z M 424.933594 285.925781 C 418.136719 283.625 412.234375 278.425781 405.636719 275.425781 C 400.734375 273.226562 395.535156 271.125 390.136719 270.527344 C 388.734375 270.324219 388.734375 272.324219 389.835938 272.726562 C 396.433594 275.425781 403.234375 277.027344 409.734375 280.324219 C 414.535156 282.726562 419.035156 286.925781 424.433594 287.625 C 425.636719 287.824219 426.136719 286.324219 424.933594 285.925781 Z M 460.734375 424.425781 C 460.136719 420.226562 458.433594 416.125 457.433594 412.027344 C 456.433594 407.925781 455.636719 403.726562 454.933594 399.425781 C 454.734375 398.324219 452.933594 398.625 453.035156 399.726562 C 453.433594 408.027344 454.335938 418.125 458.535156 425.425781 C 459.234375 426.726562 460.933594 425.726562 460.734375 424.425781 Z M 511.734375 387.125 C 515.035156 390.527344 517.433594 394.625 520.734375 398.027344 C 521.933594 399.226562 523.734375 397.726562 523.035156 396.226562 C 518.636719 387.527344 509.234375 380.625 501.234375 375.425781 C 500.335938 374.824219 499.535156 376.226562 500.433594 376.824219 C 504.433594 379.925781 508.234375 383.425781 511.734375 387.125 Z M 342.335938 289.027344 C 335.933594 286.527344 328.933594 283.726562 322.136719 282.527344 C 320.835938 282.324219 319.835938 284.125 321.136719 284.824219 C 330.234375 289.027344 343.734375 288.824219 350.636719 296.726562 C 351.136719 297.324219 352.136719 296.527344 351.734375 295.925781 C 349.335938 292.527344 346.234375 290.527344 342.335938 289.027344 Z M 169.433594 411.425781 C 163.734375 425.527344 155.335938 437.527344 148.035156 450.726562 C 147.234375 452.125 149.234375 453.925781 150.433594 452.527344 C 160.234375 441.125 166.335938 425.925781 171.335938 411.925781 C 171.734375 410.726562 169.933594 410.324219 169.433594 411.425781 Z M 164.933594 248.824219 C 177.433594 248.324219 190.035156 247.027344 202.636719 247.128906 C 215.535156 247.226562 225.535156 250.625 237.433594 254.925781 C 238.433594 255.324219 239.136719 253.925781 238.433594 253.226562 C 230.835938 245.628906 218.335938 243.824219 208.035156 243.425781 C 193.734375 242.925781 179.136719 245.128906 164.933594 246.726562 C 163.636719 246.925781 163.535156 248.925781 164.933594 248.824219 Z M 88.933594 181.925781 C 80.734375 182.527344 72.535156 182.628906 64.335938 183.027344 C 62.433594 183.128906 62.433594 186.027344 64.335938 185.925781 C 72.636719 185.726562 80.933594 184.726562 89.136719 183.425781 C 90.035156 183.226562 89.835938 181.824219 88.933594 181.925781 Z M 149.234375 173.925781 C 149.933594 173.925781 149.933594 172.824219 149.234375 172.824219 C 123.835938 171.824219 96.835938 170.425781 71.335938 174.226562 C 70.933594 173.925781 70.535156 173.824219 70.035156 173.824219 C 61.234375 173.824219 52.734375 174.527344 44.136719 176.425781 C 42.636719 176.726562 43.035156 179.128906 44.535156 179.027344 C 50.734375 178.726562 56.835938 178.527344 63.035156 178.425781 C 63.335938 178.628906 63.636719 178.824219 64.035156 178.824219 C 64.136719 178.824219 64.136719 178.824219 64.234375 178.824219 C 64.433594 179.527344 64.835938 180.027344 65.636719 180.226562 C 68.035156 180.726562 69.933594 180.128906 71.335938 178.425781 C 83.136719 177.527344 94.835938 175.824219 106.636719 175.226562 C 120.734375 174.128906 135.035156 173.527344 149.234375 173.925781 Z M 39.933594 202.628906 C 36.835938 203.226562 32.835938 203.425781 30.335938 205.527344 C 29.835938 205.925781 29.835938 206.726562 30.136719 207.324219 C 30.234375 207.527344 30.335938 207.726562 30.433594 207.925781 C 30.734375 208.527344 31.535156 208.527344 31.933594 208.128906 C 34.535156 206.027344 39.136719 205.527344 42.335938 204.726562 C 45.835938 203.925781 49.335938 203.324219 52.734375 202.324219 C 53.535156 202.128906 53.433594 200.824219 52.535156 200.824219 C 48.234375 201.027344 44.035156 201.824219 39.933594 202.628906 Z M 105.835938 307.625 C 91.835938 316.425781 76.734375 321.925781 61.335938 327.726562 C 61.335938 327.527344 61.335938 327.324219 61.335938 327.125 C 59.933594 323.226562 57.734375 319.625 55.035156 316.527344 C 52.933594 314.226562 49.433594 312.625 46.734375 310.625 C 58.636719 305.625 70.234375 299.925781 83.136719 298.125 C 83.933594 298.027344 83.636719 296.824219 82.933594 296.824219 C 69.433594 296.726562 56.433594 303.125 44.136719 308.226562 L 44.035156 308.125 C 38.933594 300.925781 59.335938 296.226562 62.636719 295.324219 C 67.535156 294.027344 72.433594 293.527344 76.636719 290.625 C 77.234375 290.226562 76.933594 289.125 76.035156 289.324219 C 67.835938 291.625 59.433594 292.824219 51.335938 295.324219 C 49.136719 296.027344 46.636719 296.726562 44.535156 297.925781 C 43.335938 295.726562 43.136719 295.324219 44.234375 291.027344 C 45.433594 285.925781 45.035156 286.324219 49.136719 285.125 C 53.433594 283.925781 57.835938 283.027344 62.136719 281.925781 C 67.933594 280.425781 73.636719 279.226562 78.136719 275.125 C 78.734375 274.527344 77.933594 273.425781 77.234375 273.925781 C 71.335938 277.824219 64.035156 278.425781 57.234375 279.824219 C 52.433594 280.824219 46.136719 281.125 41.933594 284.027344 C 35.933594 288.125 36.933594 295.726562 41.535156 300.226562 C 40.535156 301.226562 39.835938 302.425781 39.433594 303.925781 C 38.535156 307.527344 40.335938 310.226562 43.035156 312.324219 C 46.136719 314.726562 49.535156 316.226562 52.234375 319.226562 C 54.734375 322.125 56.433594 325.527344 58.835938 328.527344 C 59.136719 328.925781 59.636719 329.027344 60.035156 328.925781 C 59.933594 329.824219 60.535156 330.824219 61.734375 330.527344 C 77.933594 326.625 93.035156 318.027344 106.636719 309.027344 C 107.535156 308.425781 106.734375 307.125 105.835938 307.625 Z M 90.234375 284.027344 C 88.535156 284.527344 89.234375 287.125 90.933594 286.625 C 98.234375 284.625 105.335938 282.425781 112.933594 281.226562 C 113.636719 281.125 113.535156 279.824219 112.734375 279.925781 C 105.234375 280.824219 97.433594 281.625 90.234375 284.027344 Z M 383.035156 100.027344 C 385.234375 95.027344 388.636719 88.625 388.035156 83.027344 C 387.933594 82.226562 386.835938 81.726562 386.433594 82.625 C 385.335938 85.125 385.136719 87.925781 384.433594 90.625 C 383.636719 93.625 382.734375 96.527344 381.535156 99.425781 C 381.335938 100.226562 382.734375 100.824219 383.035156 100.027344 Z M 457.734375 91.425781 C 454.433594 97.027344 448.933594 96.226562 444.335938 93.625 C 444.136719 93.527344 443.835938 93.527344 443.535156 93.625 C 442.433594 94.324219 441.433594 95.027344 440.335938 95.824219 C 437.035156 98.027344 430.734375 96.425781 429.933594 91.625 C 429.835938 90.824219 428.433594 91.027344 428.535156 91.824219 C 429.035156 95.527344 431.535156 96.925781 435.035156 98.027344 C 436.636719 98.527344 438.335938 98.925781 439.933594 98.425781 C 441.136719 98.125 442.035156 96.625 442.933594 96.425781 C 445.035156 95.824219 446.734375 98.125 449.035156 98.027344 C 452.734375 97.925781 457.136719 95.324219 458.734375 92.125 C 459.234375 91.324219 458.136719 90.625 457.734375 91.425781 Z M 464.136719 75.824219 C 464.335938 75.425781 463.734375 74.824219 463.433594 75.226562 C 462.535156 76.324219 462.433594 77.125 462.035156 78.425781 C 461.234375 80.824219 461.433594 82.824219 458.433594 82.925781 C 456.136719 83.027344 456.234375 82.125 454.433594 81.027344 C 450.234375 78.324219 448.734375 83.425781 444.335938 82.625 C 443.835938 82.527344 443.234375 83.226562 443.734375 83.625 C 445.234375 84.824219 446.535156 84.625 448.136719 83.625 C 450.335938 82.324219 452.636719 82.324219 454.835938 83.726562 C 455.835938 84.324219 456.433594 84.925781 457.636719 85.027344 C 459.136719 85.226562 460.734375 84.625 461.835938 83.625 C 464.234375 81.527344 462.835938 78.425781 464.136719 75.824219 Z M 450.835938 57.125 C 450.636719 57.226562 450.335938 57.125 450.136719 56.925781 C 447.636719 52.925781 442.734375 50.226562 441.535156 57.125 C 441.335938 58.324219 441.535156 59.324219 440.835938 60.324219 C 440.136719 61.425781 438.234375 61.824219 437.433594 62.925781 C 435.234375 65.726562 436.136719 69.726562 439.234375 71.425781 C 439.433594 71.527344 439.535156 71.625 439.535156 71.726562 C 443.335938 66.925781 447.335938 62.125 450.835938 57.125 Z M 466.933594 14.925781 C 466.933594 14.527344 467.035156 14.125 467.535156 13.824219 C 469.835938 12.527344 472.136719 10.925781 472.433594 8.027344 C 472.734375 5.027344 470.433594 1.925781 467.335938 2.027344 C 460.835938 2.324219 461.535156 13.226562 466.933594 14.925781 Z M 499.035156 61.425781 C 499.433594 61.527344 499.835938 61.925781 499.835938 62.527344 C 499.835938 65.027344 500.433594 67.625 503.136719 68.527344 C 505.933594 69.425781 508.335938 67.726562 509.535156 65.324219 C 511.335938 61.726562 509.535156 57.125 504.835938 58.226562 C 502.535156 58.726562 500.433594 59.726562 499.035156 61.425781 Z M 451.136719 56.324219 C 451.136719 56.425781 451.234375 56.527344 451.234375 56.527344 C 452.636719 54.527344 453.933594 52.527344 455.035156 50.527344 C 461.136719 39.625 465.035156 28.125 467.636719 15.925781 C 467.535156 16.226562 467.335938 16.527344 466.933594 16.425781 C 462.234375 15.925781 460.136719 12.425781 460.335938 7.824219 C 460.433594 3.824219 463.035156 0.425781 467.136719 0.0273438 C 476.835938 -0.773438 477.933594 13.925781 469.035156 15.925781 C 467.433594 33.226562 460.433594 49.625 450.835938 64.226562 C 454.835938 60.625 458.933594 57.125 462.835938 53.726562 C 467.433594 49.625 471.835938 45.324219 476.933594 41.925781 C 482.335938 38.226562 488.433594 35.824219 493.636719 31.824219 C 493.535156 31.824219 493.433594 31.824219 493.335938 31.726562 C 491.136719 30.625 492.035156 27.226562 493.433594 25.824219 C 495.136719 24.226562 498.136719 24.027344 500.136719 25.226562 C 502.335938 26.527344 502.433594 29.925781 501.335938 31.925781 C 500.234375 33.824219 497.433594 35.125 495.535156 33.527344 C 494.933594 33.027344 495.433594 32.125 496.136719 32.125 C 497.535156 32.226562 498.933594 32.125 499.636719 30.625 C 500.234375 29.425781 500.035156 27.324219 498.535156 26.824219 C 497.335938 26.425781 495.734375 26.527344 494.835938 27.425781 C 493.835938 28.527344 494.335938 29.425781 494.636719 30.625 C 494.734375 30.824219 494.636719 31.125 494.535156 31.324219 C 495.136719 31.324219 495.535156 32.027344 495.035156 32.527344 C 491.136719 36.125 486.433594 38.324219 481.933594 41.125 C 476.035156 44.925781 470.835938 49.824219 465.734375 54.625 C 460.535156 59.527344 455.636719 64.925781 450.636719 70.226562 C 454.335938 67.824219 458.136719 65.324219 461.933594 62.824219 C 472.035156 56.324219 483.136719 51.625 493.234375 44.925781 C 493.835938 44.527344 494.335938 45.027344 494.433594 45.527344 C 494.535156 45.527344 494.535156 45.625 494.636719 45.625 C 495.933594 46.824219 497.933594 47.324219 499.636719 47.125 C 500.933594 47.027344 501.335938 46.324219 501.636719 45.125 C 501.835938 44.226562 502.136719 43.226562 501.933594 42.324219 C 501.035156 37.925781 491.636719 38.625 493.734375 43.425781 C 494.234375 44.527344 492.636719 45.125 492.234375 44.027344 C 491.335938 41.425781 493.136719 38.527344 495.636719 37.726562 C 498.335938 36.824219 502.335938 38.125 503.636719 40.824219 C 504.734375 43.125 504.136719 47.824219 501.535156 48.925781 C 498.835938 50.125 495.234375 48.925781 493.535156 46.625 C 483.433594 53.425781 472.433594 58.925781 462.636719 66.226562 C 459.433594 68.527344 456.335938 71.027344 453.136719 73.425781 C 467.433594 68.625 482.636719 66.027344 496.734375 61.625 L 496.835938 61.625 C 498.535156 57.925781 503.835938 54.824219 507.835938 55.625 C 512.335938 56.425781 513.535156 61.625 512.136719 65.324219 C 510.535156 69.425781 506.535156 72.125 502.136719 70.726562 C 498.933594 69.726562 496.535156 66.226562 497.035156 62.925781 C 488.535156 66.125 479.933594 68.824219 471.335938 71.625 C 476.636719 71.726562 480.835938 77.625 477.734375 82.625 C 476.035156 85.324219 474.535156 86.027344 475.535156 89.425781 C 475.835938 90.324219 476.234375 90.925781 476.035156 91.925781 C 475.335938 95.226562 469.835938 96.824219 467.035156 97.125 C 465.835938 97.226562 465.433594 95.425781 466.433594 94.925781 C 467.835938 94.226562 469.636719 93.726562 470.933594 92.824219 C 471.535156 92.226562 472.136719 91.625 472.734375 91.027344 C 472.535156 90.824219 472.234375 90.625 472.035156 90.425781 C 471.835938 89.425781 471.136719 89.324219 471.335938 87.925781 C 471.535156 86.324219 472.535156 84.625 473.433594 83.425781 C 473.933594 82.824219 474.734375 82.226562 475.136719 81.625 C 477.433594 77.925781 475.234375 73.226562 470.433594 73.425781 C 469.835938 73.425781 469.535156 72.726562 469.636719 72.226562 C 458.136719 76.027344 446.835938 79.925781 435.734375 85.324219 C 434.636719 85.824219 433.636719 85.324219 433.136719 84.625 C 433.035156 84.625 433.035156 84.625 432.933594 84.625 C 431.835938 84.324219 430.035156 84.027344 429.535156 82.925781 C 429.234375 82.125 429.636719 82.027344 429.636719 81.324219 C 429.535156 79.425781 428.734375 79.527344 427.734375 78.625 C 425.734375 76.726562 426.535156 74.324219 427.535156 72.125 C 427.734375 71.726562 428.335938 72.027344 428.234375 72.425781 C 427.734375 73.726562 427.234375 75.425781 428.035156 76.726562 C 428.535156 77.527344 429.734375 77.925781 430.433594 78.527344 C 430.933594 78.925781 431.335938 79.527344 431.535156 80.125 C 431.636719 80.726562 431.335938 81.226562 431.335938 81.824219 C 431.433594 81.824219 431.535156 81.925781 431.734375 81.925781 C 431.835938 81.324219 432.136719 80.726562 432.734375 80.425781 C 432.835938 80.324219 433.035156 80.324219 433.136719 80.226562 C 434.734375 77.625 436.535156 75.125 438.335938 72.726562 C 438.234375 72.726562 438.234375 72.726562 438.136719 72.625 C 435.035156 70.824219 433.136719 68.824219 434.136719 65.125 C 434.535156 63.625 435.234375 61.726562 436.335938 60.527344 C 437.535156 59.125 438.734375 59.027344 439.335938 57.125 C 440.234375 54.425781 440.433594 51.226562 443.933594 50.726562 C 447.535156 50.726562 449.636719 53.824219 451.136719 56.324219 Z M 406.636719 83.726562 C 407.835938 85.125 407.335938 86.226562 407.933594 87.824219 C 409.035156 90.925781 411.835938 92.027344 414.933594 92.027344 C 416.835938 92.027344 417.035156 89.527344 415.335938 88.925781 C 411.234375 87.425781 412.335938 83.125 409.234375 80.625 C 407.835938 79.527344 406.234375 79.027344 405.035156 77.824219 C 402.234375 75.027344 403.234375 72.425781 403.234375 69.625 C 403.234375 67.425781 403.535156 59.726562 404.035156 58.625 C 404.636719 57.425781 403.234375 56.425781 402.234375 57.226562 C 398.734375 60.226562 399.933594 66.324219 399.234375 70.324219 C 398.535156 74.226562 399.136719 76.425781 401.734375 79.625 C 403.136719 81.324219 405.335938 82.226562 406.636719 83.726562 Z M 408.433594 49.824219 C 411.035156 48.425781 412.835938 46.125 415.335938 44.625 C 417.035156 43.625 419.234375 43.027344 421.535156 42.726562 C 418.933594 44.527344 416.933594 47.425781 417.136719 50.527344 C 417.433594 54.027344 420.433594 56.226562 423.734375 56.027344 C 423.734375 58.824219 425.136719 58.726562 421.234375 63.425781 C 420.933594 63.226562 420.636719 63.125 420.335938 63.425781 C 418.035156 63.824219 415.734375 63.125 413.734375 64.925781 C 413.136719 65.425781 412.734375 66.027344 412.433594 66.726562 C 412.234375 67.226562 412.234375 67.824219 412.035156 68.324219 C 411.636719 69.324219 410.933594 69.824219 410.335938 70.726562 C 408.136719 74.226562 410.835938 78.625 414.234375 80.226562 C 415.433594 80.824219 416.433594 79.125 415.234375 78.527344 C 413.636719 77.726562 411.234375 76.125 411.136719 74.125 C 411.035156 72.324219 412.636719 71.226562 413.234375 69.625 C 414.136719 67.324219 414.636719 65.625 417.433594 65.226562 C 418.035156 65.125 418.933594 65.226562 419.636719 65.226562 C 417.933594 67.125 416.535156 68.625 416.734375 71.824219 C 417.035156 74.925781 418.933594 77.625 421.933594 78.625 C 422.535156 78.824219 422.734375 78.027344 422.335938 77.726562 C 420.734375 76.625 417.835938 72.925781 417.835938 71.125 C 417.835938 68.425781 421.835938 65.726562 423.433594 63.925781 C 424.234375 62.925781 425.035156 62.726562 425.636719 61.425781 C 426.035156 60.425781 425.835938 59.925781 425.933594 58.925781 C 426.136719 56.324219 425.234375 58.226562 426.433594 53.824219 C 426.234375 51.027344 427.433594 49.625 430.035156 49.324219 C 431.335938 48.324219 432.835938 48.027344 434.335938 48.425781 C 434.933594 48.527344 435.035156 47.425781 434.433594 47.324219 C 430.933594 46.726562 427.535156 47.527344 425.335938 50.625 C 424.636719 51.625 424.136719 52.925781 423.835938 54.125 C 423.835938 54.324219 423.734375 54.527344 423.734375 54.726562 C 419.636719 55.027344 417.835938 50.925781 419.835938 47.527344 C 421.136719 45.324219 424.035156 44.824219 425.535156 42.824219 C 425.636719 42.726562 425.636719 42.625 425.636719 42.527344 C 426.636719 42.425781 427.535156 42.425781 428.433594 42.425781 C 430.433594 42.324219 431.535156 41.824219 433.335938 41.324219 C 439.535156 39.726562 447.136719 43.527344 448.734375 50.324219 C 448.933594 51.324219 450.335938 50.824219 450.234375 49.925781 C 448.835938 42.324219 440.136719 37.324219 433.035156 38.527344 C 427.433594 39.425781 421.734375 38.625 416.335938 40.324219 C 412.636719 41.425781 409.433594 45.027344 406.535156 47.527344 C 405.136719 48.625 406.933594 50.625 408.433594 49.824219 Z M 377.535156 128.824219 C 377.636719 113.128906 394.136719 103.027344 392.035156 87.226562 C 391.933594 86.625 391.136719 86.625 391.035156 87.226562 C 390.535156 103.527344 370.433594 113.925781 373.933594 130.628906 C 373.933594 130.824219 374.035156 131.027344 374.136719 131.226562 C 371.136719 133.628906 368.636719 136.425781 367.136719 139.925781 C 366.734375 140.824219 367.835938 142.027344 368.636719 141.128906 C 376.136719 132.425781 385.035156 127.324219 394.335938 120.824219 C 403.335938 114.527344 408.636719 104.324219 418.335938 99.226562 C 418.636719 99.125 418.636719 98.824219 418.636719 98.527344 C 419.636719 100.226562 420.933594 101.425781 422.636719 102.226562 C 411.734375 113.027344 401.035156 124.824219 388.234375 133.425781 C 377.734375 140.527344 367.835938 148.027344 361.433594 159.226562 C 360.835938 160.226562 362.234375 161.324219 363.136719 160.527344 C 367.734375 156.128906 371.335938 150.824219 375.933594 146.425781 C 381.433594 141.128906 388.234375 137.527344 394.234375 132.824219 C 405.136719 124.226562 414.433594 112.824219 424.136719 102.726562 C 424.636719 102.925781 425.234375 103.027344 425.835938 103.226562 C 429.035156 104.027344 428.734375 103.226562 430.535156 106.324219 C 431.433594 107.824219 431.636719 109.226562 433.136719 110.425781 C 435.933594 112.527344 438.035156 111.527344 440.535156 109.925781 C 443.335938 108.226562 444.636719 108.527344 447.835938 107.726562 C 451.933594 106.726562 454.535156 102.226562 459.433594 103.425781 C 461.835938 104.027344 462.835938 100.425781 460.433594 99.726562 C 457.035156 98.625 454.535156 99.625 451.535156 101.324219 C 447.933594 103.324219 443.535156 104.628906 439.535156 105.128906 C 439.335938 105.226562 439.136719 105.425781 439.035156 105.628906 C 437.734375 108.128906 435.933594 107.527344 433.636719 103.824219 C 432.933594 102.925781 433.234375 101.925781 432.335938 101.027344 C 428.433594 97.027344 423.734375 103.128906 419.734375 95.824219 C 419.136719 94.824219 417.335938 95.527344 417.835938 96.625 C 418.035156 97.226562 418.335938 97.726562 418.636719 98.226562 C 418.535156 98.125 418.335938 98.027344 418.136719 98.125 C 407.234375 102.226562 401.535156 114.226562 391.933594 120.425781 C 387.433594 123.226562 382.234375 125.726562 377.535156 128.824219 Z M 556.136719 246.425781 C 555.433594 245.824219 554.433594 245.527344 553.734375 244.925781 C 551.035156 242.527344 549.933594 240.628906 548.933594 237.027344 C 548.335938 234.925781 548.636719 233.628906 546.933594 231.824219 C 543.234375 227.925781 536.734375 228.925781 531.933594 229.027344 C 527.535156 229.128906 523.136719 229.128906 518.835938 229.226562 C 514.433594 229.324219 509.136719 230.226562 505.035156 228.226562 C 503.734375 227.527344 502.734375 229.324219 503.835938 230.226562 C 511.433594 235.824219 524.433594 233.324219 533.234375 233.324219 C 537.234375 233.324219 543.035156 232.128906 544.535156 238.226562 C 545.136719 240.527344 544.136719 240.925781 545.136719 243.027344 C 545.535156 243.824219 546.234375 244.628906 547.234375 245.425781 C 541.234375 245.726562 535.234375 247.324219 529.335938 247.628906 C 521.136719 248.128906 513.335938 247.425781 505.234375 245.726562 C 503.835938 245.425781 503.335938 247.324219 504.636719 247.824219 C 512.433594 250.925781 520.933594 251.726562 529.335938 251.425781 C 536.335938 251.125 544.535156 250.925781 551.136719 248.425781 C 553.835938 250.527344 556.335938 252.625 555.535156 254.824219 C 555.335938 255.425781 555.433594 256.027344 555.835938 256.425781 C 553.035156 257.125 547.535156 256.425781 545.734375 256.425781 C 541.835938 256.527344 538.035156 256.925781 534.234375 257.226562 C 532.835938 257.324219 532.835938 259.324219 534.234375 259.425781 C 539.835938 259.625 545.433594 260.125 551.136719 260.125 C 552.734375 260.125 554.535156 260.324219 556.234375 260.027344 C 556.835938 266.324219 551.734375 269.125 546.335938 270.824219 C 539.136719 269.027344 530.835938 269.527344 523.535156 268.824219 C 514.433594 268.027344 505.234375 267.125 496.136719 266.226562 C 495.136719 266.125 494.933594 267.726562 495.933594 267.925781 C 504.636719 269.824219 513.335938 271.425781 522.136719 272.527344 C 526.136719 273.027344 530.433594 273.726562 534.734375 274.226562 C 532.035156 275.324219 529.636719 276.824219 527.136719 278.824219 C 521.835938 283.027344 517.234375 286.125 510.835938 287.027344 C 511.335938 286.324219 511.035156 285.027344 510.035156 284.824219 C 499.234375 282.527344 488.734375 282.324219 478.433594 277.625 C 477.234375 277.125 476.234375 278.726562 477.433594 279.324219 C 483.035156 282.226562 489.234375 285.125 495.636719 286.726562 C 494.835938 286.726562 493.933594 286.824219 493.136719 286.925781 C 492.636719 287.027344 492.433594 287.226562 492.234375 287.527344 C 485.234375 286.226562 478.234375 284.527344 471.636719 281.425781 C 470.535156 280.925781 469.636719 282.425781 470.636719 283.027344 C 484.136719 290.925781 500.234375 290.324219 514.734375 295.324219 C 519.035156 296.824219 524.136719 299.027344 527.433594 302.324219 C 529.433594 304.324219 530.136719 306.726562 530.035156 309.027344 C 524.535156 305.226562 517.535156 303.125 511.234375 302.027344 C 510.035156 301.824219 509.535156 303.527344 510.734375 303.824219 C 517.734375 305.726562 523.335938 309.425781 529.433594 312.925781 C 529.136719 314.226562 528.636719 315.425781 528.234375 316.726562 C 523.136719 312.824219 517.035156 310.324219 511.136719 308.027344 C 501.636719 304.324219 491.933594 300.824219 482.136719 298.027344 C 481.335938 297.824219 480.835938 298.925781 481.636719 299.324219 C 496.734375 306.726562 512.636719 311.925781 526.933594 320.625 C 526.234375 323.027344 525.933594 325.824219 525.636719 328.625 C 502.933594 314.425781 479.136719 302.125 454.535156 291.625 C 453.535156 291.226562 452.636719 292.625 453.636719 293.125 C 478.035156 305.324219 501.734375 318.824219 524.835938 333.226562 C 524.933594 333.226562 524.933594 333.226562 525.035156 333.324219 C 524.035156 339.527344 521.933594 345.125 515.136719 346.226562 C 514.933594 346.226562 514.734375 346.324219 514.535156 346.425781 C 513.136719 344.925781 511.636719 343.625 510.136719 342.425781 C 502.035156 335.925781 493.035156 331.925781 485.933594 324.027344 C 484.734375 322.726562 482.734375 324.425781 483.535156 325.824219 C 487.734375 333.824219 496.035156 337.726562 503.234375 342.527344 C 508.136719 345.824219 512.734375 349.527344 515.136719 355.027344 C 516.433594 358.125 516.636719 361.925781 518.734375 364.625 C 520.835938 367.324219 523.433594 367.324219 526.335938 368.625 C 537.433594 373.625 529.535156 380.625 526.136719 387.125 C 522.734375 393.625 523.335938 400.925781 526.835938 407.226562 C 527.335938 408.226562 528.835938 407.324219 528.335938 406.324219 C 523.933594 397.226562 527.636719 391.625 532.734375 384.527344 C 534.234375 382.425781 535.734375 380.425781 536.234375 377.824219 C 537.636719 370.324219 532.433594 366.925781 526.535156 364.324219 C 520.234375 361.527344 520.933594 356.226562 518.136719 351.226562 C 517.835938 350.625 517.433594 350.125 517.136719 349.527344 C 525.136719 348.324219 528.035156 340.125 528.835938 332.726562 C 529.636719 325.925781 530.933594 320.625 533.234375 314.324219 C 533.933594 314.027344 534.433594 313.125 533.933594 312.324219 C 534.933594 309.027344 534.835938 306.125 532.734375 303.125 C 527.933594 296.125 518.535156 292.726562 510.234375 290.824219 C 511.234375 290.726562 512.136719 290.527344 513.035156 290.324219 C 520.335938 288.925781 524.734375 284.726562 530.335938 280.226562 C 533.535156 277.726562 539.035156 276.226562 544.335938 274.324219 C 545.835938 274.226562 547.234375 274.027344 548.636719 273.726562 C 549.433594 273.527344 549.636719 272.824219 549.535156 272.226562 C 555.136719 269.625 559.234375 265.925781 557.835938 259.027344 C 558.335938 258.726562 558.835938 258.324219 559.234375 257.726562 C 559.535156 257.226562 559.535156 256.625 559.234375 256.226562 C 559.234375 256.226562 559.234375 256.125 559.335938 256.125 C 561.035156 252.324219 559.636719 249.128906 556.136719 246.425781 Z M 559.535156 210.425781 C 550.734375 219.425781 537.835938 213.925781 527.636719 211.226562 C 520.433594 209.324219 513.035156 208.128906 505.636719 209.027344 C 495.335938 206.324219 483.734375 206.128906 473.234375 206.726562 C 462.136719 207.324219 451.136719 211.628906 440.136719 211.027344 C 438.835938 210.925781 438.835938 212.925781 440.136719 213.027344 C 450.835938 214.128906 461.234375 210.425781 471.933594 210.027344 C 479.933594 209.726562 487.734375 210.824219 495.636719 211.726562 C 493.035156 212.824219 490.535156 214.226562 488.835938 216.027344 C 476.535156 215.425781 463.835938 217.027344 451.636719 216.824219 C 450.234375 216.824219 450.335938 218.824219 451.636719 218.925781 C 462.933594 219.527344 475.035156 221.027344 486.636719 220.226562 C 486.433594 221.726562 487.035156 223.027344 487.933594 224.128906 C 486.933594 224.226562 486.035156 224.226562 485.136719 224.226562 C 481.835938 224.226562 478.433594 224.324219 475.136719 224.027344 C 474.136719 223.925781 473.835938 225.628906 474.933594 225.824219 C 478.335938 226.527344 481.734375 227.324219 485.234375 227.527344 C 487.636719 227.628906 490.335938 227.925781 492.734375 227.128906 C 492.933594 227.226562 493.136719 227.324219 493.433594 227.324219 C 495.535156 227.925781 496.636719 225.027344 494.933594 223.824219 C 492.535156 222.226562 492.035156 220.824219 492.835938 219.527344 C 493.335938 219.425781 493.835938 219.425781 494.335938 219.324219 C 495.433594 219.128906 495.636719 218.128906 495.234375 217.324219 C 499.933594 214.527344 509.234375 212.824219 511.734375 212.824219 C 520.136719 212.824219 527.835938 215.226562 535.933594 217.128906 C 545.136719 219.226562 554.835938 219.324219 561.035156 211.226562 C 561.136719 210.628906 560.035156 209.824219 559.535156 210.425781 Z M 498.933594 139.925781 C 483.835938 140.527344 470.234375 144.527344 456.835938 151.324219 C 456.035156 151.726562 456.636719 153.128906 457.433594 152.726562 C 469.636719 147.824219 483.234375 144.925781 496.335938 144.128906 C 503.734375 143.726562 511.234375 144.027344 518.535156 145.027344 C 524.335938 145.925781 532.636719 146.726562 537.433594 150.425781 C 541.734375 153.824219 541.636719 159.925781 546.035156 163.324219 C 551.035156 167.027344 556.636719 166.726562 555.433594 174.425781 C 555.136719 174.027344 554.734375 173.726562 554.136719 173.726562 C 543.136719 172.527344 531.835938 172.628906 520.734375 171.628906 C 508.835938 170.527344 497.035156 168.726562 485.234375 167.027344 C 483.933594 166.824219 483.433594 168.628906 484.734375 168.925781 C 506.535156 174.425781 531.636719 178.824219 554.136719 177.226562 C 554.433594 177.226562 554.636719 177.128906 554.835938 177.027344 C 554.234375 179.027344 553.234375 180.925781 552.335938 182.925781 C 541.335938 182.726562 530.335938 183.425781 519.335938 183.027344 C 518.136719 183.027344 518.234375 184.726562 519.335938 184.824219 C 529.734375 186.226562 540.535156 187.226562 550.933594 186.226562 C 550.535156 187.527344 550.234375 188.726562 550.136719 190.128906 C 550.136719 190.628906 550.136719 191.128906 550.136719 191.527344 C 543.136719 191.628906 536.035156 192.925781 529.035156 192.824219 C 528.035156 192.824219 528.035156 194.324219 529.035156 194.425781 C 536.234375 195.027344 543.535156 195.925781 550.636719 194.527344 C 551.734375 198.324219 553.835938 201.824219 554.035156 206.027344 C 554.136719 208.425781 557.433594 208.324219 557.734375 206.027344 C 558.035156 203.527344 557.535156 201.628906 556.636719 199.226562 C 554.835938 194.128906 553.835938 190.527344 555.535156 185.527344 C 555.835938 185.226562 556.035156 184.824219 555.933594 184.324219 C 555.933594 184.324219 555.933594 184.324219 555.933594 184.226562 C 557.835938 179.628906 560.535156 174.925781 559.535156 169.726562 C 558.433594 164.027344 554.535156 163.425781 550.234375 160.824219 C 544.636719 157.527344 544.933594 149.824219 539.136719 146.324219 C 528.335938 139.824219 511.234375 139.425781 498.933594 139.925781 Z M 526.933594 414.726562 C 525.835938 413.226562 524.535156 411.925781 523.335938 410.625 C 518.234375 405.226562 512.734375 400.226562 507.433594 395.027344 C 506.734375 394.324219 505.636719 395.425781 506.335938 396.125 C 512.933594 403.527344 520.136719 411.125 525.335938 419.625 C 524.734375 421.625 523.835938 423.425781 522.835938 425.226562 C 519.136719 419.625 514.035156 414.726562 509.535156 409.824219 C 504.335938 403.925781 499.035156 398.027344 494.136719 391.824219 C 493.535156 391.125 492.234375 392.027344 492.835938 392.824219 C 501.234375 404.425781 509.636719 419.125 520.933594 428.027344 C 519.933594 429.425781 518.636719 430.625 517.335938 431.726562 C 517.835938 431.226562 517.933594 430.324219 517.433594 429.726562 C 515.234375 427.027344 511.734375 425.027344 509.234375 422.726562 C 506.535156 420.324219 503.933594 417.824219 501.636719 415.027344 C 500.933594 414.125 499.433594 415.324219 500.136719 416.226562 C 502.335938 419.425781 504.535156 422.625 507.335938 425.425781 C 509.734375 427.824219 512.835938 430.925781 516.136719 432.027344 C 516.636719 432.226562 517.035156 432.027344 517.335938 431.824219 C 516.335938 432.625 515.234375 433.425781 514.136719 434.125 C 513.535156 434.425781 512.933594 434.726562 512.335938 435.027344 C 512.234375 434.925781 512.136719 434.824219 512.035156 434.726562 C 502.933594 428.625 495.535156 422.027344 489.136719 412.925781 C 482.835938 404.027344 477.636719 394.324219 471.933594 385.027344 C 471.335938 384.027344 469.734375 384.925781 470.335938 385.925781 C 479.933594 403.425781 488.835938 426.425781 507.636719 436.324219 C 502.433594 437.226562 497.035156 436.625 491.835938 437.425781 C 486.136719 438.324219 483.433594 441.027344 479.535156 444.824219 C 478.433594 445.925781 477.335938 446.726562 476.234375 447.324219 C 472.835938 438.125 468.636719 429.425781 466.136719 419.925781 C 465.835938 418.824219 464.234375 419.324219 464.433594 420.425781 C 466.035156 429.824219 468.136719 440.027344 472.636719 448.625 C 465.636719 449.125 462.035156 438.027344 461.734375 430.226562 C 461.734375 429.027344 459.933594 429.027344 459.835938 430.226562 C 459.734375 433.125 459.535156 436.125 459.734375 439.125 C 458.234375 439.226562 456.835938 439.226562 455.433594 438.027344 C 454.535156 437.324219 453.933594 436.425781 453.335938 435.425781 C 453.433594 435.125 453.433594 434.726562 453.234375 434.425781 C 451.636719 431.425781 451.433594 428.125 450.933594 424.726562 C 450.335938 420.925781 449.734375 417.226562 449.234375 413.425781 C 449.035156 412.125 446.835938 412.425781 446.933594 413.726562 C 447.234375 418.726562 447.636719 423.625 448.234375 428.527344 C 446.933594 427.324219 445.535156 426.324219 444.035156 425.527344 C 443.636719 425.324219 443.136719 425.425781 442.835938 425.726562 C 441.234375 418.226562 438.433594 410.925781 433.734375 404.824219 C 432.734375 403.527344 430.734375 404.625 431.433594 406.125 C 435.433594 415.125 439.136719 423.925781 439.933594 433.824219 C 440.234375 437.425781 440.335938 441.125 439.835938 444.824219 C 438.636719 438.226562 435.734375 431.726562 432.433594 426.027344 C 431.933594 425.125 430.636719 425.925781 431.035156 426.824219 C 434.835938 435.027344 436.136719 443.125 437.433594 451.824219 C 436.234375 453.425781 434.636719 454.625 432.636719 455.527344 C 431.734375 451.324219 430.835938 447.226562 430.433594 442.925781 C 430.335938 441.824219 428.636719 441.824219 428.734375 442.925781 C 428.835938 447.527344 429.035156 452.027344 429.835938 456.527344 C 429.335938 456.625 428.734375 456.824219 428.234375 456.925781 C 426.335938 457.324219 424.535156 457.625 422.636719 457.925781 C 422.835938 448.925781 419.933594 438.625 416.433594 430.726562 C 416.035156 429.925781 414.636719 430.527344 414.933594 431.324219 C 416.636719 436.726562 417.835938 442.226562 418.535156 447.824219 C 418.933594 451.324219 418.933594 454.925781 419.433594 458.425781 C 417.734375 458.726562 416.136719 458.925781 414.433594 459.226562 C 409.535156 460.027344 403.835938 461.824219 398.933594 461.527344 C 398.035156 456.125 396.636719 450.824219 395.835938 445.324219 C 394.835938 438.226562 393.535156 431.425781 391.136719 424.726562 C 390.734375 423.425781 388.734375 424.027344 389.136719 425.324219 C 392.535156 436.425781 391.035156 449.625 394.933594 460.625 C 393.734375 460.125 392.636719 459.527344 391.433594 458.925781 C 390.636719 453.226562 389.136719 447.425781 388.035156 441.824219 C 387.835938 440.824219 386.035156 441.027344 386.136719 442.125 C 386.636719 446.925781 386.933594 452.027344 387.734375 456.925781 C 387.335938 456.726562 386.933594 456.527344 386.535156 456.324219 C 386.835938 455.824219 387.035156 455.226562 386.636719 454.527344 C 383.035156 446.925781 383.734375 437.425781 382.535156 429.226562 C 381.335938 420.425781 379.636719 411.625 377.734375 402.925781 C 377.535156 402.027344 375.835938 402.125 376.035156 403.125 C 377.234375 413.324219 378.835938 423.527344 379.835938 433.824219 C 380.535156 440.925781 379.933594 448.527344 383.035156 455.125 C 380.433594 454.527344 377.835938 454.425781 375.136719 454.824219 C 373.734375 455.027344 373.636719 457.027344 375.136719 457.027344 C 381.234375 456.925781 384.636719 459.324219 388.734375 461.824219 C 388.933594 462.425781 389.035156 463.125 389.234375 463.726562 C 389.636719 465.027344 391.734375 464.925781 391.835938 463.527344 C 392.335938 463.824219 392.835938 464.027344 393.433594 464.324219 C 394.636719 464.824219 395.835938 465.125 396.933594 465.324219 C 397.335938 465.625 397.933594 465.625 398.433594 465.425781 C 401.335938 465.527344 404.234375 465.027344 407.136719 464.527344 C 413.636719 463.527344 420.136719 462.527344 426.535156 461.425781 C 430.835938 460.726562 435.335938 460.324219 438.835938 457.226562 C 444.835938 451.925781 444.734375 442.226562 444.234375 434.925781 C 444.035156 432.324219 443.734375 429.824219 443.234375 427.226562 C 445.734375 429.226562 447.835938 431.425781 449.433594 434.226562 C 449.433594 434.324219 449.535156 434.324219 449.535156 434.425781 C 450.636719 436.324219 451.636719 438.425781 453.234375 440.027344 C 454.933594 441.726562 457.933594 442.925781 460.234375 442.226562 C 461.035156 446.625 463.136719 450.527344 467.835938 452.726562 C 478.035156 457.625 480.433594 447.925781 487.535156 443.625 C 492.835938 440.425781 499.835938 441.824219 505.636719 441.324219 C 510.234375 440.925781 514.535156 439.527344 518.335938 436.925781 C 523.234375 433.625 526.734375 429.027344 528.535156 423.726562 C 529.035156 423.625 529.535156 423.125 529.636719 422.527344 C 529.734375 421.625 529.636719 420.726562 529.535156 419.925781 C 529.734375 418.726562 529.933594 417.425781 529.933594 416.125 C 529.933594 414.625 528.035156 414.027344 526.933594 414.726562 Z M 315.335938 263.625 C 317.234375 263.226562 319.136719 262.925781 320.933594 262.625 C 320.734375 262.324219 320.535156 261.824219 320.535156 261.425781 C 318.933594 262.125 317.136719 262.824219 315.335938 263.625 Z M 367.535156 455.824219 C 355.035156 450.824219 349.734375 438.324219 348.234375 425.625 C 347.035156 415.824219 348.035156 406.027344 347.636719 396.125 C 347.136719 386.027344 344.933594 376.324219 341.835938 366.824219 C 338.835938 357.625 335.433594 348.324219 331.433594 339.527344 C 328.234375 332.226562 323.234375 326.027344 320.136719 318.625 C 314.433594 305.027344 306.636719 293.425781 295.433594 284.425781 C 294.933594 284.324219 294.535156 284.226562 294.035156 284.125 C 293.636719 284.324219 293.136719 284.226562 292.636719 284.027344 C 292.433594 283.925781 292.335938 283.824219 292.136719 283.726562 C 292.035156 283.726562 291.835938 283.625 291.734375 283.625 C 290.335938 283.324219 290.136719 281.925781 290.636719 280.925781 C 290.535156 280.824219 290.335938 280.726562 290.234375 280.625 C 288.234375 280.824219 286.335938 280.925781 284.335938 281.625 C 281.636719 282.527344 276.734375 284.027344 275.335938 286.726562 C 274.835938 287.625 273.636719 286.824219 274.035156 285.925781 C 275.535156 282.425781 279.035156 281.027344 282.335938 279.625 C 283.535156 279.125 284.835938 278.625 286.234375 278.226562 C 285.835938 278.226562 285.433594 278.324219 285.035156 278.324219 C 284.636719 278.625 284.136719 278.726562 283.636719 278.527344 C 273.933594 279.925781 266.933594 286.125 260.933594 294.027344 C 260.335938 294.824219 259.035156 294.125 259.636719 293.226562 C 263.234375 287.925781 267.734375 281.925781 273.335938 278.226562 C 268.535156 279.726562 264.234375 282.527344 259.835938 285.527344 C 254.535156 289.125 249.035156 292.625 246.335938 298.726562 C 245.835938 299.824219 244.035156 299.027344 244.535156 297.925781 C 247.136719 291.125 252.734375 287.027344 258.335938 282.824219 C 260.433594 281.226562 262.636719 279.527344 265.035156 278.027344 C 255.835938 281.625 247.835938 289.226562 242.136719 296.824219 C 233.636719 308.324219 229.734375 321.425781 229.035156 335.527344 C 229.035156 336.425781 227.636719 336.425781 227.535156 335.527344 C 226.636719 319.324219 232.835938 303.027344 243.136719 290.625 C 247.734375 285.125 254.136719 279.226562 261.335938 275.527344 C 258.835938 275.824219 256.335938 276.027344 253.835938 276.527344 C 246.335938 278.027344 237.734375 282.726562 232.335938 288.324219 C 231.636719 289.027344 230.636719 288.027344 231.234375 287.226562 C 239.433594 276.925781 250.835938 274.125 262.734375 272.027344 C 260.933594 272.027344 259.136719 271.925781 257.335938 272.027344 C 250.933594 272.324219 244.933594 273.527344 239.335938 276.726562 C 230.734375 281.625 220.835938 289.527344 215.535156 298.027344 C 214.933594 298.925781 213.535156 298.125 214.136719 297.226562 C 219.433594 287.726562 228.535156 279.527344 237.734375 273.824219 C 240.835938 271.925781 244.535156 270.425781 248.535156 269.324219 C 242.335938 269.527344 236.234375 270.324219 230.136719 271.324219 C 211.734375 274.625 192.136719 279.726562 175.835938 289.226562 C 142.933594 308.625 125.835938 348.226562 108.835938 380.527344 C 107.835938 382.527344 104.734375 381.125 105.335938 379.027344 C 110.234375 359.925781 122.933594 341.925781 133.734375 325.726562 C 135.933594 322.425781 138.234375 319.125 140.535156 315.925781 C 130.335938 318.324219 120.035156 319.726562 111.835938 327.425781 C 105.234375 333.625 104.335938 344.226562 96.734375 349.226562 C 83.636719 357.824219 65.234375 345.125 63.535156 331.027344 C 63.433594 330.027344 64.933594 329.726562 65.335938 330.527344 C 66.234375 332.125 67.136719 333.824219 68.234375 335.425781 C 77.335938 331.226562 87.136719 329.726562 95.035156 322.726562 C 95.636719 322.226562 96.433594 323.027344 95.933594 323.625 C 89.234375 330.527344 79.433594 335.925781 69.835938 337.726562 C 73.933594 343.226562 79.234375 347.625 86.835938 347.726562 C 98.636719 347.925781 99.734375 335.324219 105.535156 327.925781 C 114.335938 316.824219 130.636719 311.625 144.433594 311.027344 C 151.835938 301.824219 160.136719 293.324219 170.234375 287.027344 C 186.535156 276.726562 206.433594 271.425781 225.234375 267.925781 C 234.535156 266.125 244.234375 265.226562 253.734375 265.925781 C 255.835938 266.125 257.933594 266.324219 260.035156 266.625 C 249.335938 263.027344 237.933594 260.925781 226.835938 259.425781 C 225.933594 259.324219 226.234375 258.027344 227.035156 257.925781 C 235.335938 257.625 243.636719 259.125 251.636719 260.925781 C 255.035156 261.625 258.636719 262.226562 262.136719 263.324219 C 254.335938 256.625 245.734375 250.925781 236.136719 246.628906 C 229.035156 243.425781 221.535156 241.027344 213.835938 239.425781 C 209.433594 238.527344 201.535156 239.425781 198.136719 236.027344 C 197.535156 235.328125 198.335938 234.328125 199.136719 234.726562 C 202.136719 236.527344 207.535156 236.027344 211.035156 236.425781 C 214.433594 236.824219 217.933594 237.425781 221.234375 238.226562 C 227.636719 239.726562 233.933594 241.828125 239.933594 244.527344 C 250.136719 249.128906 259.835938 255.425781 268.035156 263.125 C 250.433594 239.328125 220.835938 229.328125 192.734375 220.726562 C 191.835938 220.425781 192.234375 219.226562 193.136719 219.425781 C 226.335938 225.425781 261.933594 240.527344 278.035156 272.027344 C 278.335938 272.027344 278.535156 272.125 278.835938 272.125 C 278.933594 272.027344 279.136719 272.027344 279.335938 272.027344 C 279.734375 272.125 280.035156 272.226562 280.136719 272.324219 C 280.035156 271.324219 279.933594 270.226562 280.035156 269.027344 C 269.335938 250.125 254.035156 235.027344 233.234375 227.328125 C 232.636719 227.128906 232.835938 226.027344 233.535156 226.328125 C 252.636719 233.027344 270.335938 245.828125 280.835938 263.425781 C 281.136719 262.226562 281.433594 260.925781 281.734375 259.726562 C 281.535156 259.625 281.335938 259.425781 281.234375 259.226562 C 273.933594 247.527344 266.734375 236.628906 256.433594 227.226562 C 246.335938 218.027344 234.636719 210.824219 222.234375 205.425781 C 221.535156 205.128906 222.035156 203.925781 222.734375 204.128906 C 243.234375 211.226562 263.535156 225.527344 276.234375 244.027344 C 275.835938 243.128906 275.636719 242.128906 275.433594 241.128906 C 271.433594 232.726562 266.734375 224.628906 260.734375 217.628906 C 257.535156 213.925781 254.234375 210.425781 250.734375 207.027344 C 250.234375 207.425781 249.335938 207.324219 249.035156 206.628906 C 248.933594 206.128906 248.734375 205.628906 248.636719 205.128906 C 246.734375 203.324219 244.835938 201.628906 242.933594 199.925781 C 242.636719 199.824219 242.433594 199.628906 242.234375 199.324219 C 240.035156 197.425781 237.734375 195.527344 235.535156 193.628906 C 216.433594 178.128906 194.734375 166.128906 171.636719 157.726562 C 169.234375 156.824219 170.234375 153.027344 172.734375 153.824219 C 189.335938 159.726562 205.136719 167.628906 219.734375 177.324219 C 216.433594 172.726562 213.734375 167.726562 210.535156 163.128906 C 206.035156 156.527344 201.234375 150.226562 196.433594 143.925781 C 188.535156 133.527344 180.335938 122.128906 177.933594 109.027344 C 176.234375 100.128906 176.535156 86.425781 187.035156 82.925781 C 189.035156 82.226562 189.933594 82.726562 191.835938 82.425781 C 194.136719 82.027344 195.636719 81.726562 196.734375 81.527344 C 196.636719 80.425781 198.035156 79.726562 198.933594 80.027344 C 199.234375 79.328125 199.433594 78.226562 201.234375 76.425781 C 202.433594 75.226562 203.835938 74.726562 205.234375 74.527344 C 205.535156 74.328125 205.933594 74.328125 206.234375 74.527344 C 207.734375 74.527344 209.335938 74.925781 210.933594 75.425781 C 210.835938 75.226562 210.734375 75.027344 210.734375 74.828125 C 210.433594 73.828125 211.835938 72.828125 212.636719 73.726562 C 216.734375 78.726562 218.636719 86.125 220.433594 92.226562 C 220.734375 93.125 219.335938 93.527344 219.035156 92.625 C 217.734375 89.328125 216.136719 85.925781 214.636719 82.726562 C 213.734375 80.828125 212.535156 78.925781 211.734375 77.027344 C 210.734375 76.828125 209.734375 76.726562 208.835938 76.726562 C 212.136719 80.527344 213.234375 85.828125 214.335938 90.828125 C 216.636719 101.027344 220.234375 110.726562 224.835938 120.128906 C 225.234375 120.925781 224.035156 121.628906 223.636719 120.824219 C 219.835938 113.726562 216.535156 106.726562 213.933594 99.125 C 211.335938 91.625 209.636719 84.125 205.433594 77.425781 C 204.335938 77.828125 203.136719 78.328125 202.035156 79.125 C 201.535156 80.125 201.035156 81.125 200.535156 82.125 C 209.433594 101.527344 215.335938 123.628906 229.433594 140.027344 C 230.035156 140.726562 229.035156 141.828125 228.335938 141.128906 C 220.835938 132.828125 216.035156 123.726562 211.335938 113.527344 C 206.835938 103.925781 202.234375 94.328125 198.035156 84.527344 C 194.535156 86.226562 190.234375 84.027344 186.433594 86.328125 C 173.835938 93.925781 183.234375 115.527344 188.636719 124.628906 C 194.234375 134.128906 201.535156 142.527344 208.234375 151.328125 C 214.933594 160.226562 223.035156 170.027344 226.636719 180.628906 C 226.835938 181.128906 226.636719 181.628906 226.433594 182.027344 C 230.535156 184.925781 234.636719 188.027344 238.535156 191.328125 C 239.136719 191.828125 239.835938 192.425781 240.433594 192.925781 C 236.433594 180.527344 231.234375 168.828125 224.535156 157.425781 C 223.933594 156.425781 225.433594 155.628906 226.035156 156.527344 C 234.636719 168.828125 241.433594 182.726562 245.535156 197.226562 C 246.335938 197.925781 247.136719 198.628906 247.933594 199.328125 C 247.535156 196.628906 247.136719 193.925781 246.535156 191.328125 C 245.335938 186.128906 243.636719 181.226562 242.136719 176.128906 C 241.933594 175.527344 242.835938 175.128906 243.136719 175.726562 C 246.835938 183.527344 250.234375 193.425781 251.136719 202.425781 C 256.535156 207.628906 261.734375 213.128906 266.234375 219.128906 C 266.234375 219.226562 266.335938 219.226562 266.335938 219.328125 C 264.035156 205.628906 264.933594 189.828125 266.933594 176.425781 C 267.035156 175.527344 268.433594 175.828125 268.433594 176.628906 C 268.433594 184.425781 268.035156 192.226562 268.234375 200.027344 C 268.433594 207.828125 269.734375 215.628906 269.636719 223.328125 C 269.636719 223.527344 269.535156 223.726562 269.535156 223.828125 C 271.734375 227.328125 273.636719 230.828125 275.335938 234.527344 C 275.335938 231.628906 275.535156 228.726562 275.433594 226.328125 C 275.136719 215.828125 275.335938 205.328125 275.335938 194.828125 C 275.335938 193.628906 277.136719 193.726562 277.136719 194.828125 C 277.335938 203.527344 277.933594 212.128906 278.335938 220.828125 C 278.734375 229.328125 278.136719 238.527344 280.933594 246.628906 C 281.136719 247.128906 280.933594 247.527344 280.636719 247.828125 C 281.433594 250.027344 282.234375 252.226562 283.035156 254.527344 C 283.136719 254.824219 283.035156 255.027344 282.933594 255.125 C 283.136719 255.425781 283.234375 255.824219 283.433594 256.125 C 284.234375 253.527344 285.035156 251.324219 285.535156 249.925781 C 286.335938 247.726562 287.136719 245.425781 288.035156 243.226562 C 288.136719 229.527344 288.136719 215.726562 287.433594 202.128906 C 287.335938 201.027344 289.035156 201.027344 289.136719 202.128906 C 289.835938 213.628906 290.535156 225.027344 290.933594 236.425781 C 292.535156 232.925781 294.234375 229.328125 296.035156 225.925781 C 295.234375 216.226562 296.433594 206.027344 296.835938 196.425781 C 297.234375 185.925781 297.636719 175.328125 298.035156 164.828125 C 298.035156 163.628906 299.933594 163.628906 299.933594 164.828125 C 299.835938 175.828125 299.734375 186.828125 299.636719 197.925781 C 299.535156 204.925781 299.933594 212.226562 299.535156 219.425781 C 300.636719 217.328125 301.734375 215.328125 302.933594 213.328125 C 303.835938 211.628906 304.835938 210.027344 305.933594 208.425781 C 307.433594 184.027344 308.933594 159.628906 308.933594 135.226562 C 308.933594 134.226562 310.433594 134.226562 310.535156 135.226562 C 310.835938 158.027344 310.835938 180.925781 309.234375 203.726562 C 310.035156 202.628906 310.933594 201.527344 311.835938 200.425781 C 311.433594 200.226562 311.234375 199.925781 311.234375 199.328125 C 312.234375 188.425781 313.535156 177.628906 313.734375 166.628906 C 313.734375 165.628906 315.335938 165.628906 315.335938 166.628906 C 315.335938 177.027344 315.234375 187.425781 313.933594 197.726562 C 319.035156 191.527344 324.535156 185.726562 329.933594 179.828125 C 340.234375 168.328125 350.835938 157.226562 361.335938 145.925781 C 361.734375 145.527344 362.335938 146.128906 361.933594 146.527344 C 353.433594 156.527344 345.234375 166.726562 336.636719 176.628906 C 328.234375 186.328125 318.734375 195.726562 311.335938 206.226562 C 306.535156 213.027344 302.433594 220.726562 298.734375 228.425781 C 298.734375 228.726562 298.535156 228.925781 298.433594 229.027344 C 297.136719 231.726562 295.933594 234.328125 294.734375 236.925781 C 291.933594 243.027344 289.433594 249.328125 287.734375 255.925781 C 286.933594 259.027344 284.933594 265.027344 284.636719 269.925781 C 285.035156 270.824219 285.535156 271.726562 285.933594 272.726562 C 286.335938 273.625 285.933594 274.425781 285.234375 274.824219 C 285.335938 274.925781 285.335938 275.027344 285.433594 275.226562 C 285.933594 275.226562 286.535156 275.226562 287.035156 275.324219 C 288.234375 275.425781 288.835938 276.527344 288.535156 277.425781 C 288.636719 277.425781 288.835938 277.425781 288.933594 277.527344 C 289.234375 277.726562 289.535156 277.824219 289.835938 278.027344 C 291.234375 277.925781 292.636719 278.125 293.933594 278.726562 C 294.234375 278.925781 294.433594 279.226562 294.433594 279.527344 C 294.535156 279.425781 294.734375 279.425781 294.835938 279.324219 C 295.933594 275.625 297.035156 271.925781 298.136719 268.226562 C 297.933594 267.625 298.035156 267.027344 298.636719 266.425781 L 298.734375 266.324219 C 300.835938 259.425781 303.136719 252.425781 305.335938 245.527344 C 308.636719 235.226562 311.535156 224.527344 316.835938 215.027344 C 321.933594 205.925781 328.734375 197.828125 335.234375 189.726562 C 342.636719 180.527344 350.335938 171.328125 358.734375 162.925781 C 359.234375 162.425781 359.933594 163.128906 359.535156 163.726562 C 345.734375 180.628906 330.136719 197.328125 319.835938 216.726562 C 314.433594 226.828125 311.835938 238.425781 308.535156 249.328125 C 307.636719 252.226562 306.734375 255.027344 305.835938 257.925781 C 307.335938 255.824219 309.035156 253.925781 310.734375 252.027344 C 309.734375 251.925781 309.433594 250.324219 310.335938 249.628906 C 319.234375 242.925781 327.535156 237.425781 333.734375 227.925781 C 339.535156 219.128906 340.835938 209.226562 345.035156 199.726562 C 348.535156 191.925781 354.835938 186.128906 360.734375 180.226562 C 369.835938 171.128906 375.433594 161.527344 376.835938 148.527344 C 376.933594 147.425781 378.636719 147.328125 378.636719 148.527344 C 378.535156 151.925781 378.035156 155.425781 377.136719 158.726562 C 384.734375 154.425781 389.835938 146.925781 396.035156 140.828125 C 402.035156 134.925781 408.636719 129.425781 415.835938 125.128906 C 429.933594 116.828125 447.933594 111.726562 464.335938 113.628906 C 472.433594 114.527344 472.933594 120.527344 479.335938 124.425781 C 482.234375 126.226562 486.035156 128.027344 484.636719 132.226562 C 482.933594 137.328125 473.933594 139.527344 469.535156 141.027344 C 464.035156 142.925781 458.433594 144.527344 453.433594 147.226562 C 453.433594 147.925781 453.136719 148.527344 452.234375 148.726562 C 451.636719 148.828125 450.933594 149.027344 450.335938 149.128906 C 450.035156 149.328125 449.734375 149.527344 449.335938 149.828125 C 449.535156 149.828125 449.636719 149.925781 449.734375 150.027344 C 450.835938 149.828125 451.835938 151.425781 450.835938 152.226562 C 450.734375 152.328125 450.636719 152.425781 450.433594 152.527344 C 450.234375 153.226562 449.636719 153.828125 448.636719 153.828125 C 443.335938 157.128906 436.335938 158.828125 430.535156 159.925781 C 429.535156 160.128906 429.136719 158.726562 430.136719 158.425781 C 433.835938 157.226562 437.433594 155.828125 440.933594 154.226562 C 442.035156 153.726562 443.136719 153.128906 444.234375 152.628906 C 444.136719 152.628906 444.136719 152.527344 444.136719 152.527344 C 443.734375 152.226562 443.433594 151.925781 443.335938 151.527344 C 439.433594 153.027344 435.636719 154.925781 431.835938 156.628906 C 426.734375 158.925781 419.335938 160.726562 415.035156 164.425781 C 414.433594 164.925781 413.636719 164.328125 413.933594 163.628906 C 416.335938 158.925781 425.734375 156.328125 430.335938 154.128906 C 435.835938 151.425781 441.535156 148.226562 447.535156 146.527344 C 455.535156 141.027344 465.136719 139.425781 474.136719 135.425781 C 476.035156 134.628906 481.734375 132.527344 479.335938 128.925781 C 478.835938 128.226562 476.835938 127.925781 476.035156 127.527344 C 474.636719 126.726562 473.535156 125.925781 472.433594 124.628906 C 470.234375 122.027344 470.535156 121.527344 466.835938 119.628906 C 465.234375 118.828125 464.234375 118.328125 463.234375 118.027344 C 463.234375 118.027344 463.136719 118.027344 463.136719 118.128906 C 454.335938 120.425781 445.535156 121.527344 436.933594 124.726562 C 427.835938 128.128906 419.234375 132.925781 411.433594 138.628906 C 410.535156 139.328125 409.335938 137.726562 410.234375 137.027344 C 417.734375 130.828125 427.035156 124.828125 436.835938 120.726562 C 424.734375 124.128906 413.535156 130.226562 403.835938 138.328125 C 394.835938 145.925781 387.734375 157.527344 376.636719 162.226562 C 376.433594 162.328125 376.335938 162.328125 376.136719 162.328125 C 374.535156 167.226562 372.035156 171.925781 368.933594 176.027344 C 363.433594 183.226562 356.636719 188.828125 351.636719 195.925781 C 357.433594 191.425781 365.433594 188.726562 371.734375 186.925781 C 372.835938 186.628906 373.234375 188.226562 372.234375 188.628906 C 367.234375 190.226562 362.433594 192.328125 358.035156 195.027344 C 353.734375 197.726562 351.035156 201.027344 347.636719 204.527344 C 347.433594 204.726562 347.335938 204.726562 347.136719 204.828125 C 346.933594 205.226562 346.835938 205.628906 346.636719 206.027344 C 346.136719 207.425781 345.734375 208.925781 345.234375 210.328125 C 350.433594 205.128906 356.035156 200.425781 362.835938 197.226562 C 371.535156 193.226562 380.835938 190.628906 390.136719 188.425781 C 390.933594 188.226562 391.234375 189.425781 390.433594 189.628906 C 381.433594 191.925781 372.234375 194.925781 363.933594 199.128906 C 355.734375 203.328125 349.335938 209.828125 343.335938 216.726562 C 343.136719 216.925781 342.933594 217.128906 342.734375 217.128906 C 342.136719 218.726562 341.433594 220.328125 340.734375 221.925781 C 359.835938 202.128906 386.535156 190.925781 414.234375 191.027344 C 415.136719 191.027344 415.136719 192.425781 414.234375 192.527344 C 383.035156 193.726562 354.734375 209.027344 335.734375 233.628906 C 335.335938 234.226562 334.636719 234.328125 334.035156 234.128906 C 333.535156 234.925781 333.035156 235.628906 332.433594 236.425781 C 355.335938 224.527344 384.433594 221.128906 407.535156 224.425781 C 408.234375 224.527344 408.035156 225.628906 407.335938 225.628906 C 375.535156 223.328125 336.335938 230.726562 313.636719 255.125 C 334.035156 241.628906 357.933594 234.726562 382.734375 234.328125 C 383.535156 234.328125 383.535156 235.527344 382.734375 235.628906 C 354.335938 236.628906 327.433594 247.726562 305.636719 265.625 C 305.136719 266.324219 304.734375 267.125 304.335938 267.925781 C 305.734375 267.324219 307.136719 266.726562 308.535156 266.226562 C 308.535156 265.925781 308.535156 265.625 308.835938 265.527344 C 314.136719 262.324219 319.636719 259.625 325.234375 257.226562 C 325.234375 257.226562 325.234375 257.125 325.335938 257.125 C 331.835938 251.527344 341.636719 248.425781 349.835938 246.226562 C 359.234375 243.628906 368.835938 242.726562 378.535156 242.824219 C 379.433594 242.824219 379.433594 244.226562 378.535156 244.226562 C 369.035156 244.824219 359.734375 246.425781 350.636719 249.128906 C 349.335938 249.527344 348.035156 249.925781 346.835938 250.425781 C 359.734375 247.628906 373.035156 246.925781 386.136719 248.324219 C 399.933594 249.824219 412.933594 253.925781 425.734375 259.125 C 437.933594 264.125 451.136719 269.125 462.535156 275.824219 C 464.335938 276.925781 463.136719 279.925781 461.035156 279.226562 C 448.535156 275.226562 436.734375 268.425781 424.535156 263.324219 C 412.535156 258.324219 400.136719 254.125 387.136719 252.324219 C 373.734375 250.425781 359.933594 250.824219 346.734375 253.425781 C 342.535156 254.226562 338.535156 255.425781 334.636719 256.726562 C 350.433594 254.125 366.734375 256.925781 382.335938 260.625 C 383.234375 260.824219 382.835938 262.226562 381.933594 262.027344 C 363.535156 259.324219 344.933594 256.527344 326.933594 262.226562 C 344.433594 261.125 362.433594 266.125 379.335938 271.425781 C 380.234375 271.726562 379.835938 273.125 378.933594 272.824219 C 353.734375 266.125 326.335938 260.125 302.035156 273.027344 C 301.734375 273.125 301.535156 273.226562 301.335938 273.226562 C 301.136719 273.726562 300.933594 274.324219 300.835938 274.824219 C 319.535156 266.027344 344.234375 268.824219 363.433594 273.527344 C 384.035156 278.625 406.535156 285.925781 421.535156 301.824219 C 422.136719 302.425781 421.234375 303.425781 420.636719 302.726562 C 405.835938 288.125 383.835938 281.425781 364.035156 276.726562 C 353.335938 274.226562 342.234375 272.726562 331.234375 273.027344 C 322.136719 273.226562 313.933594 275.324219 305.535156 277.625 C 305.636719 277.625 305.734375 277.625 305.835938 277.625 C 312.636719 276.625 319.535156 275.726562 326.433594 275.324219 C 338.535156 274.726562 350.835938 275.824219 362.636719 278.527344 C 386.636719 284.125 408.136719 296.625 424.035156 315.527344 C 424.535156 316.125 423.636719 317.125 423.136719 316.425781 C 408.136719 299.726562 387.835938 288.125 366.234375 282.527344 C 355.136719 279.726562 343.734375 278.324219 332.335938 278.625 C 325.636719 278.824219 318.933594 279.527344 312.335938 280.425781 C 309.636719 280.824219 307.035156 281.226562 304.335938 281.726562 C 303.835938 281.824219 303.335938 281.925781 302.933594 281.925781 C 317.335938 286.027344 330.535156 292.625 343.035156 301.226562 C 343.835938 301.726562 343.136719 303.027344 342.234375 302.527344 C 330.035156 294.925781 316.636719 289.625 302.835938 285.925781 C 310.035156 291.925781 316.136719 299.125 320.734375 307.527344 C 324.636719 314.726562 327.734375 322.226562 332.136719 329.226562 C 336.035156 335.527344 338.636719 342.527344 341.433594 349.425781 C 348.136719 366.425781 353.535156 383.324219 353.835938 401.726562 C 354.035156 415.925781 353.234375 432.027344 361.035156 443.824219 C 360.835938 442.125 360.734375 440.324219 360.734375 438.425781 C 360.734375 430.625 361.136719 422.824219 361.433594 414.925781 C 361.433594 413.824219 363.136719 413.824219 363.136719 414.925781 C 363.335938 420.527344 363.535156 426.226562 363.535156 431.824219 C 363.636719 438.027344 362.933594 444.425781 366.433594 449.824219 C 366.535156 449.925781 366.535156 450.027344 366.535156 450.125 C 367.734375 451.125 368.933594 452.027344 370.335938 452.925781 C 370.136719 453.824219 369.234375 456.527344 367.535156 455.824219 Z M 328.234375 455.027344 C 328.734375 457.425781 332.433594 456.824219 332.433594 454.425781 C 332.433594 442.324219 326.734375 430.625 321.535156 420.027344 C 315.136719 407.027344 308.433594 394.324219 304.933594 380.226562 C 297.835938 351.824219 300.734375 321.527344 303.636719 292.726562 C 303.734375 291.726562 302.035156 291.527344 301.933594 292.527344 C 297.335938 320.324219 294.636719 348.425781 299.835938 376.324219 C 302.234375 389.527344 306.933594 401.726562 312.835938 413.726562 C 319.433594 427.324219 324.933594 440.125 328.234375 455.027344 Z M 332.335938 463.925781 C 330.234375 465.625 328.734375 467.824219 326.835938 469.726562 C 322.835938 473.726562 320.933594 473.925781 315.636719 472.625 C 310.933594 471.425781 306.433594 471.625 301.636719 472.527344 C 300.136719 472.824219 300.535156 475.027344 301.933594 475.125 C 307.136719 475.226562 311.136719 475.625 316.136719 477.324219 C 318.433594 478.125 320.335938 478.527344 322.734375 477.925781 C 328.035156 476.527344 332.433594 470.625 334.734375 465.925781 C 335.734375 464.125 333.734375 462.726562 332.335938 463.925781 Z M 244.734375 450.726562 C 244.734375 449.125 244.734375 447.527344 244.734375 446.027344 C 244.734375 446.125 244.734375 446.226562 244.636719 446.324219 C 244.234375 447.226562 243.835938 448.125 243.535156 449.125 C 243.835938 449.824219 244.035156 450.527344 244.433594 451.226562 C 244.433594 450.925781 244.636719 450.824219 244.734375 450.726562 Z M 294.433594 474.527344 C 291.136719 474.324219 288.933594 473.027344 286.035156 471.625 C 279.636719 468.625 275.136719 470.125 270.535156 475.226562 C 266.535156 479.726562 263.035156 484.726562 256.433594 484.425781 C 246.035156 483.925781 245.136719 476.125 245.335938 467.824219 C 244.933594 462.925781 244.835938 458.027344 244.734375 453.027344 C 244.636719 452.824219 244.535156 452.527344 244.433594 452.324219 C 244.136719 453.125 243.136719 453.625 242.335938 453.027344 C 240.335938 462.925781 243.734375 471.824219 243.636719 482.425781 C 243.636719 488.324219 241.234375 494.027344 234.835938 495.226562 C 228.636719 496.324219 223.035156 491.125 216.933594 494.726562 C 214.535156 496.125 213.335938 498.324219 210.433594 499.324219 C 204.835938 501.125 198.335938 499.027344 195.535156 493.824219 C 195.535156 493.726562 195.535156 493.726562 195.433594 493.625 C 194.535156 494.324219 192.835938 493.527344 193.335938 492.226562 C 196.335938 483.226562 200.335938 474.125 204.136719 465.425781 C 204.535156 464.527344 205.734375 465.226562 205.636719 466.027344 C 203.933594 474.726562 200.835938 484.425781 196.335938 492.226562 C 196.636719 492.226562 196.933594 492.226562 197.136719 492.527344 C 201.234375 497.125 206.835938 499.027344 212.136719 494.925781 C 214.234375 493.324219 215.535156 490.726562 218.035156 489.625 C 219.734375 488.824219 221.335938 488.824219 223.136719 489.027344 C 225.234375 489.324219 227.234375 490.226562 229.335938 490.527344 C 232.835938 491.125 237.234375 489.125 238.835938 485.726562 C 240.636719 481.824219 238.234375 474.726562 237.636719 470.824219 C 237.136719 467.324219 236.535156 463.824219 236.535156 460.226562 C 236.535156 455.925781 237.234375 452.027344 239.234375 448.625 C 235.933594 441.226562 237.136719 429.726562 236.734375 422.925781 C 236.035156 408.527344 235.933594 394.125 235.835938 379.625 C 235.835938 378.125 238.136719 378.125 238.136719 379.625 C 238.433594 391.625 239.136719 403.726562 239.835938 415.726562 C 240.335938 424.925781 239.933594 435.527344 242.234375 444.824219 C 242.335938 444.726562 242.433594 444.625 242.535156 444.527344 C 243.433594 443.726562 244.433594 444.226562 244.734375 445.125 C 244.734375 441.324219 244.636719 437.527344 244.535156 433.726562 C 244.035156 420.226562 243.535156 406.726562 242.933594 393.226562 C 242.933594 392.125 244.433594 392.226562 244.535156 393.226562 C 245.933594 406.726562 247.136719 420.226562 248.035156 433.726562 C 248.835938 447.027344 250.535156 461.027344 249.335938 474.324219 L 249.335938 474.425781 C 249.933594 476.027344 250.734375 477.527344 251.933594 478.527344 C 251.835938 472.625 253.433594 466.824219 253.535156 460.824219 C 253.734375 452.925781 253.136719 444.824219 252.636719 436.824219 C 252.535156 435.726562 254.335938 435.726562 254.433594 436.824219 C 255.136719 444.425781 256.433594 452.027344 256.734375 459.726562 C 257.035156 466.527344 255.734375 473.324219 255.535156 480.125 C 256.535156 480.226562 257.636719 480.226562 258.835938 479.925781 C 262.636719 479.027344 265.234375 474.824219 267.636719 472.125 C 268.433594 471.226562 269.234375 470.425781 270.136719 469.625 C 269.535156 457.125 269.433594 444.824219 268.234375 432.324219 C 268.136719 431.226562 269.933594 431.027344 270.136719 432.027344 C 272.535156 443.226562 273.933594 455.625 273.234375 467.226562 C 274.835938 466.226562 276.636719 465.425781 278.636719 465.226562 C 278.335938 449.226562 278.933594 433.226562 277.734375 417.125 C 276.433594 399.527344 273.636719 382.226562 270.636719 364.824219 C 270.433594 363.824219 271.933594 363.324219 272.234375 364.425781 C 276.636719 380.824219 279.335938 397.527344 281.035156 414.324219 C 282.734375 431.027344 284.136719 448.625 282.535156 465.324219 C 287.035156 466.324219 291.335938 469.425781 295.433594 471.125 C 296.835938 472.027344 296.035156 474.625 294.433594 474.527344 Z M 192.535156 488.027344 C 192.335938 487.925781 192.136719 487.824219 191.933594 487.625 C 193.335938 481.027344 195.234375 475.027344 198.636719 468.925781 C 201.234375 464.226562 205.433594 459.625 206.535156 454.226562 C 206.636719 453.726562 206.035156 453.324219 205.636719 453.726562 C 198.234375 462.226562 190.035156 474.425781 188.835938 486.226562 C 184.035156 484.527344 178.933594 484.925781 173.636719 484.625 C 172.335938 484.527344 171.136719 484.425781 169.835938 484.226562 C 174.335938 477.625 177.933594 470.027344 181.535156 463.027344 C 184.835938 456.726562 187.433594 450.527344 189.136719 443.527344 C 189.335938 442.527344 187.835938 442.027344 187.535156 443.125 C 182.636719 457.625 172.335938 469.527344 166.535156 483.527344 C 164.835938 483.027344 163.136719 482.226562 161.734375 481.125 C 166.234375 474.226562 170.136719 467.027344 173.433594 459.425781 C 173.933594 458.324219 172.335938 457.324219 171.734375 458.425781 C 168.234375 465.625 164.136719 472.625 159.636719 479.226562 C 159.234375 478.726562 158.835938 478.226562 158.433594 477.625 C 156.234375 474.324219 156.335938 470.824219 155.835938 467.226562 C 157.933594 464.125 159.933594 460.925781 162.335938 457.925781 C 166.234375 453.226562 170.433594 448.824219 174.835938 444.625 C 175.636719 443.824219 174.433594 442.726562 173.636719 443.425781 C 168.433594 447.726562 163.636719 452.324219 159.234375 457.527344 C 157.835938 459.226562 156.234375 461.027344 154.734375 462.925781 C 154.234375 461.625 153.636719 460.425781 152.734375 459.324219 C 151.933594 458.324219 150.835938 457.527344 150.035156 456.527344 C 146.734375 452.425781 146.933594 449.425781 148.535156 444.726562 C 151.136719 437.425781 156.234375 433.226562 155.636719 424.925781 C 155.535156 423.925781 154.136719 423.925781 154.136719 424.925781 C 153.933594 434.824219 142.734375 440.726562 142.835938 450.726562 C 142.835938 453.527344 143.835938 455.925781 145.535156 458.226562 C 147.335938 460.625 149.636719 461.925781 150.734375 465.027344 C 151.136719 466.125 151.234375 467.324219 151.335938 468.527344 C 151.136719 469.125 150.835938 469.726562 150.734375 470.324219 C 150.535156 471.027344 151.136719 471.726562 151.734375 471.824219 C 153.035156 478.726562 156.636719 484.625 163.433594 487.324219 C 172.136719 490.925781 181.734375 487.527344 190.433594 491.324219 C 192.835938 492.625 194.835938 489.527344 192.535156 488.027344 Z M 153.035156 419.027344 C 153.433594 419.925781 154.636719 420.527344 155.535156 419.527344 C 159.035156 415.625 161.636719 410.824219 164.234375 406.226562 C 166.734375 401.726562 169.734375 397.125 171.035156 392.125 C 171.136719 391.625 170.433594 391.125 170.136719 391.527344 C 166.933594 395.125 164.734375 399.625 162.035156 403.726562 C 159.535156 407.527344 156.734375 411.226562 154.433594 415.125 C 153.835938 414.824219 153.234375 414.625 152.636719 414.527344 C 161.136719 400.226562 168.433594 385.027344 175.835938 370.226562 C 176.535156 368.925781 174.636719 367.824219 173.835938 369.027344 C 165.335938 383.925781 156.335938 398.824219 148.933594 414.226562 C 148.734375 414.625 148.734375 415.125 148.835938 415.425781 C 148.535156 415.625 148.335938 415.824219 148.035156 416.027344 C 147.433594 416.527344 146.933594 417.324219 146.433594 418.027344 C 144.136719 421.425781 146.035156 421.324219 141.136719 422.425781 C 134.335938 423.925781 134.335938 419.324219 132.136719 415.027344 C 135.433594 413.925781 136.835938 409.824219 138.535156 406.726562 C 141.535156 401.226562 143.933594 395.527344 146.433594 389.824219 C 146.835938 389.027344 145.636719 388.226562 145.136719 389.125 C 143.136719 393.027344 140.835938 396.925781 138.636719 400.726562 C 136.433594 404.527344 134.035156 409.824219 130.433594 412.527344 C 129.734375 411.726562 129.035156 411.226562 128.234375 410.824219 C 129.335938 409.027344 130.136719 406.925781 131.136719 405.226562 C 132.636719 402.527344 134.335938 400.027344 136.136719 397.527344 C 136.835938 396.625 135.335938 395.527344 134.535156 396.324219 C 132.335938 398.625 130.335938 401.125 128.636719 403.726562 C 127.433594 405.625 126.035156 407.726562 125.335938 410.027344 C 124.035156 409.824219 122.535156 409.726562 121.035156 409.527344 C 120.035156 409.425781 119.136719 409.226562 118.335938 408.925781 C 120.636719 403.226562 124.933594 398.226562 128.433594 393.226562 C 132.636719 387.324219 136.734375 381.425781 141.035156 375.726562 C 141.734375 374.925781 140.234375 373.726562 139.535156 374.527344 C 134.335938 380.925781 129.035156 387.226562 124.035156 393.824219 C 121.136719 397.625 116.234375 402.324219 114.933594 407.425781 C 108.335938 403.125 107.335938 393.527344 105.835938 385.625 C 105.636719 384.527344 104.035156 384.824219 103.933594 385.925781 C 103.433594 393.125 105.535156 401.324219 109.035156 407.625 C 113.335938 415.324219 120.035156 411.324219 125.835938 416.125 C 131.035156 420.425781 130.933594 426.425781 138.535156 428.527344 C 140.933594 429.226562 143.035156 429.425781 145.136719 427.925781 C 147.535156 426.726562 150.335938 419.425781 153.035156 419.027344 Z M 39.636719 273.425781 C 39.933594 273.824219 40.433594 274.027344 41.035156 273.824219 C 41.433594 273.726562 41.835938 273.527344 42.234375 273.425781 C 48.933594 273.527344 55.433594 275.226562 62.035156 274.425781 C 66.234375 273.925781 78.433594 267.324219 82.734375 270.925781 C 82.734375 271.425781 83.136719 272.027344 83.636719 272.125 C 83.636719 272.226562 83.734375 272.324219 83.734375 272.425781 C 84.636719 274.425781 87.234375 272.824219 87.035156 271.027344 C 93.234375 268.425781 99.035156 265.324219 105.636719 263.527344 C 113.933594 261.226562 122.335938 259.027344 130.933594 257.925781 C 131.535156 257.824219 131.636719 256.824219 130.933594 256.925781 C 122.136719 257.625 113.636719 259.425781 105.035156 261.425781 C 98.636719 262.925781 91.335938 264.324219 85.636719 267.925781 C 84.734375 266.925781 83.433594 266.125 82.035156 265.824219 C 89.535156 262.425781 97.035156 259.125 105.136719 257.027344 C 106.035156 256.824219 105.636719 255.527344 104.734375 255.726562 C 94.535156 258.027344 84.035156 260.726562 74.835938 266.027344 C 68.734375 267.324219 63.136719 270.726562 56.535156 270.425781 C 54.433594 270.324219 52.433594 270.226562 50.433594 270.027344 C 56.136719 267.625 61.734375 265.125 67.433594 262.925781 C 68.335938 262.625 67.933594 261.125 67.035156 261.425781 C 59.035156 264.027344 50.835938 266.425781 43.035156 269.625 C 39.933594 269.625 36.734375 269.726562 33.433594 270.324219 C 32.433594 270.527344 31.433594 270.726562 30.433594 270.925781 C 46.835938 263.527344 62.933594 256.125 80.835938 252.824219 C 81.636719 252.726562 81.433594 251.324219 80.636719 251.425781 C 60.035156 254.027344 41.136719 262.324219 22.234375 270.527344 C 22.136719 270.324219 21.933594 270.027344 21.734375 269.824219 C 20.234375 267.726562 20.535156 266.324219 18.234375 264.527344 C 17.335938 263.824219 16.035156 264.925781 16.933594 265.824219 C 18.933594 267.925781 18.335938 271.027344 19.234375 273.324219 C 19.335938 273.527344 19.433594 273.726562 19.535156 273.824219 C 19.933594 274.425781 20.433594 275.027344 21.234375 275.425781 C 25.335938 277.527344 34.035156 273.824219 38.136719 273.324219 C 38.734375 273.527344 39.136719 273.527344 39.636719 273.425781 Z M 38.335938 249.324219 C 39.234375 248.128906 38.433594 245.925781 36.734375 246.527344 C 28.433594 249.425781 23.234375 258.226562 14.933594 260.824219 C 14.136719 261.027344 14.234375 262.226562 15.136719 262.226562 C 19.035156 262.125 22.433594 260.726562 25.734375 258.726562 C 29.933594 256.125 35.234375 253.324219 38.335938 249.324219 Z M 10.933594 258.625 C 2.535156 256.527344 4.335938 246.726562 4.734375 240.425781 C 5.136719 234.226562 5.835938 227.726562 10.136719 222.824219 C 15.535156 216.527344 24.035156 215.726562 27.035156 207.226562 C 27.335938 206.324219 25.835938 205.628906 25.433594 206.527344 C 23.035156 212.226562 17.136719 213.925781 12.136719 216.824219 C 12.535156 215.527344 12.933594 214.128906 13.234375 212.628906 C 14.433594 205.425781 12.535156 197.628906 21.433594 194.527344 C 31.835938 191.027344 42.734375 188.425781 53.335938 185.226562 C 54.535156 184.824219 54.035156 183.226562 52.835938 183.425781 C 45.636719 184.726562 38.335938 185.824219 31.234375 187.425781 C 26.234375 188.527344 20.433594 189.128906 15.933594 191.726562 C 12.433594 193.726562 10.433594 196.425781 9.535156 200.425781 C 7.933594 207.628906 9.636719 213.726562 6.035156 220.726562 C 5.734375 221.324219 5.734375 222.027344 5.933594 222.527344 C 3.433594 226.027344 2.136719 230.226562 1.433594 234.425781 C 0.535156 240.128906 -0.566406 248.425781 0.335938 254.226562 C 1.136719 259.527344 5.035156 261.324219 10.035156 262.226562 C 12.234375 262.527344 13.234375 259.226562 10.933594 258.625 Z M 28.136719 182.726562 C 30.035156 184.128906 32.734375 184.226562 33.835938 182.027344 C 34.234375 181.226562 33.933594 180.324219 33.035156 180.027344 C 29.433594 179.027344 32.433594 175.925781 34.535156 173.527344 C 61.535156 168.628906 88.535156 165.324219 116.035156 164.824219 C 116.933594 164.824219 116.933594 163.527344 116.035156 163.425781 C 89.636719 162.726562 63.035156 164.324219 37.035156 169.324219 C 37.035156 169.226562 37.136719 169.128906 37.136719 169.027344 C 52.636719 164.726562 67.234375 156.027344 83.734375 157.128906 C 84.433594 157.128906 84.335938 156.128906 83.734375 156.128906 C 67.433594 154.324219 52.933594 161.527344 37.636719 165.527344 C 37.933594 162.527344 38.234375 159.628906 41.035156 157.925781 C 42.136719 157.226562 41.136719 155.628906 40.035156 156.128906 C 36.535156 157.824219 34.734375 159.824219 34.136719 163.726562 C 33.933594 164.925781 33.734375 166.027344 33.433594 167.027344 C 33.335938 167.128906 33.335938 167.324219 33.234375 167.527344 C 32.835938 168.628906 32.335938 169.628906 31.535156 170.628906 C 31.335938 170.726562 31.234375 170.925781 31.136719 171.027344 C 30.933594 171.226562 30.835938 171.425781 30.636719 171.527344 C 29.335938 172.925781 27.933594 174.324219 27.136719 176.027344 C 26.234375 178.324219 26.035156 181.128906 28.136719 182.726562 Z M 49.734375 157.925781 C 68.835938 151.324219 88.433594 146.527344 108.535156 144.925781 C 128.433594 143.226562 145.933594 147.226562 164.636719 153.628906 C 165.535156 153.925781 166.136719 152.425781 165.335938 152.128906 C 146.933594 143.925781 130.234375 139.027344 109.933594 140.425781 C 88.933594 141.824219 68.136719 146.027344 48.535156 153.527344 C 45.636719 154.425781 46.835938 158.925781 49.734375 157.925781 Z M 212.835938 71.125 C 211.335938 66.125 211.035156 62.527344 215.234375 59.125 C 215.734375 58.726562 216.734375 58.925781 217.234375 58.527344 C 221.734375 55.324219 219.835938 52.226562 219.035156 47.925781 C 218.433594 44.324219 217.636719 40.625 218.234375 36.925781 C 220.636719 21.425781 238.835938 19.824219 251.136719 21.824219 C 251.433594 21.824219 251.636719 22.027344 251.835938 22.125 C 252.433594 20.324219 253.335938 18.625 254.933594 17.527344 C 256.933594 16.027344 257.933594 16.425781 260.035156 16.425781 C 263.835938 16.425781 266.636719 15.726562 270.035156 14.125 C 275.234375 11.726562 281.433594 12.726562 286.335938 15.425781 C 286.433594 15.125 286.636719 14.726562 286.835938 14.425781 C 287.136719 13.925781 287.734375 13.824219 288.136719 14.125 C 289.335938 12.125 290.933594 10.425781 293.136719 9.425781 C 297.035156 7.625 299.335938 9.226562 303.234375 10.125 C 309.433594 11.625 315.335938 9.027344 321.234375 10.425781 C 325.433594 11.425781 329.035156 14.425781 331.335938 17.925781 C 331.535156 18.226562 331.535156 18.625 331.433594 18.925781 C 335.835938 17.027344 340.636719 17.226562 344.636719 20.027344 C 350.433594 23.925781 349.035156 29.925781 351.335938 35.726562 C 352.636719 38.925781 355.835938 41.324219 356.734375 44.726562 C 357.535156 47.824219 356.335938 50.726562 355.335938 53.527344 C 352.234375 62.226562 347.035156 73.925781 352.535156 82.527344 C 352.636719 82.425781 352.734375 82.226562 352.835938 82.226562 C 358.335938 79.824219 354.335938 58.324219 365.933594 63.925781 C 368.234375 65.027344 369.734375 67.324219 371.636719 68.925781 C 375.433594 72.125 379.835938 73.824219 384.234375 75.824219 C 388.636719 77.726562 392.035156 79.625 393.535156 84.324219 C 394.136719 86.226562 391.335938 87.324219 390.335938 85.625 C 388.636719 82.625 385.933594 80.925781 383.136719 79.527344 C 381.835938 90.226562 377.433594 100.425781 372.433594 109.925781 C 372.136719 110.425781 371.433594 110.027344 371.636719 109.527344 C 376.234375 99.527344 378.433594 89.226562 380.933594 78.625 C 379.636719 78.125 378.433594 77.527344 377.136719 77.027344 C 376.535156 82.824219 375.035156 88.625 373.035156 94.125 C 370.535156 101.027344 366.136719 107.628906 365.734375 115.128906 C 365.734375 116.027344 364.335938 116.027344 364.335938 115.128906 C 364.433594 108.628906 367.234375 103.226562 369.335938 97.226562 C 371.835938 90.226562 373.035156 83.125 374.734375 75.925781 C 374.636719 75.925781 374.636719 75.824219 374.535156 75.824219 C 371.433594 74.027344 368.933594 70.226562 365.933594 68.625 C 365.035156 68.125 364.234375 67.925781 363.433594 67.824219 C 359.933594 77.824219 355.933594 87.425781 357.136719 98.324219 C 357.234375 99.027344 356.035156 99.125 355.933594 98.527344 C 354.136719 88.527344 356.335938 78.925781 359.933594 69.625 C 357.335938 73.625 357.433594 82.824219 353.234375 83.925781 C 353.136719 83.925781 352.933594 83.925781 352.835938 83.925781 C 352.933594 84.226562 352.835938 84.527344 352.636719 84.824219 C 350.636719 93.125 348.535156 101.527344 347.636719 110.128906 C 347.535156 110.824219 346.433594 110.824219 346.535156 110.128906 C 347.035156 101.527344 347.835938 93.125 350.035156 84.824219 C 349.335938 84.125 348.734375 83.425781 348.234375 82.726562 C 346.835938 90.027344 344.535156 97.125 342.933594 104.425781 C 340.933594 113.628906 340.234375 122.527344 341.035156 131.824219 C 341.136719 132.527344 339.933594 132.628906 339.835938 132.027344 C 337.136719 114.824219 340.535156 94.824219 346.136719 78.425781 C 346.234375 78.226562 346.234375 78.125 346.335938 78.027344 C 344.933594 70.324219 348.734375 60.527344 351.035156 54.324219 C 352.933594 49.125 353.335938 46.425781 350.136719 41.625 C 348.933594 39.824219 348.035156 38.425781 347.535156 36.226562 C 346.734375 33.324219 347.035156 30.125 345.835938 27.324219 C 343.433594 21.625 337.234375 19.027344 331.433594 21.425781 L 331.335938 21.425781 C 333.335938 38.125 331.933594 55.726562 330.734375 72.425781 C 330.636719 73.324219 329.335938 73.324219 329.335938 72.425781 C 330.136719 54.824219 328.433594 37.324219 328.335938 19.824219 C 328.335938 19.726562 328.335938 19.726562 328.335938 19.625 C 325.535156 17.925781 323.035156 15.425781 319.734375 14.625 C 319.234375 14.527344 318.535156 14.425781 317.933594 14.425781 C 320.636719 23.726562 320.835938 34.425781 321.734375 44.027344 C 321.835938 45.125 320.136719 45.125 319.933594 44.027344 C 318.835938 34.226562 316.234375 24.324219 315.636719 14.527344 C 313.335938 14.726562 310.933594 15.125 308.933594 15.125 C 314.234375 33.125 313.234375 52.226562 314.734375 70.824219 C 314.835938 71.527344 313.734375 71.425781 313.734375 70.824219 C 311.535156 52.324219 311.035156 33.824219 306.035156 15.726562 C 305.933594 15.425781 305.933594 15.125 306.035156 14.824219 C 303.035156 14.324219 299.933594 13.226562 297.035156 12.824219 C 307.734375 38.226562 303.433594 66.027344 305.835938 92.625 C 305.933594 93.527344 304.535156 93.527344 304.433594 92.625 C 302.933594 79.324219 303.335938 66.027344 302.433594 52.726562 C 301.433594 38.726562 297.734375 26.125 294.433594 12.726562 C 292.035156 12.925781 289.835938 14.125 288.035156 17.125 C 287.535156 31.925781 291.234375 47.925781 294.535156 62.324219 C 294.734375 63.324219 293.335938 63.726562 293.035156 62.726562 C 290.535156 53.125 288.636719 43.425781 287.035156 33.625 C 286.335938 29.324219 284.535156 23.726562 285.035156 18.925781 C 283.335938 18.425781 281.734375 17.925781 280.035156 17.527344 C 279.035156 19.527344 280.535156 26.726562 280.734375 28.527344 C 281.035156 31.226562 281.335938 33.925781 281.636719 36.625 C 282.433594 42.824219 282.835938 49.027344 285.136719 54.925781 C 285.433594 55.824219 284.035156 56.425781 283.636719 55.527344 C 280.636719 49.226562 279.835938 42.425781 278.734375 35.625 C 277.933594 29.925781 276.035156 22.925781 276.933594 17.125 C 276.636719 17.125 276.234375 17.027344 275.933594 17.027344 C 272.035156 16.925781 270.234375 19.027344 266.933594 20.425781 C 265.234375 21.125 264.433594 21.027344 263.335938 20.925781 C 262.535156 27.625 263.835938 34.425781 264.835938 41.125 C 264.933594 41.925781 263.835938 42.226562 263.636719 41.425781 C 262.734375 35.925781 261.433594 30.625 260.535156 25.125 C 260.234375 23.425781 260.136719 21.726562 260.535156 20.226562 C 260.136719 19.925781 259.734375 19.726562 259.433594 19.324219 C 254.433594 20.226562 251.933594 22.824219 252.234375 27.125 C 252.035156 29.425781 252.035156 31.824219 252.234375 34.125 C 252.535156 39.925781 253.835938 45.625 255.636719 51.125 C 255.933594 51.925781 254.636719 52.425781 254.234375 51.726562 C 251.035156 44.625 250.136719 36.925781 250.433594 29.125 C 250.433594 28.027344 250.535156 26.925781 250.734375 25.726562 C 250.535156 25.726562 250.433594 25.824219 250.234375 25.824219 C 242.835938 25.425781 234.835938 24.527344 228.136719 28.625 C 219.933594 33.726562 221.535156 42.125 222.636719 50.226562 C 223.035156 53.226562 224.136719 57.824219 221.535156 60.226562 C 218.234375 63.324219 212.035156 64.226562 213.835938 70.824219 C 214.535156 71.625 213.136719 72.027344 212.835938 71.125" fill="#244139"/></g></g></svg>