<?xml version="1.0" encoding="UTF-8"?><svg xmlns="http://www.w3.org/2000/svg" xmlns:xlink="http://www.w3.org/1999/xlink" fill="#000000" height="322.2" preserveAspectRatio="xMidYMid meet" version="1" viewBox="-0.4 -0.5 331.3 322.2" width="331.3" zoomAndPan="magnify"><g fill="#3a241a" id="change1_1"><path d="M71.4874,81.7815c-1.2339-1.0986-2.8472-0.8095-4.274-1.0508 c-10.2158-1.7353-20.4502-3.3564-30.6792-5.0097c-2.6826-0.4336-5.3711-0.832-8.0439-1.3154 c-0.6665-0.1172-1.0796,0.0048-1.5772,0.4628c-1.3808,1.2735-3.7119,0.7823-5.2211-1.0253 c-1.5874-1.9014-1.4288-4.1319,0.4008-5.625c1.4453-1.1778,3.7935-0.7374,5.0264,0.9433c1.2046,1.6416,1.3145,1.9805,1.2627,4.0674 c2.0273,0.3271,4.0791,0.6572,6.438,1.0361c-1.0571-2.7334-0.2949-4.6543,1.9399-6.0381c2.3653-1.4648,5.3516-0.2255,5.6914,2.5147 c0.1465,1.1855,0.7256,1.5498,1.6919,1.8203c8.2515,2.2988,16.3736,5.0508,24.7129,7.0391 c2.6504,0.6318,5.3384,1.1054,8.0093,1.6523c0.0537-0.1504,0.1079-0.3017,0.1616-0.4512 c-1.1684-0.6093-2.3017-1.3017-3.5102-1.8164c-10.0376-4.2695-20.1426-8.3759-30.2676-12.4336 c-6.4429-2.5839-12.814-5.3486-19.1885-8.0976c-0.9106-0.3936-1.3901-0.1846-1.8921,0.5137 c-0.916,1.2744-2.2402,1.6953-3.7241,1.5918c-2.1851-0.1553-3.9644-1.8438-3.9326-3.6377 c0.0434-2.4258,2.0903-4.5411,4.5552-4.7061c2.2832-0.1514,4.3564,1.4404,4.5122,3.7559c0.0683,1.0254,0.479,1.4345,1.2695,1.7548 c8.9404,3.626,17.7222,7.6299,26.7671,11.0069c3.4912,1.3037,6.8808,2.8789,10.3188,4.3252 c0.3369,0.1416,0.6944,0.2353,1.1411,0.164c-16.2065-9.1386-31.7241-19.4423-48.3154-28.1123 c-0.8222,2.1026-2.5972,1.6719-4.1514,1.5215c-1.4731-0.1416-3.1528-1.8857-3.3886-3.1894 c-0.2622-1.4473,1.0659-3.2676,2.8511-3.9102c1.8349-0.6592,3.9213,0.0313,4.854,1.6357c0.2446,0.4209,0.6445,0.9493,0.5571,1.3292 c-0.4683,2.0234,1.167,2.4443,2.3364,3.0761c7.8877,4.2578,15.5894,8.8233,23.2378,13.5 c7.3115,4.4697,14.8189,8.6221,22.273,12.8594c4.0571,2.3047,8.1811,4.4932,12.2792,6.7266 c0.125,0.0673,0.3028,0.039,0.8941,0.1035c-0.7954-0.7129-1.2842-1.2373-1.856-1.6475 c-7.9233-5.6894-15.4414-11.8564-22.4214-18.6806c-1.5878-1.5538-3.4179-2.8565-5.1186-4.2959 c-0.5225-0.4415-0.9043-0.4239-1.563-0.1114c-2.2349,1.0606-6.7012-1.6318-6.9443-4.0908 c-0.1992-2.0186,1.1411-3.5186,3.6308-4.0625c1.9014-0.416,4.1534,0.7783,4.7637,2.5693c0.3545,1.0401,0.5869,2.1485,0.2905,3.212 c-0.2221,0.7998,0.0537,1.1962,0.6128,1.6406c5.1621,4.0918,9.7124,8.8672,14.71,13.1494 c5.0454,4.3242,10.6645,7.8926,15.6548,12.2725c0.1513,0.1337,0.3745,0.1845,1.0537,0.5029 c-1.584-2.5098-2.5977-4.791-4.3999-6.6055c-9.397-9.4599-18.7642-18.9512-28.1724-28.3994 c-1.7573-1.7656-3.6557-3.3916-5.6694-5.249c-0.542,0.1904-1.4976,0.5654-2.4761,0.8613 c-2.1631,0.6572-4.6567-0.6152-5.2329-2.6367c-0.5122-1.7969,0.8472-3.8936,2.9897-4.6143c2.1836-0.7343,5.19,0.3028,5.3453,2.2881 c0.3427,4.3916,3.7963,6.4404,6.3584,9.041c4.1992,4.2608,8.3222,8.5987,12.5747,12.8096 c4.3579,4.3125,8.6528,8.6895,13.3252,13.3916c-0.4634-1.7402-1.2554-2.7686-1.8687-3.8633 c-4.1157-7.3535-9.5322-13.751-14.9014-20.1845c-4.2617-5.1055-9.2514-9.5127-13.7338-14.4043 c-2.6436-2.8848-5.1729-5.875-7.7002-8.8624c-0.5411-0.6376-0.8999-0.8417-1.7476-0.4667c-2.1538,0.958-3.689,0.4365-4.9033-1.4541 c-1.4961-2.3301-1.3853-3.7422,0.4302-5.4883c2.0073-1.9326,3.101-2.2637,4.5131-1.376c1.6646,1.0478,2.7051,3.9043,1.9546,5.7617 c-0.3784,0.9375-0.0752,1.4932,0.4854,2.1817c5.2929,6.5009,11.0766,12.5459,17.04,18.4287 c1.3867,1.3681,2.6348,2.8808,4.0039,4.3916c0.2881-0.6748-0.1533-1.044-0.416-1.418 c-4.2544-6.0459-8.5312-12.0762-12.7778-18.1279c-0.3604-0.5127-0.9004-0.5655-1.3657-0.8145 c-2.1651-1.1582-3.0967-3.5-2.0997-5.3086c1.2188-2.2109,3.6656-2.7871,5.8853-1.3857c1.9692,1.2431,2.5679,3.9551,1.293,5.8623 c-0.5772,0.8623-1.3018,1.4531-2.7071,1.2226c6.8345,9.1397,12.9204,18.4991,19.2256,27.7383 c-2.5976-6.4804-5.2964-12.8955-8.9682-18.9453c-2.7447-0.4473-3.4497-1.0068-3.5821-2.9307 c-0.1631-2.3681,1.1441-4.5752,3.0083-5.083c1.2974-0.3535,3.0103,0.4746,3.6934,1.7832c0.9575,1.837,0.2324,4.3282-1.7451,6.0362 c6.7236,11.9746,10.4941,25.5302,19.6289,36.3232c-0.0293-1.3281-0.7261-2.3906-1.1514-3.4922 C70.3697,53.0745,65.2393,39.9358,60.0884,26.805c-0.6811-1.7364-1.374-3.2979-3.6767-3.8223 c-2.4722-0.5605-3.4121-2.5889-2.8311-4.5312c0.4766-1.5909,1.3159-2.7286,3.1348-2.8174 c2.1934-0.1055,3.6011,0.6474,4.3931,2.3935c0.1782,0.3946,0.3315,0.8057,0.4575,1.2198c0.6128,2.0175,0.1313,3.2929-1.565,4.2607 c1.8238,4.6377,3.6763,9.2578,5.4571,13.9043c1.8989,4.9521,3.6728,9.9551,5.6176,14.8877 c0.8926,2.2666,1.795,4.5273,2.6128,6.8213c0.1748,0.4892,0.2935,1.1025,1.0464,1.04c-0.1142,0.5166-0.4302,1.084,0.3716,1.4688 c-0.1416-0.5537-0.2593-1.0108-0.375-1.4698c-1.4092-3.7529-2.5615-7.5839-3.6684-11.4365 c-2.0499-7.1416-4.2642-14.2353-6.3135-21.3789c-1.5562-5.4219-2.9707-10.8867-4.4292-16.3379 c-0.3257-1.2197-0.6748-2.039-2.3247-2.0293c-2.5337,0.0156-4.3096-3.9248-3.0308-6.3301 c1.2153-2.2871,3.1934-3.1953,5.0566-2.3183c2.585,1.2148,3.837,3.5957,2.1807,5.8232c-1.7627,2.3711-1.0088,4.3457-0.353,6.4785 c0.6347,2.0625,1.1304,4.17,1.7798,6.4288c2.5595-1.8155,5.0278-3.1583,7.833-0.7764c1.6299,1.3828,1.5127,3.1953,1.2929,4.9492 c-0.226,1.8027-1.3715,2.9063-3.1474,2.9082c3.3408,16.6182,8.5864,32.7246,11.3931,49.7607 c0.9287-1.7832,0.2084-3.2607,0.0805-4.6679c-0.5117-5.6348-0.9101-11.2754-1.313-16.919 c-0.4599-6.4502-1.0727-12.8886-1.5175-19.3388c-0.0787-1.1485-0.504-1.4073-1.5108-1.5869 c-2.0293-0.3604-2.8447-1.3047-3.1147-3.2354c-0.212-1.5146,0.8525-3.3525,2.3862-4.124c1.769-0.8867,3.4834-0.7178,4.6904,0.4668 c1.6109,1.5781,1.3213,5.1699-0.5888,6.4736c-0.5865,0.4024-0.8116,0.8272-0.7315,1.4736 c0.8018,6.4795,1.0005,13.0039,1.4121,19.5088c0.4361,6.8819,1.3301,13.7139,1.8989,20.5782 c0.1123,1.371,1.2056,1.7802,1.9942,2.3603c2.4375,1.7852,4.1494,4.1016,5.4868,6.7441c0.3232,0.6397,0.6123,1.2676,1.2681,1.6377 c3.2187,1.8155,6.1465,4.0176,8.9394,6.4405c3.6587,3.1758,7.8911,5.5361,12.0156,8.0371 c3.9581,2.4004,7.6246,5.2051,11.1783,8.1474c2.9716,2.4629,6.2446,4.5235,9.124,7.1143c2.9014,2.6104,6.0234,4.9736,8.9673,7.5391 c3.8872,3.3877,7.8081,6.7353,11.6186,10.2148c5.4331,4.9619,10.2144,10.4492,14.6988,16.2676 c4.3711,5.6758,9.0551,11.1113,13.6606,16.6035c5.0732,6.0508,9.3555,12.6367,13.6499,19.25 c3.5581,5.4775,6.7188,11.1562,10.0234,16.7705c3.4527,5.8633,5.858,12.1602,8.6851,18.2832 c2.7031,5.8584,4.9531,11.9131,7.1563,17.9688c1.9628,5.3945,3.5957,10.9072,5.3984,16.3593 c1.4961,4.5274,3.2637,8.9668,4.3789,13.6202c0.0273,0.1142,0.2227,0.1894,0.4609,0.3789c0.1514-1.4913,0.377-2.8584,0.4141-4.2315 c0.1064-4.0898,1.0635-8.0791,1.4316-12.1201c0.8086-8.8936,3.8008-17.2676,5.6651-25.9063 c0.1845-0.8564,0.0976-1.4804-0.4151-2.2529c-1.3593-2.0498-1.9658-4.3535-1.5576-6.833c0.1211-0.7363,0.0322-1.3779-0.332-2.0332 c-3.001-5.4092-5.9199-10.8652-8.9863-16.2353c-2.9356-5.1397-6.0381-10.1827-9.0157-15.2989 c-0.4384-0.7529-0.9795-0.6826-1.6396-0.6631c-2.8994,0.084-4.0894-0.7373-4.0537-2.7656 c0.0459-2.6162,2.2002-5.0156,4.4678-4.9775c2.5712,0.0469,4.4335,3.6445,2.8281,6.1084c-1.0039,1.5429-0.4727,2.497,0.2392,3.5967 c4.1582,6.4326,7.919,13.1005,11.669,19.7734c1.622,2.8818,3.082,5.8555,4.6318,8.7803c0.3008,0.5673,0.6768,1.0957,1.1885,1.5644 c-5.9805-15.418-13.125-30.3711-17.8682-46.3496c-0.8076,0.3418-1.2939,0.5635-1.79,0.7549 c-2.1621,0.831-3.9712,0.2226-5.1865-1.7315c-1.2183-1.9589-0.3394-5.7255,1.6054-6.875c1.3311-0.7851,4.6172-0.0498,6.2022,1.3907 c1.0439,0.9482,1.3555,2.7295,0.4785,4.3281c-0.5957,1.085-0.4717,1.9756-0.0918,3.0478 c1.8887,5.3067,3.6289,10.6661,5.5898,15.9463c1.2793,3.4463,2.8243,6.795,4.2911,10.1719 c2.6552,6.1123,5.1972,12.2725,7.5625,18.5049c0.1171,0.3086,0.1377,0.7773,0.8867,0.8486 c-0.6192-1.6884-1.1367-3.3017-1.7901-4.8564c-2.6738-6.3555-4.7265-12.9365-7.1494-19.3799 c-2.581-6.8682-3.9521-14.0752-6.0136-21.084c-2.4024-8.1699-4.2383-16.4863-6.5879-24.665 c-0.5664-1.9727-1.3496-3.8809-2.0166-5.7725c-2.7066,0.1192-4.4698-1.1806-5.1636-3.6787 c-0.6148-2.208,0.9336-4.2715,3.7641-5.0186c2.168-0.5712,4.2833,0.6836,4.6709,2.8643c0.3399,1.9219-0.041,3.7129-1.5595,5.0488 c-0.5332,0.4688-0.5371,0.8692-0.3418,1.4053c3.3779,9.2764,5.166,19.001,7.9853,28.4404 c1.544,5.1739,2.7403,10.4844,4.1407,15.7198c0.8369,3.1298,2.0625,6.1572,3.1425,9.2207 c1.5293,4.3437,3.0713,8.6826,4.6397,13.0136c0.6533,1.8086,1.3838,3.586,2.2402,5.3321 c-0.7119-3.6729-1.1318-7.376-2.0859-10.9942c-1.8418-6.9824-3.5293-14.0049-5.2949-21.0068 c-1.6973-6.7207-3.4571-13.4277-5.1026-20.1611c-0.9131-3.7364-1.6484-7.5157-2.4599-11.2764 c-0.2549-1.1738-0.5899-2.1328-1.8545-2.8066c-1.9717-1.0508-2.0909-4.7823-0.3946-6.2832 c2.4922-2.2071,6.4551-1.5352,7.7735,1.2939c0.5185,1.1123,0.4375,2.0859-0.3877,3.0137 c-1.1778,1.3271-2.5137,2.3867-4.4942,2.7256c2.6944,14.3339,6.7412,28.2998,10.2735,42.3935 c0.0342-2.3603-0.6455-4.5937-1.126-6.8525c-1.3457-6.3321-1.6582-12.7979-2.5371-19.1905 c-0.0947-0.6943-0.418-1.0625-0.8457-1.4707c-1.2383-1.1845-2.127-2.54-2.582-4.249c-0.2959-1.1172,0.0029-1.9248,0.6279-2.707 c1.3984-1.7432,3.9394-2.2608,5.9248-1.2578c1.6279,0.8222,3.0967,4.1308,2.6367,5.9394 c-0.5234,2.0557-2.4531,3.4375-4.8994,3.4014c0.2324,1.8154,0.5059,3.6113,0.6855,5.415 c0.6934,6.918,1.8907,13.7539,3.2354,20.5694c1.6172,8.1884,3.0996,16.4043,4.6455,24.6045 c0.0859,0.4531,0.04,1.0791,0.8018,0.9375c0.6679-0.1241,0.6308-0.667,0.5712-1.1602c-1.0273-8.5059-1.2031-17.1055-2.6855-25.5566 c-0.582-3.3262-1.1309-6.6377-1.3408-10.0069c-0.0567-0.9209-0.5274-1.5469-1.5254-1.8652 c-1.7031-0.5479-2.5654-2.4414-2.3115-4.7041c0.1923-1.7109,1.4941-3.5137,2.6992-3.7422c2.3642-0.4443,3.8154,0.2666,4.79,2.3506 c1.4883,3.1807,0.7793,5.1973-2.6553,7.0576c1.1504,11.0967,3.3702,22.1719,3.8311,33.4531 c1.8994-17.1191,3.665-34.2275,2.7686-51.6465c-2.5254-0.8408-3.8897-2.7392-3.6143-5.7714 c0.1475-1.5889,0.7334-2.8663,2.2354-3.4883c1.6523-0.6826,3.3037-0.5899,4.7763,0.5381c3.7012,2.8339,2.084,6.0908-0.5283,7.707 c-1.3936,0.8613-1.6592,1.8691-1.6563,3.3144c0.0118,6.2071,0.086,12.419-0.124,18.6202 c-0.2412,7.1054-0.9433,14.1855-1.7207,21.2548c-0.3369,3.0606-0.4931,6.1417-0.6445,9.2237 c1.1924-2.9404,1.3691-6.085,1.8623-9.1553c1.1445-7.126,2.0586-14.2861,3.2891-21.4023 c1.3388-7.7452,2.4433-15.5313,3.6357-23.3028c0.4443-2.8965,0.834-5.8027,1.2852-8.6982c0.1103-0.707-0.1612-1.0684-0.7198-1.458 c-1.6181-1.1367-1.9541-2.7647-1.5136-4.5987c0.416-1.7334,1.6113-2.6337,3.3066-2.9638c1.6084-0.3135,3.3701,0.3935,4.2822,1.7295 c1.4981,2.1894,0.1436,5.3867-2.916,6.4062c-1.0596,0.3535-1.3437,0.9072-1.4863,1.7989 c-1.125,7.0683-2.2559,14.1328-3.2637,21.2216c-0.9072,6.3721-2.333,12.6729-3.166,19.0547 c-0.7227,5.542-1.6162,11.0557-2.3984,16.5869c-0.0957,0.67-0.6329,1.3203-0.0625,2.2647c0.6865-1.916,1.1425-3.7168,1.5703-5.5401 c1.5996-6.7998,3.0879-13.6298,5.5097-20.2099c0.6319-1.7149,1.2442-3.4815,0.6729-5.3955 c-0.1279-0.4278-0.0449-1.0264,0.167-1.4297c1.6972-3.249,1.8496-6.8789,2.6269-10.3535c0.1289-0.5811,0.1797-1.1905,0.3877-1.7412 c0.3145-0.833,0.293-1.4239-0.4101-2.1573c-1.1739-1.2246-1.0108-3.3506,0.0683-4.9922c0.8819-1.3408,2.1143-1.663,3.5528-1.2861 c1.9433,0.5127,3.3857,3.1738,2.9062,5.2256c-0.5586,2.3857-2.1943,3.3838-4.8789,2.8398 c-1.0889,3.0967-1.2119,6.4092-2.1601,9.8711c2.4042-0.7881,4.3671-0.4189,6.0136,1.4834 c0.6172-1.1738,1.1309-2.1142,1.6123-3.0722c2.1592-4.3125,4.3037-8.6348,6.4727-12.9444 c0.3691-0.7334,0.4336-1.2177-0.2168-1.9648c-2.1338-2.4522-1.4238-5.5801,1.4687-7.0654 c0.4825-0.2471,0.9815-0.4737,1.4932-0.6534c3.5586-1.248,6.6914,1.044,6.1133,5.4258c-0.4365,3.3067-1.9102,4.1924-5.2305,3.5137 c-1.2695-0.2598-2.1172-0.1533-2.668,1.2519c-0.7265,1.8418-1.708,3.584-2.6562,5.5313c2.1543,0.4394,3.7451,1.2891,4.8545,3.1211 c0.9453,1.5605,0.5566,2.8271-0.2725,4.0752c-0.914,1.373-2.3799,2.2597-3.9433,2.3584c-1.2539,0.0781-1.6075,0.6728-2.0821,1.5508 c-4.1552,7.6845-8.3427,15.3515-12.5136,23.0293c-0.2969,0.5459-0.5264,1.1289-0.4805,1.8681 c1.3076-1.8369,2.6367-3.6592,3.916-5.5156c6.3897-9.2783,13.4014-18.0869,20.3955-26.9072 c3.0127-3.7969,5.7803-7.7637,8.5244-11.751c0.4004-0.5811,0.2754-0.9971,0.0293-1.6113 c-0.5107-1.2823-1.0205-2.5381-0.6054-4.0713c0.8427-3.1074,5.3994-3.2715,7.1093-1.2149 c2.7227,3.2705,0.6426,6.5733-1.9912,7.5362c-0.8105,0.2959-1.4648,0.248-2.1494-0.2032c-0.7207-0.4746-1.2441-0.3632-1.751,0.4063 c-5.6572,8.5908-12.4355,16.3369-18.5244,24.6045c-3.8633,5.2451-7.8828,10.3789-11.6465,15.6953 c-3.1943,4.5146-6.124,9.2158-9.1572,13.8457c-0.2295,0.3486-0.5449,0.7021-0.4004,1.1904 c-0.0762,0.0489-0.1533,0.0967-0.2305,0.1446c0.0577,0.039,0.1133,0.0791,0.1709,0.1181c0.0137-0.0918,0.0293-0.1836,0.044-0.2734 c2.1152-1.7979,3.5791-4.1797,5.5049-6.1455c5.0879-5.1953,8.664-11.5928,13.498-16.9795 c3.5694-3.9776,6.6338-8.3369,9.9746-12.4844c0.4932-0.6113,0.7578-1.0996,0.4512-1.8808c-0.5703-1.46,0.2402-2.3985,1.3818-3.1006 c1.5137-0.9297,3.7305-0.8116,4.7041,0.2939c0.8868,1.0078,0.5801,2.1358-0.0078,3.1738 c-0.8818,1.5586-2.2617,2.3008-3.5898,1.7657c-1.0762-0.4317-1.6914-0.1846-2.3106,0.7177 c-0.5781,0.8448-1.3076,1.586-1.9062,2.4815c1.1035-0.5283,2.0771-1.3682,3.4033-1.1162c1.1777,0.2256,2.3936,0.3808,3.2041,1.4092 c0.9815,1.2431,0.6524,4.6455-0.5859,6.3437c-0.9707,1.333-3.1162,1.4951-5.8233,0.3496 c-7.1982,7.8809-14.1328,16.0957-21.9756,23.8174c0.9561,0.1846,1.2696-0.335,1.6143-0.6436 c5.8867-5.2607,12.2256-9.9736,18.2471-15.0664c4.0283-3.4043,7.9883-6.8955,12.1054-10.1943 c0.7178-0.5752,0.8418-1.043,0.462-1.9209c-1-2.3047-0.0508-4.2305,1.4502-5.9756c1.0244-1.1914,2.2373-1.8066,3.8837-1.5088 c2.0157,0.3643,2.8301,1.8535,3.4649,3.5039c0.5859,1.5274-0.0811,2.7246-1.1592,3.7979c-1.7061,1.6963-3.4434,3.2422-6.1357,2.291 c-0.5391-0.1904-0.7207,0.3428-1.0586,0.5771c-5.251,3.6319-9.5996,8.3477-14.6748,12.1875 c-6.1397,4.6446-11.8203,9.8477-17.8604,14.6133c-0.0674,0.0537-0.0674,0.1924-0.1396,0.4239 c0.8418,0.0322,1.3994-0.5323,1.958-0.8838c7.5381-4.7432,15.3935-8.9864,22.6191-14.2129 c6.3574-4.6006,13.2461-8.3145,19.9453-12.3487c3.1983-1.9277,5.9629-4.5361,9.3233-6.2441 c0.3867-0.1973,0.7382-0.4932,1.1435-0.6211c1.3438-0.4219,2.0537-0.9267,1.5049-2.6416c-0.5342-1.6699,1.5303-3.75,3.6367-4.0723 c2.4053-0.3691,4.209,0.7217,4.6094,2.7862c0.5645,2.917-1.1016,5.6914-3.4922,5.8047c-0.6523,0.0312-1.1758-0.0186-1.6963-0.6504 c-0.9658-1.1699-2.0654-1.4737-3.6562-0.6172c-3.8975,2.0996-7.3448,4.8506-11.0498,7.2197 c-3.9785,2.543-8.3047,4.5029-12.2315,7.1397c-5.5967,3.7587-11.1387,7.6015-16.7939,11.2695 c-3.1387,2.0361-6.4795,3.7578-9.6905,5.6865c-1.2783,0.7705-2.8339,1.249-3.4882,2.8145 c-0.3721-0.0049-0.7364-0.0049-1.1026-0.0049c0.002,0.0371,0.0039,0.0771,0.0059,0.1152c-0.043-0.0351-0.086-0.0722-0.1289-0.1074 c0.0381-0.0078,0.0752-0.0147,0.1201-0.0156c0.3691,0.0058,0.7314,0.0049,1.0928,0.0039c3.997-2.3321,8.3008-4,12.583-5.6865 c8.9609-3.5313,17.4834-7.9375,25.872-12.6387c3.5489-1.9883,7.2286-3.7471,10.879-5.5479 c0.8173-0.4043,1.4433-0.8086,1.8056-1.7119c0.5615-1.4004,1.6836-2.1279,3.2295-1.9287c1.6289,0.2109,3.3643,1.6455,3.6309,2.8984 c0.289,1.3584-1.793,3.4825-3.6944,3.7706c-2.29,0.3476-2.6523,0.1523-4.0127-2.2999c-2.0449,0.9903-4.1005,1.9844-6.3838,3.0889 c1.3086,0.5694,2.4922,0.6992,3.3516,1.6045c1.707,1.8008,2.0518,3.9756,0.7813,5.6846c-1.1719,1.5771-3.7061,2.2099-5.5791,0.8828 c-1.6973-1.2041-2.8975-0.7871-4.5274-0.041c-4.9853,2.2851-10.3213,3.6465-15.4375,5.6074 c-5.9707,2.2891-12.0097,4.4102-17.874,6.9746c-3.4248,1.499-6.835,3.0322-10.2471,4.5508c0.0039,0.0019,0.0703,0.083,0.0703,0.083 l-0.0468-0.1123c1.3789,0.4707,2.5234-0.3555,3.7363-0.7149c9.4775-2.8056,19.001-5.4697,28.3955-8.5283 c7.9307-2.583,16.0127-4.7109,23.7812-7.6513c0.294-4.2325,1.5342-6.3213,3.7823-6.4727c2.292-0.1553,5.0176,1.9746,5.6318,4.3965 c0.4736,1.8672-1.3164,4.0332-4.1982,5.084c-1.8526,0.6758-3.9991-0.084-4.96-1.8018 c-19.2627,6.2686-38.7334,11.9082-58.1299,17.793c0.044,0.1865,0.0889,0.373,0.1328,0.5596 c2.4356-0.4053,4.8789-0.7666,7.3057-1.2247c6.5605-1.2412,13.125-2.4677,19.667-3.8046 c3.7646-0.7706,7.5098-1.6612,11.2246-2.6456c4.7178-1.248,9.5723-1.9335,14.2021-3.5371c0.9561-0.33,1.709-0.7226,2.3301-1.5898 c2.0127-2.8135,3.5664-2.919,6.1035-0.5186c0.3526,0.335,0.6377,0.5352,1.1299,0.3877c3.4219-1.0234,6.8487-2.0341,10.292-3.0547 c0.0899-0.9238,0.1602-1.7832,0.5235-2.5878c0.9404-2.0821,2.9746-2.9629,5.1435-2.1983c1.7998,0.6319,2.9053,2.8291,2.417,4.8008 c-0.625,2.5107-2.3428,3.916-4.4395,3.6406c-1.2363-0.1611-1.874-1.2187-2.706-1.9219c-0.5869-0.497-0.9473-0.6328-1.6787-0.4043 c-3.0049,0.9385-6.0283,1.8116-9.0606,2.6504c-0.6181,0.1709-1.0234,0.3096-0.8545,1.0528 c0.2696,1.1845-0.3662,1.9687-1.2197,2.6357c-1.4502,1.1328-3.042,1.875-4.9336,1.875c-0.5156,0-1.1611-0.0312-1.3662-0.3779 c-0.8789-1.4873-2.0058-0.8633-3.1953-0.6016c-6.6826,1.4717-13.4316,2.584-20.1816,3.71 c-5.1368,0.8584-10.1905,2.206-15.3721,2.8506c-4.583,0.5693-9.1699,1.1181-13.752,1.6904 c-0.6103,0.0762-1.3086-0.0723-1.8173,0.6006c1.5644,0,3.0625,0.0732,4.5498-0.0127c5.3173-0.3047,10.6611-0.3145,15.9511-0.7686 c8.21-0.706,16.4424,0.0235,24.6309-0.7949c1.2725-0.1279,2.3144-0.3633,2.9238-1.8056c0.6729-1.5938,2.7129-2.25,4.6172-1.8555 c1.3106,0.2705,1.8672,1.2226,2.1279,2.4062c0.4151,1.8897-0.2861,4.0909-1.5185,4.8604c-1.4024,0.876-4.7129-0.0088-5.5801-1.6895 c-0.4834-0.9365-1.0322-1.0781-1.9131-0.9843c-7.5947,0.8134-15.2324,0.1328-22.8437,0.6513 c-7.5899,0.5147-15.1963,0.7627-22.7979,1.084c-0.6348,0.0254-0.9873,0.2061-1.3047,0.7236 c-0.2802,0.4541-0.6718,0.8477-1.0342,1.25c-1.4248,1.5762-3.207,2.2803-5.3125,2.0381c-0.8037-0.0918-0.9863,0.2959-1.2089,0.9473 c-3.2188,9.4434-5.4541,19.1328-6.6543,29.0117c-0.9258,7.6065-0.8028,15.29-0.5674,22.96 c0.2246,7.2802,0.6221,14.5547,1.5049,21.7705c0.7558,6.1972,1.0752,12.4111,1.5166,18.6211 c0.0517,0.7226,0.5302,1.9043-0.9414,1.9775c-1.0127,0.0498-2.5821-1.3154-2.6319-2.2715 c-0.4521-8.8369-1.4033-17.6347-2.039-26.457c-0.5088-7.0186-1.2666-14.0606-3.2705-20.8877 c-1.6504-5.6201-2.9707-11.3398-4.7217-16.9258c-1.8477-5.8965-4.0088-11.6972-6.0821-17.5234 c-2.0556-5.7803-4.0629-11.582-6.2905-17.2988c-2.0303-5.2129-4.603-10.1924-7.0884-15.2032 c-2.9716-5.9931-6.0439-11.956-9.9585-17.3808c-5.7251-7.9317-11.2758-15.9932-17.5278-23.5489 c-4.2305-5.1132-8.2617-10.3828-12.75-15.289c-1.7866-1.9531-3.021-4.418-4.8398-6.333c-3.0938-3.2569-6.4991-6.2139-9.6866-9.3848 c-5.0625-5.0391-10.8134-9.2461-16.3403-13.7266c-2.6577-2.1543-5.1577-4.5048-7.8491-6.6142 c-4.3174-3.3848-8.7769-6.5869-13.0982-9.9629c-6.8554-5.3584-14.1484-10.0713-21.4086-14.8379 c-0.8545-0.5615-1.5791-0.6621-2.5625-0.2617c-2.8814,1.1728-5.8457,1.54-8.8824,0.5185c-1.1157-0.374-2.0825,0.2413-2.8784,0.8174 c-8.7534,6.3526-17.4673,12.7569-26.1929,19.1465c-0.2197,0.1611-0.4521,0.3037-0.6303,0.4219 c1.5039,2.6943,0.1826,5.9853-2.5435,6.7773c-1.6387,0.4746-3.3354-0.4004-3.9184-2.04c-0.6373-1.794-0.2706-3.4932,0.8393-4.9277 c1.002-1.294,2.4795-0.9161,3.7788-0.4913c0.8643,0.2852,1.3789-0.2089,1.9058-0.5957c4.6846-3.4394,9.3208-6.9453,14.0151-10.3711 c3.4678-2.5302,7.0025-4.9677,10.5059-7.4462c0.4375-0.3106,0.9287-0.5625,1.2563-1.2129 c-1.1738-0.0176-1.8691,0.8144-2.6689,1.2675c-10.999,6.2569-21.9668,12.5684-32.9429,18.8672 c-0.0464,0.0254-0.0981,0.045-0.1475,0.0684c-1.7231,0.7949-2.7954,1.7568-2.2387,4.0273 c0.4585,1.8672-1.5225,4.2784-3.3272,4.6729c-1.8784,0.4111-4.0498-0.9356-4.8716-3.0195c-0.7558-1.92,0.1065-4.3135,2.0035-5.3418 c1.3379-0.7237,2.7553-0.502,4.104-0.0049c0.6626,0.2441,1.1899,0.2959,1.8296-0.0723 c7.2461-4.1699,14.5307-8.2715,21.7504-12.4844c3.8741-2.2607,7.9605-4.1543,11.9375-6.8642 c-1.2334-0.0264-2.101,0.334-2.977,0.6094c-7.6108,2.4101-14.9766,5.4375-22.25,8.7128 c-5.7861,2.6055-11.8008,4.7637-17.3862,7.7354c-4.8965,2.6074-10.2627,3.9971-15.1119,6.6191 c-0.4257,0.2305-0.8969,0.4864-1.3613,0.5166c-1.6684,0.1045-2.6797,0.8565-2.9995,2.5528 c-0.3496,1.8574-1.7705,2.709-3.4184,3.0166c-1.8804,0.3506-3.5533-0.1221-4.6124-1.9639 c-0.8325-1.4502-0.5581-3.6846,0.7134-4.9775c1.3926-1.4151,3.6079-1.8731,5.0591-1.0127c0.418,0.248,0.8965,0.5107,1.1499,0.8945 c1.2202,1.8545,2.6445,1.1582,4.1509,0.4746c6.0293-2.7353,12.0591-5.4736,18.1172-8.1426 c7.4951-3.3027,14.9795-6.6357,22.5444-9.7715c5.3999-2.2412,10.7842-4.5761,16.5347-5.8496 c0.2768-0.0605,0.5058-0.1894,0.5962-0.5791c-1.9248-0.1806-3.7554,0.3955-5.6128,0.5967 c-5.2407,0.5684-10.4707,1.2422-15.7007,1.9092c-1.9922,0.2549-3.9644,0.707-5.9624,0.8701c-0.9995,0.082-1.5444,0.5-1.7568,1.335 c-0.5249,2.0644-2.1314,2.6621-3.9165,2.8613c-1.6846,0.1895-2.5684-0.9209-3.0513-2.3916 c-0.2217-0.6738-0.6753-0.7549-1.2822-0.6289c-2.7266,0.5684-5.5166,0.5566-8.2725,0.8691 c-0.6724,0.0762-0.874,0.4004-1.1577,0.9024c-0.8648,1.5312-3.1128,2.1933-5.2251,1.6181c-1.7866-0.4873-2.707-1.5849-2.6895-3.207 c0.0181-1.6933,1.9204-3.8506,3.6299-4.1172c2.1558-0.3369,3.9439,0.6846,4.5244,2.7276c0.2202,0.7734,0.6226,0.9277,1.2881,0.8711 c2.6553-0.2227,5.3096-0.4561,7.9663-0.6582c0.7676-0.0586,1.0845-0.5352,1.4273-1.1407c1.6689-2.9463,3.7221-3.2968,6.1552-0.9306 c0.6939,0.6738,1.3467,0.7959,2.1748,0.7588c3.6499-0.1631,7.1924-1.1495,10.8262-1.419 c6.9346-0.5146,13.7735-1.9326,20.7368-2.1826c0.9473-0.0342,1.8765-0.1924,2.6797-0.9707c-2.4463,0-4.8926-0.0098-7.3388,0.001 c-6.628,0.0293-13.2569,0.1357-19.8843,0.08c-5.9273-0.0488-11.8584-0.1435-17.773-0.6377 c-0.5732-0.0478-0.9985,0.0489-1.2876,0.6993c-0.8667,1.959-2.4248,2.6367-4.459,2.0537c-1.3344-0.3838-3.1206-2.794-3.0664-4.1367 c0.0542-1.3204,1.8941-3.0606,3.4703-3.2832c1.6313-0.2325,3.4819,0.9414,4.0937,2.6015c0.1094,0.2988,0.189,0.6065,0.2983,0.961 c15.1827,1.163,30.3623,0.5429,45.5132,0.6669c0.253-1.124-0.0405-1.6093-1.0517-1.7343 c-8.2593-1.0283-16.5259-1.961-24.8301-2.5586c-5.2075-0.377-10.3662-1.3438-15.5918-1.4658 c-7.6157-0.1758-15.1724-1.462-22.8062-1.1582c-0.7544,0.0312-1.1552-0.4336-1.6875-0.7168 c-0.6621,0.5039-0.77,1.3457-1.4487,1.7978c-1.812,1.2051-3.9321,0.6445-5.4263-1.5117c-1.3374-1.9307-1.163-3.544,0.5039-4.6748 c1.8301-1.2402,4.584-0.8818,5.7168,0.75c0.1236,0.1777,0.3272,0.3711,0.3257,0.5557c-0.0249,2.6562,2.1065,2.4013,3.667,2.5185 c8.3472,0.6299,16.732,0.8691,25.0498,1.7529c8.645,0.92,17.3282,1.3838,25.9615,2.4287c2.4731,0.2999,4.9267,0.8848,7.4472,0.7999 c0.3433,0.1826,0.6846,0.4111,1.0318,0C72.1807,81.5198,71.8316,81.5804,71.4874,81.7815z M41.6817,52.0052 c0.02-0.0059,0.0405-0.0127,0.0601-0.0166c-0.0318-0.0147-0.0635-0.0284-0.0962-0.0411c0.2827,0.0977,0.5639,0.1973,0.8462,0.294 c0.3515,0.5283,0.8339,0.6982,1.7153,0.5654c-0.6729-0.4385-1.0894-0.7861-1.7139-0.5664 C42.3067,51.8636,41.9698,52.0003,41.6817,52.0052z M92.6832,87.3225c0.021,0.2491,0.041,0.4981,0.062,0.7461 c0.292-0.0127,0.5835-0.0244,0.8691-0.0273c-0.0376,0.2207-0.0298,0.4209,0.2368,0.4971c0.1934,0.5634,0.5786,0.749,1.2578,0.6718 c-0.4072-0.4843-0.7788-0.7089-1.2866-0.6435c-0.0757-0.1651-0.1509-0.3311-0.226-0.4971 c-0.2867,0.0078-0.5723,0.0137-0.856,0.0137c-0.019-0.2559-0.0376-0.5117-0.0562-0.7666 c-0.3569,0.0273-0.7133,0.0576-1.0708,0.0859c0.0279-1.2344-1.1088-1.4756-1.8842-2.4472 c-0.1387,1.7763,1.3291,1.7119,1.9389,2.4121C92.0142,87.4768,92.355,87.4768,92.6832,87.3225z M17.129,94.1985l-0.0479,0.0703 l0.0781-0.0605c0.0708,0.125-0.3564,0.3555,0.0865,0.4004C17.2061,94.47,17.1661,94.3304,17.129,94.1985z M194.5635,186.303 c0.0801,0.1377,0.1621,0.2764,0.2427,0.416c0.1436,0.6338,0.5244,1.0401,1.1568,1.2071c-0.0665,1.5615,1.2709,2.4248,1.8715,3.6582 c1.583,3.25,3.7422,6.1855,5.3848,9.4199c-0.2632-1.7988-1.3271-3.2393-2.1499-4.7715c-1.5391-2.8633-2.9878-5.793-5.1631-8.2646 c-0.186-0.5586-0.4023-1.0967-0.9927-1.3604c-0.0405-0.2119-0.1352-0.3477-0.3808-0.2715c0.0503-0.5039-0.1319-0.8555-0.645-0.9941 c-0.3965-1.4356-1.2984-2.6026-2.0572-3.8438c-4.0063-6.5576-8.8813-12.4619-13.7119-18.414 c-5.6079-6.9112-11.314-13.7383-17.0151-20.5713c-5.3179-6.374-11.5904-11.7471-17.8404-17.1455 c-8.6816-7.503-17.6181-14.6895-26.7797-21.5938c-1.7559-1.3242-3.5782-2.5967-5.6802-3.3818 c0.3271,0.4619,0.7348,0.8076,1.1587,1.1299c4.1938,3.1826,8.4497,6.2871,12.5693,9.5615 c4.4238,3.5176,8.6651,7.2646,13.084,10.7881c8.5415,6.8095,16.7739,13.9472,23.7061,22.4394 c4.9785,6.0967,10.2729,11.9199,15.1684,18.0987c4.9995,6.3095,9.707,12.8164,14.502,19.2685 c0.9257,1.2451,1.6074,2.7031,2.916,3.6485C193.8546,185.8333,194.1446,186.1116,194.5635,186.303z M244.5933,223.5833 c0.0987,0.4892,0.3565,0.6894,0.9151,0.5078c-0.1495-0.6279-0.5371-0.5703-0.9463-0.4697 c-0.2149-0.4375-0.459-0.8272-1.1563-0.5869C243.7037,223.5432,244.1109,223.636,244.5933,223.5833z M292.6929,153.6614 c1.4952-0.6543,1.9375-1.7783,1.6094-3.4551c-1.3428,0.9053-0.751,2.503-1.6533,3.4034c-0.9131-0.0635-1.8233-0.125-3.0801-0.2129 C290.7886,154.4368,291.7066,154.6839,292.6929,153.6614z M59.9683,18.3255c-0.1684,0.7568-0.1079,1.6767-1.5005,1.6308 c0.7193,0.7559,0.8765,1.4844,0.7994,2.5039c1.9887-1.3369,1.1743-2.7548,0.6933-4.1279 c-1.0581-1.4238-2.4868-1.8974-3.9224-1.1826c-1.415,0.7031-1.2216,1.9463-0.9331,3.5742 c0.9825-1.2793,1.7574,0.0039,2.6836-0.0703c-0.2827-0.9902-1.4179-1.2354-1.6464-2.2852 C57.4737,18.0227,58.7803,19.7083,59.9683,18.3255z M21.4503,54.0208c-0.9224,1.1767-0.1993,1.8125,0.7714,2.5176 c0.2051-1.0938-0.4907-1.7393-0.7861-2.5176c-1.4092-0.8477-2.8525-0.7324-4.1377,0.1387 c-1.1704,0.7939-1.4136,2.0781-1.2539,3.5263c1.8101-0.4795,3.2041,1.3682,5.3135,0.8457c-1.2671-0.6914-2.457-0.7998-3.3067-1.667 c0.795-0.6562,1.3863,0.4327,2.0982-0.0048c-0.2637-0.8877-1.7134-0.6416-1.7832-1.6817c0.5791-0.583,0.9087,0.3418,1.3945,0.0733 c0.1157-0.4317-0.5698-0.8711-0.041-1.2823C20.334,53.6048,20.8672,54.4309,21.4503,54.0208z M307.7379,211.5179 c-0.7041-0.3409-1.7725,0.3193-2.3018-0.8985c1.2266-0.2334,2.459,0.249,3.6494-0.2715c-0.4101-0.9677-1.7412-0.1015-1.9492-1.1279 c0.331-0.4971,0.8857-0.1045,1.2295-0.4277c0.0556-0.4883-0.8018-0.6543-0.4258-1.2998c0.3223-0.3262,0.7617-0.4932,1.2734-0.4893 c-0.5957,1.2461,0.7989,1.9961,0.5645,3.3193c1.2041-1.2666,1.0674-2.0615-0.3545-3.498 c-0.6816-0.7676-1.5186-0.9521-2.2988-0.2939c-1.3106,1.1035-2.2198,2.5214-2.6621,4.1923 c-0.1416,0.5362-0.1377,1.2979,0.6123,1.2071c0.8701-0.1065,1.8652,0.3427,2.6191-0.4405l0.0215-0.0371L307.7379,211.5179z M54.7745,31.9661c-0.0479,0.0049-0.0962,0.0088-0.1441,0.0146c0.0459-0.0039,0.0918-0.0068,0.1377-0.0097 c-0.6333-0.9082,0.6787-0.7891,0.7652-1.2149c-0.3438-0.6611-1.3296-0.6572-1.1475-1.5976 c0.8765-0.2735,1.7305,0.4765,2.5264-0.0469c0.3418,0.6865-1.1245,1.3223,0.207,1.8496c0.9731-0.9004,0.9834-1.9472,0.4248-3.0674 c-0.3618-0.7265-0.9116-1.2724-1.7842-1.1455c-1.2553,0.1836-1.999,0.9854-2.3564,2.1826 C52.8878,30.6536,53.3804,31.7415,54.7745,31.9661z M43.1988,22.9964c-0.022-0.0293-0.0435-0.0596-0.0659-0.0899 c0.0019,0.0274,0.0039,0.0557,0.0058,0.083c0.4815-2.0302,1.524,0.4327,2.2061-0.3066c-0.208-0.9482-1.459-1.0059-1.7803-1.8711 c0.6699-0.5889,1.1436,0.3496,1.7383,0.0781c0.1157-0.5488-0.0527-1.3662,0.9507-1.2158c0.1567,0.6201,0.2085,1.2393,0.4721,1.75 c0.2891,0.5596-0.873,1.2412,0.191,1.6611c1.0048-1.5312,0.8032-3.3398-0.4732-4.291c-1.1567-0.8603-3.1015-0.7929-3.9057,0.1358 C41.6583,19.9466,41.9483,21.7112,43.1988,22.9964z M59.6026,4.5188c-0.042,0.0069-0.085,0.0127-0.127,0.0176 c0.0342-0.0098,0.0679-0.0185,0.1021-0.0293c0.0044-0.6064-0.2593-1.3017,0.6592-1.7568c0.1069,1.4189,1.0678,2.749-0.5186,4.0019 c1.4453-0.4765,2.0845-1.997,1.7437-3.4492c-0.2847-1.2158-1.6509-2.25-2.9468-2.0859c-1.4614,0.1855-2.3623,1.2344-2.6074,2.5469 c-0.2534,1.3584,1.1054,1.4775,2.0117,1.8339c0.4228,0.167,0.7827,0.6241,1.3374,0.3741c-0.0151-0.919-1.5063-0.6397-1.3945-1.6934 C58.5323,4.0315,59.003,4.7942,59.6026,4.5188z M218.9361,179.3206c0.1484-0.0029,0.4228,0.0127,0.4258-0.0117 c0.1689-1.0967-0.1348-2.0508-0.9824-2.7686c-0.8897-0.751-1.7647-0.3203-2.543,0.2119c-1.0567,0.7217-1.478,1.876-1.6724,3.0596 c-0.1748,1.0732,0.9478,2.291,1.8413,1.8975c0.6856-0.3018,1.378-0.4239,2.0352-0.5049c0.1201-0.9629-1.0303-0.6875-1.1729-1.333 c0.7168-0.375,1.708,0.7793,2.0713-0.5498L218.9361,179.3206z M38.0386,37.6595c-0.018,0.0214-0.0356,0.042-0.0537,0.0615 c0.0318-0.0078,0.0635-0.0156,0.0948-0.0235c-0.3658-0.2382-0.5293-0.5449,0.0864-0.4707c0.8745,0.1055,1.7124,0.128,2.6172-0.0537 c-0.3589-0.9521-1.5572-0.1621-1.8838-1.1484c0.582-0.0772,1.0967-0.1436,1.6162-0.2109 c-0.4805-2.1612-1.5083-2.7559-3.7085-2.2051c-1.4385,0.3584-2.3755,1.709-2.0376,3.04 C35.2989,38.7317,36.8179,37.7532,38.0386,37.6595z M258.6461,143.2015c1.0019-0.5372,1.4599-1.3008,1.1543-2.4727 c-0.3516-1.3457-1.3077-2.0986-2.5645-2.0713c-1.4258,0.0332-2.7812,0.5391-3.165,2.2275 c-0.3243,1.4161,0.0351,2.7979,1.2841,3.3711c1.1729,0.5391,2.4834,0.0538,3.3428-1.1035L258.6461,143.2015z M304.1968,194.8616 l0.0264,0.0215c-1.0449-1.3496-2.4101-1.8272-3.4824-1.2197c-1.209,0.6855-2.2197,2.9345-1.8272,4.0654 c0.4092,1.1719,2.3526,2.0518,3.833,1.7324c1.5264-0.3291,1.8653-0.6543,1.7852-1.7217c-0.1025,0.0225-0.2246,0.0186-0.3027,0.0762 c-0.128,0.0928-0.21,0.249-0.3389,0.3389c-1.1201,0.7959-3.041,0.7783-2.9072-0.0215c0.2607-0.5137,1.0244,0.1435,1.2168-0.5078 c-0.1114-0.2588-0.6504-0.3535-0.2032-0.8438c1.0118,0.5957,1.9766-1.3584,3.1387,0.2725 C305.1763,195.9114,305.0455,195.2171,304.1968,194.8616z M7.0313,113.5813l0.0401,0.045c-0.7388-1.5811-2.043-2.0235-3.6949-1.253 c-1.7051,0.7959-2.5923,2.5967-1.9521,3.9678c0.6821,1.46,2.3803,2.0811,3.8637,1.4063c-0.727-0.4522-1.7412-0.1465-2.4619-0.9854 c1.3311-1.4541,2.7886,0.1846,4.1309-0.1201c-0.1553-1.0703-1.4351-0.5381-1.689-1.4356c0.7954-0.3496,1.8438,0.7246,2.4512-0.3759 C7.7759,114.2356,7.2486,113.9964,7.0313,113.5813z M261.9166,173.5638l-0.0039-0.0049c-0.9668-1.4033-2.1778-1.7617-3.7559-1.1162 c-1.4697,0.6035-2.123,1.7851-1.8477,3.3418c0.3497,1.9629,1.3692,2.4619,4.0127,2.1406c1.0909-0.1328,1.8575-0.5811,2.2178-1.5889 C262.9078,175.3099,262.9156,174.3089,261.9166,173.5638z M250.1539,216.7005c0.3174,0.1699,0.6142,0.1133,0.9297-0.0362 c2.3046-1.0869,4.6259-2.1416,6.9238-3.248c7.9277-3.8164,16.2558-6.6299,24.4639-9.7412 c4.7119-1.7852,9.6406-3.001,14.1406-5.3457c0.3672-0.1914,1.0429-0.2403,0.9931-0.7246 c-0.1416-1.4336,0.6416-2.6377,1.0508-4.2549c-3.9345,2.1807-7.5263,4.3096-11.2392,6.2021 c-6.8155,3.4746-13.8116,6.5704-20.9766,9.2637c-5.0371,1.8926-9.6191,4.7559-14.5898,6.7861 c-0.6163,0.251-1.4327,0.2842-1.6729,1.127c-0.2812,0.1123-0.7353-0.0557-0.8301,0.4775 C249.7564,217.178,249.9722,216.9641,250.1539,216.7005z M275.4576,180.1966c-3.0918,4.2588-6.8936,7.8486-10.0254,12.0049 c-2.708,3.5927-5.1719,7.3701-8.1465,10.7646c-3.2529,3.7109-6.457,7.4629-9.6592,11.2197 c-0.3008,0.3535-0.9697,0.7608-0.3564,1.3584c0.6162,0.6035,0.9521-0.0742,1.332-0.3955c2.5908-2.1904,4.4688-5.0185,6.7188-7.5107 c3.2802-3.6309,6.6591-7.1719,9.9824-10.7637c3.3584-3.6289,6.3867-7.5566,10.0254-10.9307 c0.4131-0.3837,0.9814-0.8115,0.7207-1.5244C275.5582,183.0755,275.5601,181.6819,275.4576,180.1966z M77.5084,64.7708 c0.0473-2.2031-0.7842-4.168-1.294-6.209c-2.5483-10.1982-5.0591-20.4053-7.5942-30.6064 c-0.5786-2.3291-1.2534-3.0352-3.6836-3.8643C69.2017,37.7171,72.9009,51.3909,77.5084,64.7708z M266.1578,169.387 c-0.7881,1.8828-2.2041,3.2422-2.0908,5.1006c0.0986,1.6435-0.3907,2.8789-1.6016,3.8496 c-0.7949,0.6357-1.3223,1.4062-1.7227,2.3184c-2.7031,6.1337-4.9892,12.4492-8.1093,18.3994 c-0.3731,0.709-0.8643,1.4404-0.6426,2.3789c5.2392-10.0869,10.9121-19.9268,16.2353-30.0703 C267.4693,170.8616,266.8629,170.3323,266.1578,169.387z M232.5269,271.3528c-0.1318,0.7764-0.2627,1.5528-0.3974,2.3291 c-0.2989,1.7158,0.7373,3.7461-1.2012,5.0899c-0.1074,0.0752-0.0986,0.4287-0.0381,0.6191 c0.5137,1.6289,0.4111,3.3359,0.6729,4.9902c1.1679,7.4024,1.1591,14.9121,2.1542,22.333 c0.5098,3.8018,0.2168,7.6875,0.9375,11.4893c0.1231,0.6494,0.1963,1.1201,1.4581,1.0615 C233.6187,303.3362,233.0269,287.3782,232.5269,271.3528z M249.5504,202.2669c0.9863-1.211,1.6757-2.5508,2.1171-3.9873 c1.8457-6.003,3.6231-12.0244,5.4864-18.0225c0.3427-1.1074,0.0439-1.6172-1.0684-1.8818 C253.1675,186.1575,251.3248,194.1936,249.5504,202.2669z M83.5616,77.2991c-1.2739,1.0762-0.1143,2.5488-1.2637,3.2598 c-0.709,0.1963-0.8613-0.7852-1.5102-0.5371c-0.9585,0.5693-0.0103,1.3652-0.21,2.0791c-0.7866,0.4101-1.52,0.9414-2.7036,0.9189 c0.4477,0.5654,0.1924,1.3076,0.8677,1.4317c1.9272,0.3535,3.6958,1.2128,5.5849,1.6738c0.374,0.0908,0.7984,0.3359,1.2603-0.124 c-1.2832-0.9102-3.002-0.9336-4.0928-2.127c2.2686,0.1543,4.2085,1.4785,6.4028,1.7949c-1.6323-1.1035-3.52-1.6093-5.0385-2.8672 c1.5063-0.0849,2.7143,0.7432,3.9755,1.3467c0.8736,0.4199,1.5552,0.4932,2.2515-0.7392 c-2.0239-0.8848-4.4243-1.0313-6.1152-2.9229c1.3066-0.1719,1.9043,1.0791,3.3193,1.0049 C85.0528,80.139,82.8746,79.6712,83.5616,77.2991z M239.9771,218.5003c-0.6055-0.96-1.3203-1.5694-1.916-0.3369 c-0.7676,1.5957,1.4102,4.5859,3.2129,4.5527c0.0312-0.5781-0.9707-0.5508-0.7588-1.2656 c0.7314-0.0098,1.0264,1.0029,1.8076,0.7744c0.2305-0.5889-0.8945-0.7715-0.3594-1.417c0.7911-0.127,0.9014,1.3379,1.8965,0.793 c0.1807-0.5489-0.8183-0.5967-0.5312-1.1621c0.665-0.2686,1.042,0.8886,1.8017,0.2959c0.0118-0.5264-0.4824-0.6407-0.7607-0.9297 c-0.249-0.2588-0.8877-0.3369-0.5029-0.9649c0.956-0.0078,1.208,1.4805,2.3291,1.1016c0.1738-1.0908-1.3067-0.917-1.3487-1.8184 c0.253-0.3047,0.9961,0.1944,0.9366-0.5849C244.0416,216.5501,241.0582,216.9475,239.9771,218.5003z M315.7105,200.1292 c0.7422-1.7578-0.2471-3.7793-1.9414-4.7012c-1.4834-0.8056-2.7432-0.4492-3.7578,1.0625 c-1.2647,1.8848-1.2549,4.1319,0.0898,5.1934c1.2149,0.958,2.7998,1.0342,3.6953-0.4336c-0.9931-0.2959-2.1806,0.498-3.2412-0.4776 c1.3789-0.7959,2.7979,0.1748,3.9834-0.54c-0.6367-0.9561-2.0302-0.0186-2.4111-1.2783 C313.2203,199.7649,314.9439,197.678,315.7105,200.1292z M220.0357,164.2561c-2.0976-2.8486-3.3018-3.5625-4.6367-2.747 c-1.3955,0.8515-2.0527,3.7832-1.1831,5.2763c0.8315,1.4268,1.9624,1.8096,3.312,1.125c-0.0918-0.4453-0.9531-0.0429-0.8301-0.6923 c0.7178-0.4922,1.5488,0.3574,2.3526-0.2071c-0.667-0.9013-1.8975-0.6211-2.5547-1.4619c0.6513-0.2519,1.1338-0.0264,1.6552,0.1143 c0.4551,0.122,0.9385,0.4941,1.417,0.2382c0.128-0.8085-0.8906-0.6796-0.8496-1.2998 C219.0855,164.1311,219.6978,164.7474,220.0357,164.2561z M235.1031,156.1057c0.7363-0.7675,0.7363-0.7675,0.2939-1.4394 c-0.6826-1.041-2.5449-1.5898-3.7959-0.9473c-1.0488,0.5371-2.1699,1.1778-1.8681,2.7061 c0.1836,0.9306,0.7373,1.7051,1.2656,2.4404c0.5117,0.708,1.3389-0.2412,1.9463,0.2813c0.1406-0.4795-0.5401-0.46-0.2803-0.9346 c0.6651,0.207,1.3213,0.5088,2.0049,0.5977c0.6787,0.0869,1.6377,0.4589,1.7637-0.7657 C236.5289,157.096,236.5787,156.1057,235.1031,156.1057z M217.2379,137.1116c1.4228-1.6767,1.5429-3.9336,0.3994-4.9951 c-1.3047-1.2139-3.6241-0.6983-5.2554,1.1699c-0.8315,0.9512-0.2759,3.044,1.1948,4.2334c1.0332,0.835,1.9571,0.5361,2.7871-0.3828 c-0.6445-0.915-2.019-0.0889-2.6821-1.4561c1.2505,0.0411,2.2544,0.5313,3.2866,0.2461 C217.0601,136.3304,217.1314,136.6399,217.2379,137.1116z M270.9156,217.135c0.2568,0,0.5332,0.0596,0.7705-0.0087 c4.9111-1.4141,10.0176-1.8164,14.9902-2.9366c5.1748-1.167,10.4834-1.707,15.5899-3.25c0.8672-0.2627,1.2324-0.4736,0.8379-1.3173 C292.3453,212.1966,281.6226,214.5179,270.9156,217.135z M288.9732,179.8606c1.4346,0.2149,2.8164,0.6094,4.2666,0.6973 c0.5127,0.0312,0.7744,0.0059,1.0713-0.334c0.9248-1.0596,0.7529-2.414-0.5645-3.9541c-0.9179-1.0732-2.0576-1.2031-3.2002-0.4453 c-1.2158,0.8047-2.0644,1.9893-2.4082,3.3887c-0.2041,0.8349-0.4638,2.1103,0.712,2.3789c1.2207,0.2763,2.5732,0.292,4.1025-0.1582 C291.3804,181.0306,289.9371,181.0755,288.9732,179.8606z M40.9122,75.302c6.3222,1.0772,12.2514,2.0879,18.1792,3.0987 c-5.5357-1.8389-10.9829-3.916-16.8413-5.003C42.1495,74.1682,41.6978,74.6741,40.9122,75.302z M329.3423,202.6936 c-0.0087-1.6933-0.9873-2.7041-2.5839-2.6767c-1.6758,0.0322-2.9961,1.539-2.9864,3.4111c0.0098,1.6953,1.2022,2.8428,3.0293,2.917 C328.0386,206.3938,329.3521,204.5042,329.3423,202.6936z M223.7554,141.7181c1.0049-0.6016,1.9434,0.7197,2.9698,0.2128 c-0.25-0.7421-1.125-0.5517-1.1612-1.3398c0.7432-0.0713,1.4649-0.1377,2.1455-0.2021c0.4356,3.5615-2.1748,3.2558-4.4316,3.4609 c1.5068,1.1963,3.4746,0.8584,5.1006-0.6641c1.1211-1.0508,1.1123-2.1592,0.292-3.334c-0.6641-0.9502-3.3496-1.4336-4.5059-0.8525 c-1.4971,0.751-1.8984,2.0293-1.2148,4.0898c0.7138-0.3437,1.5049,0.0879,2.3252-0.164 C224.9488,142.1741,223.8687,142.7005,223.7554,141.7181z M240.1519,173.6575c-0.625-1.2207-2.1562-0.5439-2.4346-1.8135 c0.9786-0.3134,1.8809,0.7549,2.8077,0.1739c-0.042-1.2071-1.9004-0.333-1.7393-1.8106c0.7188,0.127,1.3799,0.2422,2.0684,0.3643 c0.7685-1.1778,0.2646-2.085-0.6543-2.6504c-1.0303-0.6309-2.2217-0.6026-3.1416,0.3047 c-1.0713,1.0566-1.2969,3.9736-0.3076,5.0039C237.6402,174.1556,238.8316,173.9837,240.1519,173.6575z M269.8062,168.6546 c0.7061-0.3828,1.3574,0.4707,2.0225,0.1435c-0.1641-0.6718-1.2178-0.4052-1.1211-1.2812 c0.8633-0.2735,1.8388,0.2441,2.7041-0.4092c-0.3262-0.8896-0.8301-1.626-1.6299-2.1367c-1.1064-0.708-2.1885-0.9326-3.2129,0.1787 c-1.0791,1.1738-1.54,3.251-0.8848,4.1865c0.1153,0.1641,0.3282,0.4121,0.4532,0.3887c1.0215-0.1865,2.0351,0.5225,3.0713,0.0683 C270.8004,169.3216,270.0328,169.4056,269.8062,168.6546z M318.523,174.7102c0.0567-1.8388-0.7539-2.9072-2.2441-2.956 c-1.7793-0.0576-3.5274,1.249-3.5723,2.668c-0.0361,1.1279,2.2676,3.6572,3.332,3.6601 C317.274,178.0852,318.4673,176.4641,318.523,174.7102z M246.8531,151.5364c2.6308,0.5098,2.6308,0.5098,3.3975,0.1104 c-0.9942-1.8848-2.1915-2.5752-4.0088-2.3116c-1.753,0.2539-3.0704,2.6729-2.2764,4.1768 c0.3115,0.5908,3.2217,1.1182,4.3603,0.7607c-0.6406-0.9101-2.0146-0.4541-2.7919-1.498c1.0058-0.1758,1.8105,0.6758,2.7109,0.0342 C247.7994,152.3704,247.0826,152.3411,246.8531,151.5364z M31.5875,114.0891c0.5151-0.3808,1.0493-0.5781,1.4609-0.9287 c0.4038-0.3408,1.3149,0.209,1.5527-0.5966c-0.1225-0.794-1.0727-0.2266-1.2397-0.8731c0.5854-0.5771,1.4438,0.1328,2.0308-0.5889 c-0.2046-1.332-1.2281-1.3183-2.273-1.3525c-1.585-0.0527-2.6118,0.6914-3.0137,2.1729c-0.4565,1.6865,0.5684,2.8154,1.7725,3.7031 c0.8638,0.6357,1.8555,0.6836,2.7441-0.2774C33.7349,114.6575,32.6041,114.9866,31.5875,114.0891z M33.8072,21.136 c1.4932-1.1767,1.646-3.3769,0.4775-5.1719c-0.5322-0.8183-1.1748-1.4609-2.2793-0.9394c-1.8545,0.875-2.8657,2.5068-2.3994,3.8799 c0.7036,2.0693,1.7071,2.789,3.5342,2.4306c-0.7246-0.6171-1.918-0.4921-2.2827-1.4541c0.5268-0.6396,1.0679,0.4522,1.5185-0.2021 c-0.1401-0.7275-1.1953-0.7461-1.268-1.7051c1.185,0.3311,1.6098-1.9765,2.9287-0.8574 C34.6231,18.5354,33.209,19.6565,33.8072,21.136z M45.1646,50.9485c-1.666-0.124-2.291-0.457-2.811-1.4775 c0.7553-0.1944,1.4101,1.0947,2.251,0.2588c-0.2315-0.8057-1.4571-0.3477-1.4541-1.3037c0.8022-0.503,1.5239,0.7089,2.3623-0.0059 c-0.6558-1.1455-1.7085-1.5635-2.8721-1.3662c-1.1026,0.1865-2.3101,0.5596-2.7559,1.7471 c-0.3872,1.0351,0.1363,1.8955,0.8496,2.4033c1.9585-0.6758,3.2222,1.0703,4.8448,1.081c0.8305-2.1123,0.8227-2.1845-0.2847-2.623 C44.8965,50.0452,45.586,50.472,45.1646,50.9485z M282.1089,180.9515c-0.3505-1.7081-1.4687-2.5059-2.9794-2.1143 c-1.7813,0.4619-2.7559,2.4961-2.1436,4.4766c0.3008,0.9668,1.9092,1.2646,3.4775,0.6367 c-0.1923-0.7178-0.8203-0.542-1.3144-0.6543c-0.5752-0.1299-1.0869-0.3467-1.126-1.124c1.1172-0.0342,2.0674,1.0752,3.1026,0.2412 c-0.0284-0.8184-1.3165-0.5049-1.1133-1.459C280.7047,180.3997,281.4175,181.5813,282.1089,180.9515z M76.8502,29.7708 c0.8554-0.4834,1.3774,0.1357,1.9629,0.29c1.062,0.2813,1.0478,0.333,1.602-0.374c-0.354-0.6807-1.7563,0.1787-1.7393-1.0713 c0.5093-0.5166,1.2559,0.3369,1.7203-0.5303c-0.814-1.3681-2.0054-1.4931-3.4454-1.0644 c-1.5097,0.4492-2.1118,1.5791-1.9995,2.9668c0.1109,1.3877,1.0733,2.1221,2.5088,2.1894 c-0.0044-0.8564-1.1885-0.2431-1.1831-1.0468c1.1289-0.501,2.0054,0.8154,3.1719,0.3906 C78.8853,30.4671,77.4942,30.8167,76.8502,29.7708z M276.5064,150.8811c-0.0215-0.6796-0.9521-0.6962-0.8174-1.3535 c0.3975-0.5527,1.3614-0.1728,1.5557-1.0068c-2.0147-1.1475-6.0586,0.8828-6.1895,3.0967 c-0.0263,0.4463-0.0302,1.0351,0.5205,1.0039c1.0137-0.0596,1.8096,0.6562,2.8008,0.7109 c0.0928-0.6152-0.8349-0.6142-0.5927-1.1826c0.7382-0.669,1.413,0.6807,2.1533,0.1602c-0.0283-0.8887-1.2891-0.5547-1.1748-1.4209 C275.3423,150.389,275.8775,151.2913,276.5064,150.8811z M290.5572,150.1722c0.7139-0.503,1.3828,0.0107,2.0391,0.0078 c0.5195-0.001,1-0.1045,1.2451-0.6016c0.2871-0.5889-0.2071-0.9248-0.5567-1.2109c-1.2236-1.001-2.5566-0.8321-3.7939-0.0889 c-1.0567,0.6338-1.2959,1.6436-0.9512,2.8428c0.3496,1.2187,1.4981,1.7861,3.4395,1.5791 c-0.2608-0.8233-1.4707-0.375-1.6846-1.2647c0.6348-0.4043,1.2637,0.6475,1.8799,0.042 C291.9586,150.6409,290.9078,150.9212,290.5572,150.1722z M69.6612,18.4544c-2.0205-0.3467-4.1704,0.3232-4.5132,1.373 c-0.5102,1.5576,0.7173,2.4707,1.5855,3.4463c0.6377,0.7149,1.4282,1.252,2.5322,0.6182c-2.0454-1.252-2.0454-1.252-2.2026-1.8906 c1.0571-0.1866,1.7934,1.3877,3.0913,0.6044c-0.5826-0.8525-1.7998-0.6328-2.1929-1.5224c0.458-0.5869,0.9292,0.3476,1.4277-0.2041 C68.7291,20.1575,68.1929,19.346,69.6612,18.4544z M38.0172,72.0579c0.8242-0.5947,1.4111,0.6611,2.1923,0.1123 c-0.1948-0.875-1.5957-0.5186-1.5644-1.5049c0.2978-0.3359,0.5405-0.1679,0.789-0.0791c0.4864,0.1709,1.0806,0.6299,1.419-0.0635 c0.3447-0.7099-0.3677-1.0703-0.8164-1.3877c-0.981-0.6914-2.627-0.081-3.7764,1.3282c-1.1772,1.4443-0.7007,2.9365,1.1504,3.5674 c-0.1435-0.2764-0.2812-0.5459-0.4453-0.8663c1.0981-0.1181,1.7319,0.9971,2.8022,0.8497 C39.8697,72.7444,38.4361,72.8948,38.0172,72.0579z M301.7037,217.055c-1.7129,0.0263-3.4004,1.6738-3.3828,3.3047 c0.0048,0.5849,2.5527,2.2255,3.3808,2.1748c1.0264-0.0616,2.125-1.6123,2.0606-2.9082 C303.6763,217.9554,302.94,217.0335,301.7037,217.055z M221.982,247.3391c-0.166-4.5937-4.7783-17.3652-6.4707-18.1503 C217.7076,235.3479,219.8453,241.344,221.982,247.3391z M12.8277,45.2288c1.0205-0.7988,1.7402-1.7012,1.3374-3.1064 c-0.4351-1.5196-1.7686-1.5362-2.8779-1.5752c-1.1768-0.0411-2.1748,0.6923-2.7217,1.7753 c-0.354,0.7012,0.042,1.3438,0.4863,1.9346c0.6836,0.9102,1.5996-0.1426,2.2959,0.4922c0.1099-0.8447-1.188-0.8594-0.7309-1.6963 c0.5717-0.5283,0.9961,0.708,1.5214,0.1348c0.1558-0.6895-1.0712-0.7481-0.5346-1.6358c0.5366,0.1055,1.1084,0.2188,1.9277,0.3819 C12.2628,42.929,14.0772,44.2747,12.8277,45.2288z M45.483,111.3059c0.8994,0.0684,1.7173,0.1612,2.5381,0.1836 c1.0742,0.0313,1.2065-0.663,0.7758-1.372c-0.7758-1.2744-2.1235-1.4756-3.4423-1.291c-1.1753,0.166-1.169,1.289-1.252,2.1777 c-0.1157,1.2471-0.2573,2.5742,1.3252,3.1113c0.3403,0.1162,0.7505,0.25,0.9766-0.2383c-0.6519-0.3662-0.9488-0.6416-1.3164-1.2812 c0.7451,0.1172,1.3964,0.2207,2.1196,0.3349C47.0953,111.7884,45.6153,112.4329,45.483,111.3059z M19.7784,94.6985 c1.7837,0.0508,1.7837,0.0508,1.8486-0.7099c0.2031-2.3819-0.3076-3.5332-1.6977-3.8223c-1.7681-0.3682-3.2022,0.71-3.8296,2.958 c1.209,0.1377,2.0615,1.3272,3.4736,1.2754c-0.1406-1.2695-1.4072-0.9395-1.7358-1.6182c0.7417-2.0547,2.123-0.9043,3.7495-0.8105 C20.3809,92.7434,21.1837,93.9485,19.7784,94.6985z M259.6724,156.4671c0.8174-0.5391,1.8047,0.1025,2.5186-0.543 c-0.9141-1.4258-1.8594-1.7412-2.8613-0.9756c-1.0079,0.7715-1.5567,2.9785-0.9463,3.835c0.4306,0.6084,1.0761,0.5205,1.665,0.6162 c0.1338-0.5693-0.8506-0.4824-0.4951-1.0625c0.7471-0.3359,1.5039,0.3281,2.1748-0.0313c0.3135-0.4863-0.5322-0.5732-0.2373-0.9921 c0.5849-0.2286,0.8037,0.7734,1.5771,0.3222C262.3697,155.9241,260.5757,157.636,259.6724,156.4671z M34.7032,92.7249 c0.3716,1.9307,1.5693,1.9209,2.7554,1.6475c1.3999-0.3213,1.6572-1.7217,2.0214-2.7891c0.2622-0.7695-1.7241-2.2109-2.7485-2.0742 c-1.3896,0.1855-1.855,1.2109-2.1582,2.5771c1.0103-0.0556,1.7549,0.5156,2.5796,0.3194c0.2461-0.7081-0.7647-0.6133-0.5811-1.294 c0.7779,0.5576,0.3394-0.6767,1.0757-0.5019c0.3032,0.2734,0.7334,0.6611,1.0576,0.9531 C38.1485,94.4319,36.5562,93.8968,34.7032,92.7249z M7.8726,74.4036c-1.1831-1.0996-2.8457-1.2187-3.9599-0.332 c-0.876,0.6972-0.7203,1.6816-0.2515,2.3418c0.6865,0.9668,1.8193,1.1015,3.1401,1.0254c-0.4677-0.8633-1.4048-0.5791-1.499-1.5235 c1.0381,0.1367,2.0342,0.2676,3.2041,0.4248c-0.5591-1.0888-2.0107-0.4345-2.4136-1.6445 C6.7242,74.5462,7.3746,75.2015,7.8726,74.4036z M28.6461,83.7552c-0.5357-1.2032-1.3638-1.8741-2.7315-1.6055 c-1.1421,0.2246-2.0713,0.79-2.102,2.0937c-0.0279,1.1885,1.2588,2.4063,3.1723,2.6622c-2.3423-1.0303-0.0298-2.129-0.7055-3.1153 C27.0303,83.2005,27.7706,84.3987,28.6461,83.7552z M23.1016,71.4817c1.2324-0.3896,2.8496-0.0185,3.8838,0.8672 c0.1406-1.6289-0.0215-1.8017-1.4453-1.8291c-0.6772-0.0146-1.4907,0.2598-2.0034-0.5273c0.7363-0.8828,1.5083,0.291,2.2251-0.2686 c-0.5318-1.1894-1.5176-1.0801-2.4312-0.708c-1.0503,0.4307-1.6308,1.3857-1.4228,2.4883c0.3149,1.6562,1.9023,1.4922,3.3852,2.289 c-0.3408-0.6503-0.3955-0.8876-0.5449-1.0146C24.2237,72.3313,23.6671,71.9222,23.1016,71.4817z M310.8277,190.0354 c1.5283,0.001,3.4922-1.3232,3.4854-2.288c-0.0049-0.9659-1.4122-2.1221-2.5567-2.0997c-1.1865,0.0254-2.4756,1.5879-2.416,3.0137 C309.3785,189.6292,309.8834,190.1682,310.8277,190.0354z M283.772,172.304c-0.2754-1.3975-1.0586-1.5957-2.0644-1.419 c-1.1348,0.2002-2.0879,0.711-2.3877,1.8887c-0.0762,0.3018,0.3125,1.0078,0.581,1.0606c1.1534,0.2353,2.3623,0.3828,3.3995-0.5391 c-0.5938-0.7725-1.6231-0.0293-2.0782-0.9912C282.0621,172.304,282.8004,172.304,283.772,172.304z M260.1978,179.3421 c-1.4678-0.0938-2.1123,0.2295-2.2724,1.5097c-0.2276,1.8116-0.8106,3.5577-1.4073,5.2901 c-0.4306,1.2451-0.7773,2.5205-1.1611,3.7812C257.2193,186.5725,258.2388,182.8997,260.1978,179.3421z M274.1119,154.6272 c1.4199,0.3428,2.7588,1.2305,4.0459-0.039c1.2207-1.208,1.0928-3.8448-0.1983-5.5489c-0.6572,0.418-1.0019,0.7559-0.4209,1.6202 c0.6202,0.9179,0.5205,1.9394,0.0245,3.0136c-0.5918,1.2793-1.4717,0.71-2.3243,0.627 C274.8951,154.2649,274.5054,154.0794,274.1119,154.6272z M244.2955,154.9046c0.7519,1.1064,1.9052,1.4111,3.04,1.2129 c1.3379-0.2305,2.2305-1.2451,2.7998-2.4717c0.1436-0.3076,0.0869-0.6475-0.3603-0.7217c-0.376-0.0625-0.6055,0.0498-0.6709,0.4697 c-0.3418,2.1914-1.7891,1.9102-3.3409,1.5293C245.3384,154.8186,244.8716,154.4388,244.2955,154.9046z M71.4922,23.1585 c0.3228-1.6436,0.1724-3.085-1.1293-4.333c-1.7422,1.3535,1.2011,2.2148,0.2675,3.4668 C70.3814,22.6263,70.6954,23.1204,71.4922,23.1585z M56.1724,5.8538c0.5117,1.2314,1.1729,1.7676,2.1553,1.9268 c0.606,0.1005,0.9297-0.1709,0.7915-0.8858C58.2784,6.597,57.4234,6.2952,56.1724,5.8538z M86.6465,80.6663 c-1.0708-1.8486-1.3388-2.0225-2.5664-1.7637C84.7344,79.8304,85.6822,80.263,86.6465,80.6663z M241.4576,170.9798 c-0.2881,0.8213-0.5762,1.6426-0.9961,2.833C241.7056,172.972,241.9302,172.1165,241.4576,170.9798z M281.5259,184.2561 c0.9112-1.2978,0.9112-1.2978,0.501-2.1162C281.1959,183.7054,281.1959,183.7054,281.5259,184.2561z M246.8209,223.222 c-0.6582-0.5098-1.1914-1.3946-2.4375-0.7598C245.2115,223.0911,245.9605,223.3245,246.8209,223.222z M247.3033,219.9768 c0.8779-1.1367,0.874-1.3974-0.2197-2.2226C247.3765,218.5921,246.8756,219.2542,247.3033,219.9768z M242.1461,223.5345 c0.6113,0.833,1.2705,1.0195,2.0302,0.9619C243.6392,224.0198,243.1334,223.4671,242.1461,223.5345z M58.0738,21.93 c-0.6484-0.3028-1.2959-0.6065-1.9443-0.9092C56.4669,21.9515,57.2813,21.8587,58.0738,21.93z M233.7857,160.4182 c-0.6133-0.4951-1.0957-0.7724-1.7725-0.4306C232.4029,160.6741,232.8668,160.9485,233.7857,160.4182z M240.2369,225.2093 c0.6191,0.0927,1.0283,0.166,1.2558-0.459C240.9664,224.4192,240.5738,224.3431,240.2369,225.2093z M33.6373,113.8118 c0.3252,0.5703,0.6665,0.6982,1.1899,0.4297C34.5904,113.8333,34.2105,113.8489,33.6373,113.8118z M277.9146,185.1809 c0.8418,0.1817,1.3242,0.3028,2.1006-0.0293C279.23,184.9407,278.7486,184.8255,277.9146,185.1809z M16.8194,58.4954 c0.2612,0.2978,0.5093,0.665,1.0342,0.4707C17.6993,58.4807,17.3492,58.3431,16.8194,58.4954z M272.6265,168.4954 c0.7276,0.5703,0.9551,0.4453,0.8213-0.4453C273.1851,168.1917,272.9566,168.3157,272.6265,168.4954z M271.6021,153.5081 c0.1807,0.7295,0.4942,0.6543,0.96,0.2402C272.2828,153.5569,272.0875,153.3128,271.6021,153.5081z M290.6402,182.5677 c-0.4375-0.2745-0.8311-0.2256-1.2715-0.0137C289.8043,182.8538,290.1988,182.761,290.6402,182.5677z M247.608,222.0745 c0.0908-0.1797,0.2138-0.3125,0.2011-0.4316c-0.0127-0.1084-0.1679-0.2725-0.2714-0.2832 c-0.2793-0.0264-0.3731,0.2002-0.3174,0.4199C247.2486,221.887,247.441,221.9534,247.608,222.0745z M219.9742,162.6946 c-0.0879,0.1035-0.1475,0.1738-0.207,0.2432c0.0781,0.0654,0.1474,0.1592,0.2363,0.1836c0.0693,0.0195,0.1611-0.0498,0.2451-0.0791 C220.1588,162.928,220.0699,162.8147,219.9742,162.6946z M5.4,78.2356c0.3335,0.2364,0.666,0.3184,0.6714,0.1055 C6.0801,77.9544,5.7681,78.0306,5.4,78.2356z M96.8116,90.5813c-0.0518-0.083-0.1021-0.164-0.1538-0.2451 c-0.0449,0.0498-0.1348,0.1338-0.127,0.1445c0.0542,0.0713,0.128,0.129,0.2002,0.1846 C96.7335,90.6692,96.7833,90.6106,96.8116,90.5813z M36.0699,112.8616c-0.0015-0.3203-0.1397-0.4902-0.3706-0.498 c-0.1055-0.0049-0.2163,0.163-0.3252,0.2529c0.1299,0.1533,0.2461,0.3262,0.4014,0.4473 C35.8072,113.0882,35.9903,112.9173,36.0699,112.8616z M246.1119,221.8772c0.1338-0.0615,0.2207-0.1015,0.3086-0.1425 c-0.084-0.1163-0.1553-0.2481-0.2608-0.3418c-0.0263-0.0254-0.1572,0.0664-0.2402,0.1045 C245.983,221.6224,246.0464,221.7474,246.1119,221.8772z M246.8091,207.7356c-0.0185-0.0449-0.0361-0.0898-0.0546-0.1347 c-0.0616,0.0449-0.1309,0.082-0.1778,0.1357c-0.0146,0.0166,0.0313,0.085,0.0498,0.1289 C246.6871,207.8225,246.7486,207.7806,246.8091,207.7356z M7.7955,77.9944c0.0327-0.3105,0.0527-0.4961,0.0722-0.6816 c-0.125,0.001-0.3315-0.041-0.3608,0.0117C7.4102,77.5032,7.3804,77.7141,7.7955,77.9944z M55.7593,31.9856 c-0.0644,0.0586-0.1284,0.1182-0.1923,0.1768c0.0815,0.0459,0.1645,0.1318,0.2451,0.1289 c0.1147-0.0059,0.3066-0.0195,0.2104-0.2217C55.9957,32.013,55.8536,32.012,55.7593,31.9856z M79.0464,86.1966 c0.1626,0.1914,0.2305,0.3134,0.335,0.375c0.0557,0.0332,0.1724-0.042,0.2617-0.0655c-0.0459-0.1171-0.0644-0.2724-0.1504-0.3388 C79.4263,86.1165,79.274,86.177,79.0464,86.1966z M266.1011,217.7981c-0.04,0.0088-0.0879,0.0059-0.1162,0.0303 c-0.0146,0.0107,0.0108,0.0674,0.0186,0.1055c0.04-0.0117,0.0869-0.0166,0.1211-0.0391 C266.1334,217.888,266.1099,217.8313,266.1011,217.7981z M262.4097,159.2786c-0.1103-0.0225-0.2119-0.0752-0.291-0.0527 c-0.1572,0.0439-0.1572,0.1396-0.0117,0.2148c0.042,0.0225,0.1143,0.04,0.1445,0.0186 C262.3111,159.4173,262.3511,159.3489,262.4097,159.2786z M235.067,159.6028l-0.1202,0.0567l0.125,0.0468L235.067,159.6028z M242.7838,224.6722c-0.0391,0.0146-0.085,0.0224-0.1124,0.0478c-0.0097,0.0117,0.0176,0.0918,0.0342,0.0947 c0.0371,0.0039,0.0899-0.0117,0.1104-0.039C242.8277,224.76,242.7964,224.7073,242.7838,224.6722z M220.4664,165.5384 l0.0771,0.0517l0.0117-0.081L220.4664,165.5384z M75.6905,63.4563l-0.0601,0.0869l0.0918,0.0137L75.6905,63.4563z" fill="inherit"/><path d="M314.9136,197.2356c-1.29,1.2471-2.2578,0.7539-3.2148,0.4873 C312.5504,196.9524,313.522,197.2581,314.9136,197.2356z" fill="inherit"/><path d="M235.9205,157.719c-0.9639,0.6358-1.7246,0.2315-2.4121-0.5175 C234.3131,157.3743,235.1168,157.5472,235.9205,157.719z" fill="inherit"/><path d="M215.8482,132.4554c0.4629,0.958,0.8809,1.8212,1.2969,2.6826c-0.5528,0.3994-1.0127,0.0791-1.6992,0.0498 C216.3775,134.3499,214.9898,133.43,215.8482,132.4554z" fill="inherit"/><path d="M290.3882,178.97c1.1407-0.2851,2.0606,0.5508,2.9854-0.0566c0.1875-0.1231,0.5078,0.1923,0.4951,0.4843 c-0.0224,0.4424-0.4121,0.7051-0.7558,0.6797C292.1724,180.01,291.2584,179.7884,290.3882,178.97z" fill="inherit"/><path d="M291.6207,177.2649c0.6875-0.0556,1.2812-0.1045,1.9726-0.1601 C292.7955,178.1985,292.7955,178.1985,291.6207,177.2649z" fill="inherit"/><path d="M325.2271,204.8255c0.5996-0.4932,1.3272-0.1973,1.8613-0.7979c-1.2988-0.9326-0.2216-1.79,0.1934-3.0371 c0.332,1.2217,0.209,2.2119,0.5957,3.1524C328.1705,204.8518,326.5035,205.3782,325.2271,204.8255z" fill="inherit"/><path d="M261.9166,173.5638c-0.2237,0.4248-0.6368,0.6445-0.2823,1.373c0.6748,1.3887,0.0098,2.1846-1.5507,2.1846 c-1.0459,0-2.0752-0.0635-3.2051-0.8047c1.5244-0.5664,2.8711,0.5019,4.3428-0.1563c-0.878-0.5595-1.8389-0.3662-2.5782-1.0205 c0.7813-0.5146,1.5235,0.3086,2.1992-0.125c0.335-1.0068-0.9619-0.5898-1.1552-1.456c0.7832,0,1.5039,0,2.2256,0L261.9166,173.5638 z" fill="inherit"/><path d="M7.0313,113.5813c-0.3647,1.0157-0.5254,1.0196-2.2446,0.0088c0.8052-0.5166,1.5469,0.2305,2.2881,0.0401 C7.0714,113.6263,7.0313,113.5813,7.0313,113.5813z" fill="inherit"/><path d="M304.1968,194.8616c-0.7968,0.9356-1.6484,1.2129-2.9951,0.0205c1.2578,0,2.1387,0,3.0196,0.001 C304.2232,194.8831,304.1968,194.8616,304.1968,194.8616z" fill="inherit"/><path d="M316.565,174.9427c-0.1035-0.7686-0.7734-0.6368-0.96-1.0977c0.25-0.7002,0.9454-0.5361,1.6846-0.8467 c-0.4834,1.0137,0.4385,1.4307,0.6172,2.1231c-1.9844,1.8174-1.9844,1.8174-3.333,1.2451 C315.1041,175.6868,315.1304,174.5403,316.565,174.9427z" fill="inherit"/><path d="M258.6978,143.1526c-1.1709-0.2324-2.4873,0.3174-3.6963-0.6767c0.9053-0.6787,1.8369,0.1318,2.6192-0.2149 c0.0361-0.9531-1.0479-0.4531-1.2471-1.1181c0.5771-0.6495,1.7256,0.4668,1.9336-0.8555c1.1377,1.0566,0.0088,2.0244,0.3389,2.9121 C258.6461,143.2015,258.6978,143.1526,258.6978,143.1526z" fill="inherit"/><path d="M218.939,179.3216c-0.5634,0.1064-1.0322-0.0909-1.4736-0.3955c0.0391-0.6397,0.458-0.8457,0.9531-1.0655 c0.4903,0.3828-0.5722,1.3438,0.5176,1.46L218.939,179.3216z" fill="inherit"/><path d="M299.9146,219.9925c1.1348,0.748,1.461-0.2071,2.0166-0.7862c-0.3506-0.5244-1.3447-1.1611,0.2139-1.4912 c0.5722,0.9951,0.793,2.0449,0.8027,3.1514C301.2613,221.6282,300.3052,221.4095,299.9146,219.9925z" fill="inherit"/><path d="M47.6192,110.6888c-0.7007,0.0029-1.3174-0.1026-1.9399-0.5157 C46.7579,109.5003,47.3399,109.6546,47.6192,110.6888z" fill="inherit"/><path d="M310.7359,186.9602c0.5615-0.5039,1.2432-0.1865,2.0098-0.3359c-0.1192,0.6982-0.0303,1.333,0.2314,1.9043 c-0.7383,0.5742-1.3994,0.8496-2.2285,0.5977c-0.0117-0.8633,1.0547-0.4346,1.2139-1.0752 C311.9146,187.3313,310.8316,187.721,310.7359,186.9602z" fill="inherit"/></g></svg>