<?xml version="1.0" encoding="UTF-8"?><svg xmlns="http://www.w3.org/2000/svg" xmlns:xlink="http://www.w3.org/1999/xlink" fill="#ffffff" height="19.8" preserveAspectRatio="xMidYMid meet" version="1" viewBox="3.1 6.2 26.0 19.8" width="26" zoomAndPan="magnify"><g id="change1_1"><path d="M 9.820312 17.410156 C 9.730469 19.097656 11.035156 20.5625 12.71875 20.667969 C 14.402344 20.558594 15.703125 19.09375 15.609375 17.410156 C 15.703125 15.726562 14.402344 14.257812 12.71875 14.140625 C 11.03125 14.253906 9.730469 15.722656 9.820312 17.410156 Z M 13.609375 17.410156 C 13.609375 18.089844 13.199219 18.667969 12.71875 18.667969 C 12.238281 18.667969 11.820312 18.089844 11.820312 17.410156 C 11.820312 16.730469 12.230469 16.140625 12.71875 16.140625 C 13.210938 16.140625 13.609375 16.71875 13.609375 17.410156" fill="inherit"/><path d="M 19.28125 14.140625 C 17.597656 14.257812 16.296875 15.726562 16.390625 17.410156 C 16.296875 19.09375 17.597656 20.558594 19.28125 20.667969 C 20.964844 20.5625 22.269531 19.097656 22.179688 17.410156 C 22.269531 15.722656 20.96875 14.253906 19.28125 14.140625 Z M 19.28125 18.667969 C 18.800781 18.667969 18.390625 18.089844 18.390625 17.410156 C 18.390625 16.730469 18.800781 16.140625 19.28125 16.140625 C 19.761719 16.140625 20.179688 16.71875 20.179688 17.410156 C 20.179688 18.101562 19.769531 18.667969 19.28125 18.667969" fill="inherit"/><path d="M 26.628906 10.53125 L 26.558594 10.441406 C 26.558594 10.441406 26.558594 10.371094 26.558594 10.339844 C 24.824219 8.230469 22.429688 6.769531 19.761719 6.191406 C 19.667969 6.164062 19.578125 6.152344 19.480469 6.152344 C 18.933594 6.152344 18.480469 6.601562 18.480469 7.152344 C 18.480469 7.621094 18.816406 8.035156 19.28125 8.128906 C 21.484375 8.601562 23.472656 9.796875 24.929688 11.519531 C 26.277344 14.613281 26.984375 17.953125 27 21.332031 C 25.605469 22.628906 23.871094 23.503906 22 23.851562 L 22 23.339844 C 23.234375 22.863281 24.390625 22.207031 25.429688 21.390625 C 25.667969 21.199219 25.808594 20.910156 25.808594 20.605469 C 25.808594 20.054688 25.355469 19.601562 24.804688 19.601562 C 24.578125 19.601562 24.359375 19.679688 24.179688 19.820312 C 21.832031 21.601562 18.945312 22.519531 16 22.417969 C 13.082031 22.5 10.21875 21.585938 7.890625 19.820312 C 7.710938 19.679688 7.492188 19.601562 7.265625 19.601562 C 6.714844 19.601562 6.261719 20.054688 6.261719 20.605469 C 6.261719 20.910156 6.402344 21.199219 6.640625 21.390625 C 7.675781 22.203125 8.824219 22.863281 10.050781 23.339844 L 10.050781 23.851562 C 8.179688 23.503906 6.441406 22.628906 5.050781 21.332031 C 5.074219 17.953125 5.785156 14.613281 7.140625 11.519531 C 8.597656 9.796875 10.585938 8.601562 12.789062 8.128906 C 13.21875 8.007812 13.511719 7.613281 13.511719 7.167969 C 13.511719 6.621094 13.0625 6.167969 12.511719 6.167969 C 12.445312 6.167969 12.378906 6.175781 12.308594 6.191406 C 9.640625 6.769531 7.246094 8.230469 5.511719 10.339844 C 3.773438 12.449219 5.511719 10.410156 5.511719 10.441406 L 5.441406 10.53125 C 3.5 14.53125 3.28125 18.179688 3.070312 21.667969 C 3.050781 21.957031 3.15625 22.238281 3.359375 22.441406 C 5.390625 24.511719 8.105469 25.777344 11 26 C 11.261719 26 11.515625 25.894531 11.699219 25.710938 C 11.890625 25.523438 12 25.265625 12 25 L 12 24 C 14.632812 24.617188 17.367188 24.617188 20 24 L 20 25 C 20 25.265625 20.109375 25.523438 20.300781 25.710938 C 20.484375 25.894531 20.738281 26 21 26 C 23.921875 25.8125 26.675781 24.5625 28.738281 22.488281 C 28.941406 22.289062 29.046875 22.007812 29.03125 21.71875 C 28.789062 18.179688 28.570312 14.570312 26.628906 10.53125" fill="inherit"/><path d="M 23.488281 11.71875 C 23.5625 11.578125 23.601562 11.417969 23.601562 11.257812 C 23.601562 10.886719 23.394531 10.539062 23.058594 10.371094 C 20.859375 9.320312 18.4375 8.804688 16 8.871094 C 13.5625 8.804688 11.140625 9.320312 8.941406 10.371094 C 8.605469 10.539062 8.398438 10.886719 8.398438 11.257812 C 8.398438 11.417969 8.4375 11.578125 8.511719 11.71875 C 8.765625 12.207031 9.375 12.394531 9.859375 12.140625 C 11.777344 11.242188 13.882812 10.808594 16 10.871094 C 18.117188 10.808594 20.222656 11.242188 22.140625 12.140625 C 22.28125 12.214844 22.4375 12.257812 22.601562 12.261719 C 22.972656 12.261719 23.316406 12.050781 23.488281 11.71875" fill="inherit"/></g></svg>