<?xml version="1.0" encoding="UTF-8"?><svg xmlns="http://www.w3.org/2000/svg" xmlns:xlink="http://www.w3.org/1999/xlink" fill="#000000" height="89.8" preserveAspectRatio="xMidYMid meet" version="1" viewBox="0.0 0.2 89.8 89.8" width="89.8" zoomAndPan="magnify"><g><g id="change1_1"><path d="M 89.757812 45.121094 C 89.757812 69.90625 69.664062 90 44.878906 90 C 20.09375 90 0 69.90625 0 45.121094 C 0 20.335938 20.09375 0.242188 44.878906 0.242188 C 69.664062 0.242188 89.757812 20.335938 89.757812 45.121094 Z M 89.757812 45.121094" fill="#55acee"/></g><g id="change2_1"><path d="M 72.367188 32.496094 C 70.445312 33.347656 68.375 33.925781 66.207031 34.183594 C 68.421875 32.855469 70.121094 30.753906 70.925781 28.25 C 68.851562 29.476562 66.554688 30.371094 64.113281 30.851562 C 62.15625 28.765625 59.367188 27.464844 56.28125 27.464844 C 50.355469 27.464844 45.554688 32.269531 45.554688 38.191406 C 45.554688 39.03125 45.648438 39.851562 45.832031 40.636719 C 36.917969 40.1875 29.011719 35.917969 23.722656 29.425781 C 22.796875 31.011719 22.269531 32.855469 22.269531 34.820312 C 22.269531 38.542969 24.164062 41.828125 27.039062 43.75 C 25.28125 43.695312 23.628906 43.210938 22.179688 42.40625 C 22.179688 42.453125 22.179688 42.496094 22.179688 42.542969 C 22.179688 47.738281 25.878906 52.074219 30.785156 53.058594 C 29.886719 53.304688 28.9375 53.4375 27.960938 53.4375 C 27.269531 53.4375 26.597656 53.371094 25.941406 53.246094 C 27.308594 57.507812 31.269531 60.609375 35.964844 60.695312 C 32.292969 63.574219 27.667969 65.285156 22.640625 65.285156 C 21.773438 65.285156 20.917969 65.238281 20.082031 65.136719 C 24.828125 68.179688 30.464844 69.957031 36.523438 69.957031 C 56.253906 69.957031 67.046875 53.609375 67.046875 39.433594 C 67.046875 38.96875 67.035156 38.507812 67.015625 38.046875 C 69.113281 36.535156 70.929688 34.644531 72.367188 32.496094 Z M 72.367188 32.496094" fill="#f1f2f2"/></g></g></svg>